<svg version="1.1" viewBox="0.0 0.0 634.0 392.0" fill="none" stroke="none" stroke-linecap="square" stroke-miterlimit="10" width="634" height="392" xmlns:xlink="http://www.w3.org/1999/xlink" xmlns="http://www.w3.org/2000/svg"><path fill="#ffffff" d="M0 0L634.0 0L634.0 392.0L0 392.0L0 0Z" fill-rule="nonzero"/><path stroke="#333333" stroke-width="1.0" stroke-linecap="butt" d="M46.5 352.5L614.5 352.5" fill-rule="nonzero"/><path stroke="#cccccc" stroke-width="1.0" stroke-linecap="butt" d="M46.5 286.5L614.5 286.5" fill-rule="nonzero"/><path stroke="#cccccc" stroke-width="1.0" stroke-linecap="butt" d="M46.5 221.5L614.5 221.5" fill-rule="nonzero"/><path stroke="#cccccc" stroke-width="1.0" stroke-linecap="butt" d="M46.5 156.5L614.5 156.5" fill-rule="nonzero"/><path stroke="#cccccc" stroke-width="1.0" stroke-linecap="butt" d="M46.5 90.5L614.5 90.5" fill-rule="nonzero"/><path stroke="#e6e6e6" stroke-width="1.0" stroke-linecap="butt" d="M46.5 339.5L614.5 339.5" fill-rule="nonzero"/><path stroke="#e6e6e6" stroke-width="1.0" stroke-linecap="butt" d="M46.5 326.5L614.5 326.5" fill-rule="nonzero"/><path stroke="#e6e6e6" stroke-width="1.0" stroke-linecap="butt" d="M46.5 313.5L614.5 313.5" fill-rule="nonzero"/><path stroke="#e6e6e6" stroke-width="1.0" stroke-linecap="butt" d="M46.5 300.5L614.5 300.5" fill-rule="nonzero"/><path stroke="#e6e6e6" stroke-width="1.0" stroke-linecap="butt" d="M46.5 273.5L614.5 273.5" fill-rule="nonzero"/><path stroke="#e6e6e6" stroke-width="1.0" stroke-linecap="butt" d="M46.5 260.5L614.5 260.5" fill-rule="nonzero"/><path stroke="#e6e6e6" stroke-width="1.0" stroke-linecap="butt" d="M46.5 247.5L614.5 247.5" fill-rule="nonzero"/><path stroke="#e6e6e6" stroke-width="1.0" stroke-linecap="butt" d="M46.5 234.5L614.5 234.5" fill-rule="nonzero"/><path stroke="#e6e6e6" stroke-width="1.0" stroke-linecap="butt" d="M46.5 208.5L614.5 208.5" fill-rule="nonzero"/><path stroke="#e6e6e6" stroke-width="1.0" stroke-linecap="butt" d="M46.5 195.5L614.5 195.5" fill-rule="nonzero"/><path stroke="#e6e6e6" stroke-width="1.0" stroke-linecap="butt" d="M46.5 182.5L614.5 182.5" fill-rule="nonzero"/><path stroke="#e6e6e6" stroke-width="1.0" stroke-linecap="butt" d="M46.5 169.5L614.5 169.5" fill-rule="nonzero"/><path stroke="#e6e6e6" stroke-width="1.0" stroke-linecap="butt" d="M46.5 143.5L614.5 143.5" fill-rule="nonzero"/><path stroke="#e6e6e6" stroke-width="1.0" stroke-linecap="butt" d="M46.5 129.5L614.5 129.5" fill-rule="nonzero"/><path stroke="#e6e6e6" stroke-width="1.0" stroke-linecap="butt" d="M46.5 116.5L614.5 116.5" fill-rule="nonzero"/><path stroke="#e6e6e6" stroke-width="1.0" stroke-linecap="butt" d="M46.5 103.5L614.5 103.5" fill-rule="nonzero"/><clipPath id="id_0"><path d="M46.6 90.73333L614.4 90.73333L614.4 352.4L46.6 352.4L46.6 90.73333Z" clip-rule="nonzero"/></clipPath><path stroke="#4285f4" stroke-width="1.0" stroke-linecap="butt" stroke-dasharray="1.0,2.0" clip-path="url(#id_0)" d="M103.38 301.00955L216.94 199.08466L330.5 192.55795L444.06 205.65878L557.62 263.5543" fill-rule="nonzero"/><path stroke="#ea4335" stroke-width="1.0" stroke-linecap="butt" stroke-dasharray="1.0,2.0" clip-path="url(#id_0)" d="M103.38 299.4979L216.94 192.10826L330.5 203.70825L444.06 180.56445L557.62 253.0267" fill-rule="nonzero"/><path stroke="#fbbc04" stroke-width="1.0" stroke-linecap="butt" stroke-dasharray="1.0,2.0" clip-path="url(#id_0)" d="M103.38 298.09067L216.94 192.07639L330.5 186.6132L444.06 197.61433L557.62 258.68613" fill-rule="nonzero"/><path stroke="#34a853" stroke-width="1.0" stroke-linecap="butt" stroke-dasharray="1.0,2.0" clip-path="url(#id_0)" d="M103.38 301.73975L216.94 202.69765L330.5 204.49515L444.06 200.89828L557.62 262.51007" fill-rule="nonzero"/><path fill="#4285f4" clip-path="url(#id_0)" d="M103.38 296.50955L107.88 301.00955L103.38 305.50955L98.88 301.00955Z" fill-rule="nonzero"/><path fill="#4285f4" clip-path="url(#id_0)" d="M216.94 194.58466L221.44 199.08466L216.94 203.58466L212.44 199.08466Z" fill-rule="nonzero"/><path fill="#4285f4" clip-path="url(#id_0)" d="M330.5 188.05795L335.0 192.55795L330.5 197.05795L326.0 192.55795Z" fill-rule="nonzero"/><path fill="#4285f4" clip-path="url(#id_0)" d="M444.06 201.15878L448.56 205.65878L444.06 210.15878L439.56 205.65878Z" fill-rule="nonzero"/><path fill="#4285f4" clip-path="url(#id_0)" d="M557.62 259.0543L562.12 263.5543L557.62 268.0543L553.12 263.5543Z" fill-rule="nonzero"/><path fill="#ea4335" clip-path="url(#id_0)" d="M103.38 294.9979L107.88 299.4979L103.38 303.9979L98.88 299.4979Z" fill-rule="nonzero"/><path fill="#ea4335" clip-path="url(#id_0)" d="M216.94 187.60826L221.44 192.10826L216.94 196.60826L212.44 192.10826Z" fill-rule="nonzero"/><path fill="#ea4335" clip-path="url(#id_0)" d="M330.5 199.20825L335.0 203.70825L330.5 208.20825L326.0 203.70825Z" fill-rule="nonzero"/><path fill="#ea4335" clip-path="url(#id_0)" d="M444.06 176.06445L448.56 180.56445L444.06 185.06445L439.56 180.56445Z" fill-rule="nonzero"/><path fill="#ea4335" clip-path="url(#id_0)" d="M557.62 248.5267L562.12 253.0267L557.62 257.5267L553.12 253.0267Z" fill-rule="nonzero"/><path fill="#fbbc04" clip-path="url(#id_0)" d="M103.38 293.59067L107.88 298.09067L103.38 302.59067L98.88 298.09067Z" fill-rule="nonzero"/><path fill="#fbbc04" clip-path="url(#id_0)" d="M216.94 187.57639L221.44 192.07639L216.94 196.57639L212.44 192.07639Z" fill-rule="nonzero"/><path fill="#fbbc04" clip-path="url(#id_0)" d="M330.5 182.1132L335.0 186.6132L330.5 191.1132L326.0 186.6132Z" fill-rule="nonzero"/><path fill="#fbbc04" clip-path="url(#id_0)" d="M444.06 193.11433L448.56 197.61433L444.06 202.11433L439.56 197.61433Z" fill-rule="nonzero"/><path fill="#fbbc04" clip-path="url(#id_0)" d="M557.62 254.18611L562.12 258.68613L557.62 263.18613L553.12 258.68613Z" fill-rule="nonzero"/><path fill="#34a853" clip-path="url(#id_0)" d="M103.38 297.23975L107.88 301.73975L103.38 306.23975L98.88 301.73975Z" fill-rule="nonzero"/><path fill="#34a853" clip-path="url(#id_0)" d="M216.94 198.19765L221.44 202.69765L216.94 207.19765L212.44 202.69765Z" fill-rule="nonzero"/><path fill="#34a853" clip-path="url(#id_0)" d="M330.5 199.99515L335.0 204.49515L330.5 208.99515L326.0 204.49515Z" fill-rule="nonzero"/><path fill="#34a853" clip-path="url(#id_0)" d="M444.06 196.39828L448.56 200.89828L444.06 205.39828L439.56 200.89828Z" fill-rule="nonzero"/><path fill="#34a853" clip-path="url(#id_0)" d="M557.62 258.01007L562.12 262.51007L557.62 267.01007L553.12 262.51007Z" fill-rule="nonzero"/><path fill="#000000" d="M34.1 352.16562Q34.1 350.63437 34.4125 349.7125Q34.725 348.775 35.334373 348.275Q35.959373 347.775 36.896873 347.775Q37.584373 347.775 38.1 348.05624Q38.63125 348.3375 38.975 348.86874Q39.31875 349.38437 39.50625 350.13437Q39.69375 350.88437 39.69375 352.16562Q39.69375 353.68124 39.38125 354.60312Q39.084373 355.525 38.459373 356.04062Q37.85 356.54062 36.896873 356.54062Q35.6625 356.54062 34.94375 355.65Q34.1 354.5875 34.1 352.16562ZM35.178123 352.16562Q35.178123 354.275 35.678123 354.97812Q36.178123 355.68124 36.896873 355.68124Q37.63125 355.68124 38.115623 354.97812Q38.615623 354.275 38.615623 352.16562Q38.615623 350.04062 38.115623 349.35312Q37.63125 348.65 36.88125 348.65Q36.1625 348.65 35.725 349.25937Q35.178123 350.04062 35.178123 352.16562Z" fill-rule="nonzero"/><path fill="#000000" d="M34.1 288.73334L35.209373 288.6396Q35.334373 289.4521 35.771873 289.85834Q36.225 290.2646 36.865623 290.2646Q37.615623 290.2646 38.146873 289.68646Q38.678123 289.10834 38.678123 288.17084Q38.678123 287.2646 38.1625 286.74896Q37.6625 286.2177 36.834373 286.2177Q36.334373 286.2177 35.9125 286.4521Q35.50625 286.68646 35.271873 287.04584L34.2875 286.92084L35.115623 282.5146L39.396873 282.5146L39.396873 283.5146L35.959373 283.5146L35.50625 285.8271Q36.271873 285.2802 37.115623 285.2802Q38.240623 285.2802 39.00625 286.06146Q39.7875 286.8427 39.7875 288.0771Q39.7875 289.23334 39.115623 290.0927Q38.2875 291.12396 36.865623 291.12396Q35.69375 291.12396 34.94375 290.4677Q34.209373 289.81146 34.1 288.73334Z" fill-rule="nonzero"/><path fill="#000000" d="M31.06875 225.56667L30.021875 225.56667L30.021875 218.84792Q29.63125 219.20729 29.00625 219.58229Q28.396875 219.94167 27.9125 220.11354L27.9125 219.09792Q28.7875 218.67604 29.44375 218.09792Q30.115625 217.50417 30.396875 216.94167L31.06875 216.94167L31.06875 225.56667ZM34.1 221.33229Q34.1 219.80104 34.4125 218.87917Q34.725 217.94167 35.334373 217.44167Q35.959373 216.94167 36.896873 216.94167Q37.584373 216.94167 38.1 217.22292Q38.63125 217.50417 38.975 218.03542Q39.31875 218.55104 39.50625 219.30104Q39.69375 220.05104 39.69375 221.33229Q39.69375 222.84792 39.38125 223.76979Q39.084373 224.69167 38.459373 225.20729Q37.85 225.70729 36.896873 225.70729Q35.6625 225.70729 34.94375 224.81667Q34.1 223.75417 34.1 221.33229ZM35.178123 221.33229Q35.178123 223.44167 35.678123 224.14479Q36.178123 224.84792 36.896873 224.84792Q37.63125 224.84792 38.115623 224.14479Q38.615623 223.44167 38.615623 221.33229Q38.615623 219.20729 38.115623 218.51979Q37.63125 217.81667 36.88125 217.81667Q36.1625 217.81667 35.725 218.42604Q35.178123 219.20729 35.178123 221.33229Z" fill-rule="nonzero"/><path fill="#000000" d="M31.06875 160.15L30.021875 160.15L30.021875 153.43124Q29.63125 153.79062 29.00625 154.16562Q28.396875 154.525 27.9125 154.69687L27.9125 153.68124Q28.7875 153.25937 29.44375 152.68124Q30.115625 152.0875 30.396875 151.525L31.06875 151.525L31.06875 160.15ZM34.1 157.9L35.209373 157.80624Q35.334373 158.61874 35.771873 159.025Q36.225 159.43124 36.865623 159.43124Q37.615623 159.43124 38.146873 158.85312Q38.678123 158.275 38.678123 157.3375Q38.678123 156.43124 38.1625 155.91562Q37.6625 155.38437 36.834373 155.38437Q36.334373 155.38437 35.9125 155.61874Q35.50625 155.85312 35.271873 156.2125L34.2875 156.0875L35.115623 151.68124L39.396873 151.68124L39.396873 152.68124L35.959373 152.68124L35.50625 154.99374Q36.271873 154.44687 37.115623 154.44687Q38.240623 154.44687 39.00625 155.22812Q39.7875 156.00937 39.7875 157.24374Q39.7875 158.4 39.115623 159.25937Q38.2875 160.29062 36.865623 160.29062Q35.69375 160.29062 34.94375 159.63437Q34.209373 158.97812 34.1 157.9Z" fill-rule="nonzero"/><path fill="#000000" d="M32.646873 93.717705L32.646873 94.73333L26.959375 94.73333Q26.959375 94.35833 27.084375 93.998955Q27.303125 93.42083 27.771875 92.85833Q28.25625 92.29583 29.1625 91.561455Q30.56875 90.405205 31.053125 89.73333Q31.553125 89.061455 31.553125 88.467705Q31.553125 87.842705 31.1 87.42083Q30.646875 86.98333 29.928125 86.98333Q29.1625 86.98333 28.709375 87.436455Q28.25625 87.88958 28.240625 88.70208L27.1625 88.592705Q27.271875 87.373955 27.990625 86.748955Q28.725 86.10833 29.959375 86.10833Q31.19375 86.10833 31.9125 86.79583Q32.63125 87.48333 32.63125 88.498955Q32.63125 89.01458 32.4125 89.51458Q32.209373 89.998955 31.709375 90.561455Q31.225 91.10833 30.1 92.061455Q29.146875 92.85833 28.865625 93.155205Q28.6 93.436455 28.428125 93.717705L32.646873 93.717705ZM34.1 90.498955Q34.1 88.967705 34.4125 88.04583Q34.725 87.10833 35.334373 86.60833Q35.959373 86.10833 36.896873 86.10833Q37.584373 86.10833 38.1 86.38958Q38.63125 86.67083 38.975 87.20208Q39.31875 87.717705 39.50625 88.467705Q39.69375 89.217705 39.69375 90.498955Q39.69375 92.01458 39.38125 92.936455Q39.084373 93.85833 38.459373 94.373955Q37.85 94.873955 36.896873 94.873955Q35.6625 94.873955 34.94375 93.98333Q34.1 92.92083 34.1 90.498955ZM35.178123 90.498955Q35.178123 92.60833 35.678123 93.311455Q36.178123 94.01458 36.896873 94.01458Q37.63125 94.01458 38.115623 93.311455Q38.615623 92.60833 38.615623 90.498955Q38.615623 88.373955 38.115623 87.686455Q37.63125 86.98333 36.88125 86.98333Q36.1625 86.98333 35.725 87.592705Q35.178123 88.373955 35.178123 90.498955Z" fill-rule="nonzero"/><path fill="#000000" d="M93.86437 369.4L97.16125 360.80624L98.38 360.80624L101.89562 369.4L100.61437 369.4L99.59875 366.79062L96.02062 366.79062L95.0675 369.4L93.86437 369.4ZM96.34875 365.86874L99.255 365.86874L98.36437 363.49374Q97.9425 362.41562 97.755 361.7125Q97.58312 362.54062 97.28625 363.35312L96.34875 365.86874ZM105.73937 367.11874L106.77062 367.25937Q106.59875 368.32187 105.89562 368.93124Q105.1925 369.54062 104.17687 369.54062Q102.89562 369.54062 102.11437 368.7125Q101.34875 367.86874 101.34875 366.30624Q101.34875 365.30624 101.67687 364.55624Q102.02062 363.79062 102.6925 363.41562Q103.38 363.04062 104.1925 363.04062Q105.1925 363.04062 105.83312 363.55624Q106.48937 364.05624 106.67687 365.00937L105.64562 365.16562Q105.505 364.54062 105.13 364.22812Q104.755 363.9 104.22375 363.9Q103.42687 363.9 102.92687 364.47812Q102.42687 365.04062 102.42687 366.275Q102.42687 367.54062 102.91125 368.10312Q103.39562 368.66562 104.16125 368.66562Q104.78625 368.66562 105.1925 368.29062Q105.61437 367.91562 105.73937 367.11874ZM111.73937 367.11874L112.77062 367.25937Q112.59875 368.32187 111.89562 368.93124Q111.1925 369.54062 110.17687 369.54062Q108.89562 369.54062 108.11437 368.7125Q107.34875 367.86874 107.34875 366.30624Q107.34875 365.30624 107.67687 364.55624Q108.02062 363.79062 108.6925 363.41562Q109.38 363.04062 110.1925 363.04062Q111.1925 363.04062 111.83312 363.55624Q112.48937 364.05624 112.67687 365.00937L111.64562 365.16562Q111.505 364.54062 111.13 364.22812Q110.755 363.9 110.22375 363.9Q109.42687 363.9 108.92687 364.47812Q108.42687 365.04062 108.42687 366.275Q108.42687 367.54062 108.91125 368.10312Q109.39562 368.66562 110.16125 368.66562Q110.78625 368.66562 111.1925 368.29062Q111.61437 367.91562 111.73937 367.11874Z" fill-rule="nonzero"/><path fill="#000000" d="M210.92438 369.4L210.92438 360.80624L216.72125 360.80624L216.72125 361.82187L212.065 361.82187L212.065 364.47812L216.09625 364.47812L216.09625 365.49374L212.065 365.49374L212.065 369.4L210.92438 369.4ZM221.40875 369.4L220.36188 369.4L220.36188 362.68124Q219.97125 363.04062 219.34625 363.41562Q218.73688 363.775 218.2525 363.94687L218.2525 362.93124Q219.1275 362.50937 219.78375 361.93124Q220.45563 361.3375 220.73688 360.775L221.40875 360.775L221.40875 369.4Z" fill-rule="nonzero"/><path fill="#000000" d="M321.92188 369.4L321.92188 360.80624L325.17188 360.80624Q326.01562 360.80624 326.46875 360.88437Q327.10938 360.99374 327.53125 361.29062Q327.96875 361.5875 328.21875 362.11874Q328.48438 362.65 328.48438 363.29062Q328.48438 364.38437 327.78125 365.15Q327.09375 365.9 325.26562 365.9L323.0625 365.9L323.0625 369.4L321.92188 369.4ZM323.0625 364.9L325.28125 364.9Q326.39062 364.9 326.84375 364.49374Q327.3125 364.07187 327.3125 363.32187Q327.3125 362.79062 327.03125 362.41562Q326.76562 362.025 326.32812 361.9Q326.03125 361.82187 325.26562 361.82187L323.0625 361.82187L323.0625 364.9ZM329.78125 369.4L329.78125 363.18124L330.73438 363.18124L330.73438 364.11874Q331.09375 363.4625 331.39062 363.25937Q331.70312 363.04062 332.07812 363.04062Q332.60938 363.04062 333.15625 363.36874L332.79688 364.35312Q332.40625 364.11874 332.03125 364.11874Q331.67188 364.11874 331.39062 364.3375Q331.125 364.54062 331.01562 364.91562Q330.82812 365.47812 330.82812 366.13437L330.82812 369.4L329.78125 369.4ZM338.04688 367.4L339.14062 367.525Q338.89062 368.47812 338.1875 369.00937Q337.48438 369.54062 336.40625 369.54062Q335.04688 369.54062 334.23438 368.69687Q333.4375 367.85312 333.4375 366.3375Q333.4375 364.775 334.25 363.91562Q335.0625 363.04062 336.34375 363.04062Q337.59375 363.04062 338.375 363.88437Q339.17188 364.72812 339.17188 366.275Q339.17188 366.36874 339.17188 366.55624L334.53125 366.55624Q334.59375 367.5875 335.10938 368.13437Q335.625 368.66562 336.40625 368.66562Q336.98438 368.66562 337.39062 368.36874Q337.8125 368.05624 338.04688 367.4ZM334.59375 365.69687L338.0625 365.69687Q338.0 364.9 337.67188 364.50937Q337.15625 363.9 336.35938 363.9Q335.625 363.9 335.125 364.38437Q334.64062 364.86874 334.59375 365.69687Z" fill-rule="nonzero"/><path fill="#000000" d="M433.9975 369.4L433.9975 360.80624L437.81 360.80624Q438.96625 360.80624 439.56 361.04062Q440.15375 361.275 440.51312 361.86874Q440.8725 362.44687 440.8725 363.15Q440.8725 364.07187 440.27875 364.69687Q439.685 365.32187 438.45062 365.49374Q438.90375 365.7125 439.13812 365.91562Q439.63812 366.36874 440.07562 367.05624L441.57562 369.4L440.13812 369.4L439.01312 367.61874Q438.51312 366.8375 438.185 366.43124Q437.8725 366.025 437.60687 365.86874Q437.35687 365.69687 437.09125 365.61874Q436.90375 365.5875 436.46625 365.5875L435.13812 365.5875L435.13812 369.4L433.9975 369.4ZM435.13812 364.60312L437.59125 364.60312Q438.35687 364.60312 438.79437 364.44687Q439.2475 364.275 439.46625 363.93124Q439.70062 363.57187 439.70062 363.15Q439.70062 362.54062 439.2475 362.15Q438.81 361.75937 437.85687 361.75937L435.13812 361.75937L435.13812 364.60312ZM447.10687 367.4L448.20062 367.525Q447.95062 368.47812 447.2475 369.00937Q446.54437 369.54062 445.46625 369.54062Q444.10687 369.54062 443.29437 368.69687Q442.4975 367.85312 442.4975 366.3375Q442.4975 364.775 443.31 363.91562Q444.1225 363.04062 445.40375 363.04062Q446.65375 363.04062 447.435 363.88437Q448.23187 364.72812 448.23187 366.275Q448.23187 366.36874 448.23187 366.55624L443.59125 366.55624Q443.65375 367.5875 444.16937 368.13437Q444.685 368.66562 445.46625 368.66562Q446.04437 368.66562 446.45062 368.36874Q446.8725 368.05624 447.10687 367.4ZM443.65375 365.69687L447.1225 365.69687Q447.06 364.9 446.73187 364.50937Q446.21625 363.9 445.41937 363.9Q444.685 363.9 444.185 364.38437Q443.70062 364.86874 443.65375 365.69687ZM453.91937 367.11874L454.95062 367.25937Q454.77875 368.32187 454.07562 368.93124Q453.3725 369.54062 452.35687 369.54062Q451.07562 369.54062 450.29437 368.7125Q449.52875 367.86874 449.52875 366.30624Q449.52875 365.30624 449.85687 364.55624Q450.20062 363.79062 450.8725 363.41562Q451.56 363.04062 452.3725 363.04062Q453.3725 363.04062 454.01312 363.55624Q454.66937 364.05624 454.85687 365.00937L453.82562 365.16562Q453.685 364.54062 453.31 364.22812Q452.935 363.9 452.40375 363.9Q451.60687 363.9 451.10687 364.47812Q450.60687 365.04062 450.60687 366.275Q450.60687 367.54062 451.09125 368.10312Q451.57562 368.66562 452.34125 368.66562Q452.96625 368.66562 453.3725 368.29062Q453.79437 367.91562 453.91937 367.11874Z" fill-rule="nonzero"/><path fill="#000000" d="M547.5575 369.4L547.5575 360.80624L551.37 360.80624Q552.52625 360.80624 553.12 361.04062Q553.71375 361.275 554.0731 361.86874Q554.4325 362.44687 554.4325 363.15Q554.4325 364.07187 553.83875 364.69687Q553.245 365.32187 552.0106 365.49374Q552.46375 365.7125 552.6981 365.91562Q553.1981 366.36874 553.6356 367.05624L555.1356 369.4L553.6981 369.4L552.5731 367.61874Q552.0731 366.8375 551.745 366.43124Q551.4325 366.025 551.1669 365.86874Q550.9169 365.69687 550.65125 365.61874Q550.46375 365.5875 550.02625 365.5875L548.6981 365.5875L548.6981 369.4L547.5575 369.4ZM548.6981 364.60312L551.15125 364.60312Q551.9169 364.60312 552.3544 364.44687Q552.8075 364.275 553.02625 363.93124Q553.2606 363.57187 553.2606 363.15Q553.2606 362.54062 552.8075 362.15Q552.37 361.75937 551.4169 361.75937L548.6981 361.75937L548.6981 364.60312ZM556.02625 366.29062Q556.02625 364.55624 556.9794 363.72812Q557.77625 363.04062 558.9325 363.04062Q560.21375 363.04062 561.02625 363.88437Q561.8544 364.7125 561.8544 366.19687Q561.8544 367.4 561.495 368.0875Q561.1356 368.775 560.4325 369.16562Q559.745 369.54062 558.9325 369.54062Q557.6356 369.54062 556.8231 368.7125Q556.02625 367.86874 556.02625 366.29062ZM557.1044 366.29062Q557.1044 367.47812 557.62 368.07187Q558.15125 368.66562 558.9325 368.66562Q559.7294 368.66562 560.245 368.07187Q560.7606 367.47812 560.7606 366.25937Q560.7606 365.10312 560.2294 364.50937Q559.71375 363.91562 558.9325 363.91562Q558.15125 363.91562 557.62 364.50937Q557.1044 365.0875 557.1044 366.29062ZM567.4794 367.11874L568.5106 367.25937Q568.33875 368.32187 567.6356 368.93124Q566.9325 369.54062 565.9169 369.54062Q564.6356 369.54062 563.8544 368.7125Q563.08875 367.86874 563.08875 366.30624Q563.08875 365.30624 563.4169 364.55624Q563.7606 363.79062 564.4325 363.41562Q565.12 363.04062 565.9325 363.04062Q566.9325 363.04062 567.5731 363.55624Q568.2294 364.05624 568.4169 365.00937L567.3856 365.16562Q567.245 364.54062 566.87 364.22812Q566.495 363.9 565.96375 363.9Q565.1669 363.9 564.6669 364.47812Q564.1669 365.04062 564.1669 366.275Q564.1669 367.54062 564.65125 368.10312Q565.1356 368.66562 565.90125 368.66562Q566.52625 368.66562 566.9325 368.29062Q567.3544 367.91562 567.4794 367.11874Z" fill-rule="nonzero"/><path fill="#4285f4" d="M151.0 57.666668L157.0 63.666668L151.0 69.666664L145.0 63.666668Z" fill-rule="nonzero"/><path fill="#1a1a1a" d="M165.875 59.072914L169.03125 59.072914Q170.10938 59.072914 170.67188 59.24479Q171.42188 59.46354 171.95312 60.041664Q172.5 60.604164 172.78125 61.43229Q173.0625 62.24479 173.0625 63.447914Q173.0625 64.510414 172.8125 65.27604Q172.48438 66.21354 171.89062 66.791664Q171.4375 67.24479 170.67188 67.479164Q170.09375 67.666664 169.125 67.666664L165.875 67.666664L165.875 59.072914ZM167.60938 60.52604L167.60938 66.21354L168.89062 66.21354Q169.625 66.21354 169.95312 66.135414Q170.375 66.02604 170.64062 65.77604Q170.92188 65.52604 171.09375 64.947914Q171.28125 64.36979 171.28125 63.36979Q171.28125 62.385414 171.09375 61.854164Q170.92188 61.30729 170.60938 61.010414Q170.29688 60.71354 169.8125 60.604164Q169.4375 60.52604 168.375 60.52604L167.60938 60.52604ZM175.09375 63.33854L173.59375 63.072914Q173.84375 62.166664 174.45312 61.74479Q175.07812 61.30729 176.29688 61.30729Q177.39062 61.30729 177.92188 61.572914Q178.46875 61.822914 178.6875 62.229164Q178.90625 62.61979 178.90625 63.697914L178.89062 65.61979Q178.89062 66.447914 178.96875 66.83854Q179.04688 67.21354 179.26562 67.666664L177.64062 67.666664Q177.57812 67.49479 177.48438 67.18229Q177.4375 67.02604 177.42188 66.979164Q177.0 67.40104 176.51562 67.604164Q176.04688 67.80729 175.5 67.80729Q174.53125 67.80729 173.96875 67.291664Q173.42188 66.760414 173.42188 65.96354Q173.42188 65.43229 173.67188 65.02604Q173.9375 64.61979 174.39062 64.40104Q174.84375 64.166664 175.70312 64.010414Q176.84375 63.791664 177.29688 63.604164L177.29688 63.447914Q177.29688 62.96354 177.0625 62.760414Q176.82812 62.55729 176.17188 62.55729Q175.73438 62.55729 175.48438 62.729164Q175.25 62.90104 175.09375 63.33854ZM177.29688 64.68229Q176.98438 64.77604 176.29688 64.93229Q175.60938 65.072914 175.39062 65.21354Q175.07812 65.447914 175.07812 65.791664Q175.07812 66.135414 175.32812 66.40104Q175.59375 66.65104 175.98438 66.65104Q176.4375 66.65104 176.84375 66.354164Q177.14062 66.135414 177.23438 65.80729Q177.29688 65.604164 177.29688 65.010414L177.29688 64.68229ZM183.71875 61.447914L183.71875 62.760414L182.59375 62.760414L182.59375 65.260414Q182.59375 66.02604 182.625 66.15104Q182.65625 66.27604 182.76562 66.36979Q182.89062 66.447914 183.04688 66.447914Q183.28125 66.447914 183.70312 66.27604L183.84375 67.55729Q183.28125 67.80729 182.54688 67.80729Q182.10938 67.80729 181.75 67.666664Q181.39062 67.510414 181.21875 67.27604Q181.0625 67.02604 180.98438 66.635414Q180.9375 66.33854 180.9375 65.46354L180.9375 62.760414L180.1875 62.760414L180.1875 61.447914L180.9375 61.447914L180.9375 60.21354L182.59375 59.24479L182.59375 61.447914L183.71875 61.447914ZM186.09375 63.33854L184.59375 63.072914Q184.84375 62.166664 185.45312 61.74479Q186.07812 61.30729 187.29688 61.30729Q188.39062 61.30729 188.92188 61.572914Q189.46875 61.822914 189.6875 62.229164Q189.90625 62.61979 189.90625 63.697914L189.89062 65.61979Q189.89062 66.447914 189.96875 66.83854Q190.04688 67.21354 190.26562 67.666664L188.64062 67.666664Q188.57812 67.49479 188.48438 67.18229Q188.4375 67.02604 188.42188 66.979164Q188.0 67.40104 187.51562 67.604164Q187.04688 67.80729 186.5 67.80729Q185.53125 67.80729 184.96875 67.291664Q184.42188 66.760414 184.42188 65.96354Q184.42188 65.43229 184.67188 65.02604Q184.9375 64.61979 185.39062 64.40104Q185.84375 64.166664 186.70312 64.010414Q187.84375 63.791664 188.29688 63.604164L188.29688 63.447914Q188.29688 62.96354 188.0625 62.760414Q187.82812 62.55729 187.17188 62.55729Q186.73438 62.55729 186.48438 62.729164Q186.25 62.90104 186.09375 63.33854ZM188.29688 64.68229Q187.98438 64.77604 187.29688 64.93229Q186.60938 65.072914 186.39062 65.21354Q186.07812 65.447914 186.07812 65.791664Q186.07812 66.135414 186.32812 66.40104Q186.59375 66.65104 186.98438 66.65104Q187.4375 66.65104 187.84375 66.354164Q188.14062 66.135414 188.23438 65.80729Q188.29688 65.604164 188.29688 65.010414L188.29688 64.68229ZM191.28125 65.885414L192.9375 65.635414Q193.04688 66.11979 193.35938 66.36979Q193.6875 66.61979 194.26562 66.61979Q194.90625 66.61979 195.21875 66.385414Q195.4375 66.21354 195.4375 65.947914Q195.4375 65.760414 195.32812 65.635414Q195.20312 65.510414 194.78125 65.416664Q192.78125 64.979164 192.25 64.61979Q191.51562 64.104164 191.51562 63.21354Q191.51562 62.40104 192.14062 61.854164Q192.78125 61.30729 194.125 61.30729Q195.40625 61.30729 196.03125 61.729164Q196.65625 62.135414 196.89062 62.947914L195.32812 63.229164Q195.23438 62.86979 194.95312 62.68229Q194.67188 62.479164 194.15625 62.479164Q193.51562 62.479164 193.23438 62.666664Q193.04688 62.791664 193.04688 62.99479Q193.04688 63.18229 193.20312 63.30729Q193.42188 63.46354 194.73438 63.760414Q196.0625 64.05729 196.57812 64.49479Q197.09375 64.93229 197.09375 65.71354Q197.09375 66.572914 196.375 67.197914Q195.67188 67.80729 194.26562 67.80729Q193.0 67.80729 192.25 67.291664Q191.51562 66.77604 191.28125 65.885414ZM202.46875 65.68229L204.10938 65.96354Q203.79688 66.86979 203.10938 67.33854Q202.42188 67.80729 201.40625 67.80729Q199.78125 67.80729 199.0 66.74479Q198.375 65.90104 198.375 64.604164Q198.375 63.05729 199.1875 62.18229Q200.0 61.30729 201.23438 61.30729Q202.625 61.30729 203.42188 62.229164Q204.23438 63.135414 204.1875 65.02604L200.0625 65.02604Q200.09375 65.760414 200.46875 66.166664Q200.84375 66.572914 201.42188 66.572914Q201.79688 66.572914 202.0625 66.36979Q202.32812 66.15104 202.46875 65.68229ZM202.5625 64.02604Q202.54688 63.30729 202.1875 62.93229Q201.84375 62.55729 201.32812 62.55729Q200.79688 62.55729 200.4375 62.947914Q200.09375 63.354164 200.09375 64.02604L202.5625 64.02604ZM208.71875 61.447914L208.71875 62.760414L207.59375 62.760414L207.59375 65.260414Q207.59375 66.02604 207.625 66.15104Q207.65625 66.27604 207.76562 66.36979Q207.89062 66.447914 208.04688 66.447914Q208.28125 66.447914 208.70312 66.27604L208.84375 67.55729Q208.28125 67.80729 207.54688 67.80729Q207.10938 67.80729 206.75 67.666664Q206.39062 67.510414 206.21875 67.27604Q206.0625 67.02604 205.98438 66.635414Q205.9375 66.33854 205.9375 65.46354L205.9375 62.760414L205.1875 62.760414L205.1875 61.447914L205.9375 61.447914L205.9375 60.21354L207.59375 59.24479L207.59375 61.447914L208.71875 61.447914ZM216.71875 67.666664L215.07812 67.666664L215.07812 61.46354Q214.17188 62.30729 212.95312 62.71354L212.95312 61.21354Q213.59375 61.010414 214.34375 60.416664Q215.10938 59.822914 215.39062 59.041664L216.71875 59.041664L216.71875 67.666664Z" fill-rule="nonzero"/><path fill="#ea4335" d="M241.0 57.666668L247.0 63.666668L241.0 69.666664L235.0 63.666668Z" fill-rule="nonzero"/><path fill="#1a1a1a" d="M255.875 59.072914L259.03125 59.072914Q260.10938 59.072914 260.67188 59.24479Q261.42188 59.46354 261.95312 60.041664Q262.5 60.604164 262.78125 61.43229Q263.0625 62.24479 263.0625 63.447914Q263.0625 64.510414 262.8125 65.27604Q262.48438 66.21354 261.89062 66.791664Q261.4375 67.24479 260.67188 67.479164Q260.09375 67.666664 259.125 67.666664L255.875 67.666664L255.875 59.072914ZM257.60938 60.52604L257.60938 66.21354L258.89062 66.21354Q259.625 66.21354 259.95312 66.135414Q260.375 66.02604 260.64062 65.77604Q260.92188 65.52604 261.09375 64.947914Q261.28125 64.36979 261.28125 63.36979Q261.28125 62.385414 261.09375 61.854164Q260.92188 61.30729 260.60938 61.010414Q260.29688 60.71354 259.8125 60.604164Q259.4375 60.52604 258.375 60.52604L257.60938 60.52604ZM265.09375 63.33854L263.59375 63.072914Q263.84375 62.166664 264.45312 61.74479Q265.07812 61.30729 266.29688 61.30729Q267.39062 61.30729 267.92188 61.572914Q268.46875 61.822914 268.6875 62.229164Q268.90625 62.61979 268.90625 63.697914L268.89062 65.61979Q268.89062 66.447914 268.96875 66.83854Q269.04688 67.21354 269.26562 67.666664L267.64062 67.666664Q267.57812 67.49479 267.48438 67.18229Q267.4375 67.02604 267.42188 66.979164Q267.0 67.40104 266.51562 67.604164Q266.04688 67.80729 265.5 67.80729Q264.53125 67.80729 263.96875 67.291664Q263.42188 66.760414 263.42188 65.96354Q263.42188 65.43229 263.67188 65.02604Q263.9375 64.61979 264.39062 64.40104Q264.84375 64.166664 265.70312 64.010414Q266.84375 63.791664 267.29688 63.604164L267.29688 63.447914Q267.29688 62.96354 267.0625 62.760414Q266.82812 62.55729 266.17188 62.55729Q265.73438 62.55729 265.48438 62.729164Q265.25 62.90104 265.09375 63.33854ZM267.29688 64.68229Q266.98438 64.77604 266.29688 64.93229Q265.60938 65.072914 265.39062 65.21354Q265.07812 65.447914 265.07812 65.791664Q265.07812 66.135414 265.32812 66.40104Q265.59375 66.65104 265.98438 66.65104Q266.4375 66.65104 266.84375 66.354164Q267.14062 66.135414 267.23438 65.80729Q267.29688 65.604164 267.29688 65.010414L267.29688 64.68229ZM273.71875 61.447914L273.71875 62.760414L272.59375 62.760414L272.59375 65.260414Q272.59375 66.02604 272.625 66.15104Q272.65625 66.27604 272.76562 66.36979Q272.89062 66.447914 273.04688 66.447914Q273.28125 66.447914 273.70312 66.27604L273.84375 67.55729Q273.28125 67.80729 272.54688 67.80729Q272.10938 67.80729 271.75 67.666664Q271.39062 67.510414 271.21875 67.27604Q271.0625 67.02604 270.98438 66.635414Q270.9375 66.33854 270.9375 65.46354L270.9375 62.760414L270.1875 62.760414L270.1875 61.447914L270.9375 61.447914L270.9375 60.21354L272.59375 59.24479L272.59375 61.447914L273.71875 61.447914ZM276.09375 63.33854L274.59375 63.072914Q274.84375 62.166664 275.45312 61.74479Q276.07812 61.30729 277.29688 61.30729Q278.39062 61.30729 278.92188 61.572914Q279.46875 61.822914 279.6875 62.229164Q279.90625 62.61979 279.90625 63.697914L279.89062 65.61979Q279.89062 66.447914 279.96875 66.83854Q280.04688 67.21354 280.26562 67.666664L278.64062 67.666664Q278.57812 67.49479 278.48438 67.18229Q278.4375 67.02604 278.42188 66.979164Q278.0 67.40104 277.51562 67.604164Q277.04688 67.80729 276.5 67.80729Q275.53125 67.80729 274.96875 67.291664Q274.42188 66.760414 274.42188 65.96354Q274.42188 65.43229 274.67188 65.02604Q274.9375 64.61979 275.39062 64.40104Q275.84375 64.166664 276.70312 64.010414Q277.84375 63.791664 278.29688 63.604164L278.29688 63.447914Q278.29688 62.96354 278.0625 62.760414Q277.82812 62.55729 277.17188 62.55729Q276.73438 62.55729 276.48438 62.729164Q276.25 62.90104 276.09375 63.33854ZM278.29688 64.68229Q277.98438 64.77604 277.29688 64.93229Q276.60938 65.072914 276.39062 65.21354Q276.07812 65.447914 276.07812 65.791664Q276.07812 66.135414 276.32812 66.40104Q276.59375 66.65104 276.98438 66.65104Q277.4375 66.65104 277.84375 66.354164Q278.14062 66.135414 278.23438 65.80729Q278.29688 65.604164 278.29688 65.010414L278.29688 64.68229ZM281.28125 65.885414L282.9375 65.635414Q283.04688 66.11979 283.35938 66.36979Q283.6875 66.61979 284.26562 66.61979Q284.90625 66.61979 285.21875 66.385414Q285.4375 66.21354 285.4375 65.947914Q285.4375 65.760414 285.32812 65.635414Q285.20312 65.510414 284.78125 65.416664Q282.78125 64.979164 282.25 64.61979Q281.51562 64.104164 281.51562 63.21354Q281.51562 62.40104 282.14062 61.854164Q282.78125 61.30729 284.125 61.30729Q285.40625 61.30729 286.03125 61.729164Q286.65625 62.135414 286.89062 62.947914L285.32812 63.229164Q285.23438 62.86979 284.95312 62.68229Q284.67188 62.479164 284.15625 62.479164Q283.51562 62.479164 283.23438 62.666664Q283.04688 62.791664 283.04688 62.99479Q283.04688 63.18229 283.20312 63.30729Q283.42188 63.46354 284.73438 63.760414Q286.0625 64.05729 286.57812 64.49479Q287.09375 64.93229 287.09375 65.71354Q287.09375 66.572914 286.375 67.197914Q285.67188 67.80729 284.26562 67.80729Q283.0 67.80729 282.25 67.291664Q281.51562 66.77604 281.28125 65.885414ZM292.46875 65.68229L294.10938 65.96354Q293.79688 66.86979 293.10938 67.33854Q292.42188 67.80729 291.40625 67.80729Q289.78125 67.80729 289.0 66.74479Q288.375 65.90104 288.375 64.604164Q288.375 63.05729 289.1875 62.18229Q290.0 61.30729 291.23438 61.30729Q292.625 61.30729 293.42188 62.229164Q294.23438 63.135414 294.1875 65.02604L290.0625 65.02604Q290.09375 65.760414 290.46875 66.166664Q290.84375 66.572914 291.42188 66.572914Q291.79688 66.572914 292.0625 66.36979Q292.32812 66.15104 292.46875 65.68229ZM292.5625 64.02604Q292.54688 63.30729 292.1875 62.93229Q291.84375 62.55729 291.32812 62.55729Q290.79688 62.55729 290.4375 62.947914Q290.09375 63.354164 290.09375 64.02604L292.5625 64.02604ZM298.71875 61.447914L298.71875 62.760414L297.59375 62.760414L297.59375 65.260414Q297.59375 66.02604 297.625 66.15104Q297.65625 66.27604 297.76562 66.36979Q297.89062 66.447914 298.04688 66.447914Q298.28125 66.447914 298.70312 66.27604L298.84375 67.55729Q298.28125 67.80729 297.54688 67.80729Q297.10938 67.80729 296.75 67.666664Q296.39062 67.510414 296.21875 67.27604Q296.0625 67.02604 295.98438 66.635414Q295.9375 66.33854 295.9375 65.46354L295.9375 62.760414L295.1875 62.760414L295.1875 61.447914L295.9375 61.447914L295.9375 60.21354L297.59375 59.24479L297.59375 61.447914L298.71875 61.447914ZM308.07812 66.135414L308.07812 67.666664L302.29688 67.666664Q302.39062 66.791664 302.85938 66.02604Q303.32812 65.24479 304.71875 63.96354Q305.82812 62.93229 306.07812 62.55729Q306.42188 62.041664 306.42188 61.541664Q306.42188 60.99479 306.125 60.697914Q305.82812 60.40104 305.3125 60.40104Q304.79688 60.40104 304.48438 60.71354Q304.1875 61.02604 304.14062 61.74479L302.5 61.58854Q302.64062 60.229164 303.40625 59.635414Q304.1875 59.041664 305.34375 59.041664Q306.625 59.041664 307.34375 59.729164Q308.07812 60.416664 308.07812 61.43229Q308.07812 62.010414 307.85938 62.541664Q307.65625 63.05729 307.20312 63.635414Q306.90625 64.010414 306.125 64.729164Q305.34375 65.447914 305.14062 65.68229Q304.9375 65.916664 304.79688 66.135414L308.07812 66.135414Z" fill-rule="nonzero"/><path fill="#fbbc04" d="M331.0 57.666668L337.0 63.666668L331.0 69.666664L325.0 63.666668Z" fill-rule="nonzero"/><path fill="#1a1a1a" d="M345.875 59.072914L349.03125 59.072914Q350.10938 59.072914 350.67188 59.24479Q351.42188 59.46354 351.95312 60.041664Q352.5 60.604164 352.78125 61.43229Q353.0625 62.24479 353.0625 63.447914Q353.0625 64.510414 352.8125 65.27604Q352.48438 66.21354 351.89062 66.791664Q351.4375 67.24479 350.67188 67.479164Q350.09375 67.666664 349.125 67.666664L345.875 67.666664L345.875 59.072914ZM347.60938 60.52604L347.60938 66.21354L348.89062 66.21354Q349.625 66.21354 349.95312 66.135414Q350.375 66.02604 350.64062 65.77604Q350.92188 65.52604 351.09375 64.947914Q351.28125 64.36979 351.28125 63.36979Q351.28125 62.385414 351.09375 61.854164Q350.92188 61.30729 350.60938 61.010414Q350.29688 60.71354 349.8125 60.604164Q349.4375 60.52604 348.375 60.52604L347.60938 60.52604ZM355.09375 63.33854L353.59375 63.072914Q353.84375 62.166664 354.45312 61.74479Q355.07812 61.30729 356.29688 61.30729Q357.39062 61.30729 357.92188 61.572914Q358.46875 61.822914 358.6875 62.229164Q358.90625 62.61979 358.90625 63.697914L358.89062 65.61979Q358.89062 66.447914 358.96875 66.83854Q359.04688 67.21354 359.26562 67.666664L357.64062 67.666664Q357.57812 67.49479 357.48438 67.18229Q357.4375 67.02604 357.42188 66.979164Q357.0 67.40104 356.51562 67.604164Q356.04688 67.80729 355.5 67.80729Q354.53125 67.80729 353.96875 67.291664Q353.42188 66.760414 353.42188 65.96354Q353.42188 65.43229 353.67188 65.02604Q353.9375 64.61979 354.39062 64.40104Q354.84375 64.166664 355.70312 64.010414Q356.84375 63.791664 357.29688 63.604164L357.29688 63.447914Q357.29688 62.96354 357.0625 62.760414Q356.82812 62.55729 356.17188 62.55729Q355.73438 62.55729 355.48438 62.729164Q355.25 62.90104 355.09375 63.33854ZM357.29688 64.68229Q356.98438 64.77604 356.29688 64.93229Q355.60938 65.072914 355.39062 65.21354Q355.07812 65.447914 355.07812 65.791664Q355.07812 66.135414 355.32812 66.40104Q355.59375 66.65104 355.98438 66.65104Q356.4375 66.65104 356.84375 66.354164Q357.14062 66.135414 357.23438 65.80729Q357.29688 65.604164 357.29688 65.010414L357.29688 64.68229ZM363.71875 61.447914L363.71875 62.760414L362.59375 62.760414L362.59375 65.260414Q362.59375 66.02604 362.625 66.15104Q362.65625 66.27604 362.76562 66.36979Q362.89062 66.447914 363.04688 66.447914Q363.28125 66.447914 363.70312 66.27604L363.84375 67.55729Q363.28125 67.80729 362.54688 67.80729Q362.10938 67.80729 361.75 67.666664Q361.39062 67.510414 361.21875 67.27604Q361.0625 67.02604 360.98438 66.635414Q360.9375 66.33854 360.9375 65.46354L360.9375 62.760414L360.1875 62.760414L360.1875 61.447914L360.9375 61.447914L360.9375 60.21354L362.59375 59.24479L362.59375 61.447914L363.71875 61.447914ZM366.09375 63.33854L364.59375 63.072914Q364.84375 62.166664 365.45312 61.74479Q366.07812 61.30729 367.29688 61.30729Q368.39062 61.30729 368.92188 61.572914Q369.46875 61.822914 369.6875 62.229164Q369.90625 62.61979 369.90625 63.697914L369.89062 65.61979Q369.89062 66.447914 369.96875 66.83854Q370.04688 67.21354 370.26562 67.666664L368.64062 67.666664Q368.57812 67.49479 368.48438 67.18229Q368.4375 67.02604 368.42188 66.979164Q368.0 67.40104 367.51562 67.604164Q367.04688 67.80729 366.5 67.80729Q365.53125 67.80729 364.96875 67.291664Q364.42188 66.760414 364.42188 65.96354Q364.42188 65.43229 364.67188 65.02604Q364.9375 64.61979 365.39062 64.40104Q365.84375 64.166664 366.70312 64.010414Q367.84375 63.791664 368.29688 63.604164L368.29688 63.447914Q368.29688 62.96354 368.0625 62.760414Q367.82812 62.55729 367.17188 62.55729Q366.73438 62.55729 366.48438 62.729164Q366.25 62.90104 366.09375 63.33854ZM368.29688 64.68229Q367.98438 64.77604 367.29688 64.93229Q366.60938 65.072914 366.39062 65.21354Q366.07812 65.447914 366.07812 65.791664Q366.07812 66.135414 366.32812 66.40104Q366.59375 66.65104 366.98438 66.65104Q367.4375 66.65104 367.84375 66.354164Q368.14062 66.135414 368.23438 65.80729Q368.29688 65.604164 368.29688 65.010414L368.29688 64.68229ZM371.28125 65.885414L372.9375 65.635414Q373.04688 66.11979 373.35938 66.36979Q373.6875 66.61979 374.26562 66.61979Q374.90625 66.61979 375.21875 66.385414Q375.4375 66.21354 375.4375 65.947914Q375.4375 65.760414 375.32812 65.635414Q375.20312 65.510414 374.78125 65.416664Q372.78125 64.979164 372.25 64.61979Q371.51562 64.104164 371.51562 63.21354Q371.51562 62.40104 372.14062 61.854164Q372.78125 61.30729 374.125 61.30729Q375.40625 61.30729 376.03125 61.729164Q376.65625 62.135414 376.89062 62.947914L375.32812 63.229164Q375.23438 62.86979 374.95312 62.68229Q374.67188 62.479164 374.15625 62.479164Q373.51562 62.479164 373.23438 62.666664Q373.04688 62.791664 373.04688 62.99479Q373.04688 63.18229 373.20312 63.30729Q373.42188 63.46354 374.73438 63.760414Q376.0625 64.05729 376.57812 64.49479Q377.09375 64.93229 377.09375 65.71354Q377.09375 66.572914 376.375 67.197914Q375.67188 67.80729 374.26562 67.80729Q373.0 67.80729 372.25 67.291664Q371.51562 66.77604 371.28125 65.885414ZM382.46875 65.68229L384.10938 65.96354Q383.79688 66.86979 383.10938 67.33854Q382.42188 67.80729 381.40625 67.80729Q379.78125 67.80729 379.0 66.74479Q378.375 65.90104 378.375 64.604164Q378.375 63.05729 379.1875 62.18229Q380.0 61.30729 381.23438 61.30729Q382.625 61.30729 383.42188 62.229164Q384.23438 63.135414 384.1875 65.02604L380.0625 65.02604Q380.09375 65.760414 380.46875 66.166664Q380.84375 66.572914 381.42188 66.572914Q381.79688 66.572914 382.0625 66.36979Q382.32812 66.15104 382.46875 65.68229ZM382.5625 64.02604Q382.54688 63.30729 382.1875 62.93229Q381.84375 62.55729 381.32812 62.55729Q380.79688 62.55729 380.4375 62.947914Q380.09375 63.354164 380.09375 64.02604L382.5625 64.02604ZM388.71875 61.447914L388.71875 62.760414L387.59375 62.760414L387.59375 65.260414Q387.59375 66.02604 387.625 66.15104Q387.65625 66.27604 387.76562 66.36979Q387.89062 66.447914 388.04688 66.447914Q388.28125 66.447914 388.70312 66.27604L388.84375 67.55729Q388.28125 67.80729 387.54688 67.80729Q387.10938 67.80729 386.75 67.666664Q386.39062 67.510414 386.21875 67.27604Q386.0625 67.02604 385.98438 66.635414Q385.9375 66.33854 385.9375 65.46354L385.9375 62.760414L385.1875 62.760414L385.1875 61.447914L385.9375 61.447914L385.9375 60.21354L387.59375 59.24479L387.59375 61.447914L388.71875 61.447914ZM392.45312 65.385414L394.04688 65.197914Q394.125 65.80729 394.45312 66.135414Q394.79688 66.447914 395.26562 66.447914Q395.78125 66.447914 396.125 66.05729Q396.46875 65.666664 396.46875 65.010414Q396.46875 64.40104 396.125 64.041664Q395.79688 63.666664 395.32812 63.666664Q395.0 63.666664 394.5625 63.791664L394.75 62.447914Q395.42188 62.46354 395.76562 62.166664Q396.125 61.854164 396.125 61.33854Q396.125 60.916664 395.85938 60.666664Q395.60938 60.40104 395.17188 60.40104Q394.75 60.40104 394.45312 60.697914Q394.15625 60.979164 394.09375 61.541664L392.57812 61.291664Q392.73438 60.510414 393.04688 60.041664Q393.375 59.572914 393.9375 59.30729Q394.51562 59.041664 395.21875 59.041664Q396.4375 59.041664 397.17188 59.80729Q397.76562 60.447914 397.76562 61.24479Q397.76562 62.36979 396.53125 63.041664Q397.28125 63.21354 397.71875 63.760414Q398.15625 64.30729 398.15625 65.08854Q398.15625 66.21354 397.32812 67.010414Q396.5 67.80729 395.28125 67.80729Q394.10938 67.80729 393.34375 67.135414Q392.57812 66.46354 392.45312 65.385414Z" fill-rule="nonzero"/><path fill="#34a853" d="M421.0 57.666668L427.0 63.666668L421.0 69.666664L415.0 63.666668Z" fill-rule="nonzero"/><path fill="#1a1a1a" d="M435.875 59.072914L439.03125 59.072914Q440.10938 59.072914 440.67188 59.24479Q441.42188 59.46354 441.95312 60.041664Q442.5 60.604164 442.78125 61.43229Q443.0625 62.24479 443.0625 63.447914Q443.0625 64.510414 442.8125 65.27604Q442.48438 66.21354 441.89062 66.791664Q441.4375 67.24479 440.67188 67.479164Q440.09375 67.666664 439.125 67.666664L435.875 67.666664L435.875 59.072914ZM437.60938 60.52604L437.60938 66.21354L438.89062 66.21354Q439.625 66.21354 439.95312 66.135414Q440.375 66.02604 440.64062 65.77604Q440.92188 65.52604 441.09375 64.947914Q441.28125 64.36979 441.28125 63.36979Q441.28125 62.385414 441.09375 61.854164Q440.92188 61.30729 440.60938 61.010414Q440.29688 60.71354 439.8125 60.604164Q439.4375 60.52604 438.375 60.52604L437.60938 60.52604ZM445.09375 63.33854L443.59375 63.072914Q443.84375 62.166664 444.45312 61.74479Q445.07812 61.30729 446.29688 61.30729Q447.39062 61.30729 447.92188 61.572914Q448.46875 61.822914 448.6875 62.229164Q448.90625 62.61979 448.90625 63.697914L448.89062 65.61979Q448.89062 66.447914 448.96875 66.83854Q449.04688 67.21354 449.26562 67.666664L447.64062 67.666664Q447.57812 67.49479 447.48438 67.18229Q447.4375 67.02604 447.42188 66.979164Q447.0 67.40104 446.51562 67.604164Q446.04688 67.80729 445.5 67.80729Q444.53125 67.80729 443.96875 67.291664Q443.42188 66.760414 443.42188 65.96354Q443.42188 65.43229 443.67188 65.02604Q443.9375 64.61979 444.39062 64.40104Q444.84375 64.166664 445.70312 64.010414Q446.84375 63.791664 447.29688 63.604164L447.29688 63.447914Q447.29688 62.96354 447.0625 62.760414Q446.82812 62.55729 446.17188 62.55729Q445.73438 62.55729 445.48438 62.729164Q445.25 62.90104 445.09375 63.33854ZM447.29688 64.68229Q446.98438 64.77604 446.29688 64.93229Q445.60938 65.072914 445.39062 65.21354Q445.07812 65.447914 445.07812 65.791664Q445.07812 66.135414 445.32812 66.40104Q445.59375 66.65104 445.98438 66.65104Q446.4375 66.65104 446.84375 66.354164Q447.14062 66.135414 447.23438 65.80729Q447.29688 65.604164 447.29688 65.010414L447.29688 64.68229ZM453.71875 61.447914L453.71875 62.760414L452.59375 62.760414L452.59375 65.260414Q452.59375 66.02604 452.625 66.15104Q452.65625 66.27604 452.76562 66.36979Q452.89062 66.447914 453.04688 66.447914Q453.28125 66.447914 453.70312 66.27604L453.84375 67.55729Q453.28125 67.80729 452.54688 67.80729Q452.10938 67.80729 451.75 67.666664Q451.39062 67.510414 451.21875 67.27604Q451.0625 67.02604 450.98438 66.635414Q450.9375 66.33854 450.9375 65.46354L450.9375 62.760414L450.1875 62.760414L450.1875 61.447914L450.9375 61.447914L450.9375 60.21354L452.59375 59.24479L452.59375 61.447914L453.71875 61.447914ZM456.09375 63.33854L454.59375 63.072914Q454.84375 62.166664 455.45312 61.74479Q456.07812 61.30729 457.29688 61.30729Q458.39062 61.30729 458.92188 61.572914Q459.46875 61.822914 459.6875 62.229164Q459.90625 62.61979 459.90625 63.697914L459.89062 65.61979Q459.89062 66.447914 459.96875 66.83854Q460.04688 67.21354 460.26562 67.666664L458.64062 67.666664Q458.57812 67.49479 458.48438 67.18229Q458.4375 67.02604 458.42188 66.979164Q458.0 67.40104 457.51562 67.604164Q457.04688 67.80729 456.5 67.80729Q455.53125 67.80729 454.96875 67.291664Q454.42188 66.760414 454.42188 65.96354Q454.42188 65.43229 454.67188 65.02604Q454.9375 64.61979 455.39062 64.40104Q455.84375 64.166664 456.70312 64.010414Q457.84375 63.791664 458.29688 63.604164L458.29688 63.447914Q458.29688 62.96354 458.0625 62.760414Q457.82812 62.55729 457.17188 62.55729Q456.73438 62.55729 456.48438 62.729164Q456.25 62.90104 456.09375 63.33854ZM458.29688 64.68229Q457.98438 64.77604 457.29688 64.93229Q456.60938 65.072914 456.39062 65.21354Q456.07812 65.447914 456.07812 65.791664Q456.07812 66.135414 456.32812 66.40104Q456.59375 66.65104 456.98438 66.65104Q457.4375 66.65104 457.84375 66.354164Q458.14062 66.135414 458.23438 65.80729Q458.29688 65.604164 458.29688 65.010414L458.29688 64.68229ZM461.28125 65.885414L462.9375 65.635414Q463.04688 66.11979 463.35938 66.36979Q463.6875 66.61979 464.26562 66.61979Q464.90625 66.61979 465.21875 66.385414Q465.4375 66.21354 465.4375 65.947914Q465.4375 65.760414 465.32812 65.635414Q465.20312 65.510414 464.78125 65.416664Q462.78125 64.979164 462.25 64.61979Q461.51562 64.104164 461.51562 63.21354Q461.51562 62.40104 462.14062 61.854164Q462.78125 61.30729 464.125 61.30729Q465.40625 61.30729 466.03125 61.729164Q466.65625 62.135414 466.89062 62.947914L465.32812 63.229164Q465.23438 62.86979 464.95312 62.68229Q464.67188 62.479164 464.15625 62.479164Q463.51562 62.479164 463.23438 62.666664Q463.04688 62.791664 463.04688 62.99479Q463.04688 63.18229 463.20312 63.30729Q463.42188 63.46354 464.73438 63.760414Q466.0625 64.05729 466.57812 64.49479Q467.09375 64.93229 467.09375 65.71354Q467.09375 66.572914 466.375 67.197914Q465.67188 67.80729 464.26562 67.80729Q463.0 67.80729 462.25 67.291664Q461.51562 66.77604 461.28125 65.885414ZM472.46875 65.68229L474.10938 65.96354Q473.79688 66.86979 473.10938 67.33854Q472.42188 67.80729 471.40625 67.80729Q469.78125 67.80729 469.0 66.74479Q468.375 65.90104 468.375 64.604164Q468.375 63.05729 469.1875 62.18229Q470.0 61.30729 471.23438 61.30729Q472.625 61.30729 473.42188 62.229164Q474.23438 63.135414 474.1875 65.02604L470.0625 65.02604Q470.09375 65.760414 470.46875 66.166664Q470.84375 66.572914 471.42188 66.572914Q471.79688 66.572914 472.0625 66.36979Q472.32812 66.15104 472.46875 65.68229ZM472.5625 64.02604Q472.54688 63.30729 472.1875 62.93229Q471.84375 62.55729 471.32812 62.55729Q470.79688 62.55729 470.4375 62.947914Q470.09375 63.354164 470.09375 64.02604L472.5625 64.02604ZM478.71875 61.447914L478.71875 62.760414L477.59375 62.760414L477.59375 65.260414Q477.59375 66.02604 477.625 66.15104Q477.65625 66.27604 477.76562 66.36979Q477.89062 66.447914 478.04688 66.447914Q478.28125 66.447914 478.70312 66.27604L478.84375 67.55729Q478.28125 67.80729 477.54688 67.80729Q477.10938 67.80729 476.75 67.666664Q476.39062 67.510414 476.21875 67.27604Q476.0625 67.02604 475.98438 66.635414Q475.9375 66.33854 475.9375 65.46354L475.9375 62.760414L475.1875 62.760414L475.1875 61.447914L475.9375 61.447914L475.9375 60.21354L477.59375 59.24479L477.59375 61.447914L478.71875 61.447914ZM485.73438 67.666664L485.73438 65.93229L482.21875 65.93229L482.21875 64.49479L485.95312 59.041664L487.32812 59.041664L487.32812 64.49479L488.40625 64.49479L488.40625 65.93229L487.32812 65.93229L487.32812 67.666664L485.73438 67.666664ZM485.73438 64.49479L485.73438 61.55729L483.76562 64.49479L485.73438 64.49479Z" fill-rule="nonzero"/><path fill="#000000" d="M305.5195 37.83137L305.5195 23.518871L310.44138 23.518871Q312.11325 23.518871 313.00388 23.721996Q314.22263 24.003246 315.09763 24.737621Q316.22263 25.706371 316.78513 27.190746Q317.34763 28.675121 317.34763 30.596996Q317.34763 32.221996 316.97263 33.48762Q316.59763 34.73762 315.98825 35.565746Q315.3945 36.39387 314.69138 36.878246Q313.98825 37.346996 312.98825 37.596996Q311.98825 37.83137 310.67575 37.83137L305.5195 37.83137ZM307.41013 36.14387L310.47263 36.14387Q311.87888 36.14387 312.67575 35.878246Q313.48825 35.61262 313.97263 35.128246Q314.6445 34.45637 315.0195 33.33137Q315.3945 32.190746 315.3945 30.565746Q315.3945 28.315746 314.66013 27.112621Q313.92575 25.909496 312.86325 25.503246Q312.11325 25.206371 310.42575 25.206371L307.41013 25.206371L307.41013 36.14387ZM323.16013 37.83137L323.16013 25.206371L318.44138 25.206371L318.44138 23.518871L329.78513 23.518871L329.78513 25.206371L325.05075 25.206371L325.05075 37.83137L323.16013 37.83137Z" fill-rule="nonzero"/></svg>