<svg version="1.1" viewBox="0.0 0.0 631.0 390.0" fill="none" stroke="none" stroke-linecap="square" stroke-miterlimit="10" width="631" height="390" xmlns:xlink="http://www.w3.org/1999/xlink" xmlns="http://www.w3.org/2000/svg"><path fill="#ffffff" d="M0 0L631.0 0L631.0 390.0L0 390.0L0 0Z" fill-rule="nonzero"/><path stroke="#333333" stroke-width="1.0" stroke-linecap="butt" d="M46.5 350.5L611.5 350.5" fill-rule="nonzero"/><path stroke="#cccccc" stroke-width="1.0" stroke-linecap="butt" d="M46.5 285.5L611.5 285.5" fill-rule="nonzero"/><path stroke="#cccccc" stroke-width="1.0" stroke-linecap="butt" d="M46.5 220.5L611.5 220.5" fill-rule="nonzero"/><path stroke="#cccccc" stroke-width="1.0" stroke-linecap="butt" d="M46.5 155.5L611.5 155.5" fill-rule="nonzero"/><path stroke="#cccccc" stroke-width="1.0" stroke-linecap="butt" d="M46.5 90.5L611.5 90.5" fill-rule="nonzero"/><path stroke="#e6e6e6" stroke-width="1.0" stroke-linecap="butt" d="M46.5 337.5L611.5 337.5" fill-rule="nonzero"/><path stroke="#e6e6e6" stroke-width="1.0" stroke-linecap="butt" d="M46.5 324.5L611.5 324.5" fill-rule="nonzero"/><path stroke="#e6e6e6" stroke-width="1.0" stroke-linecap="butt" d="M46.5 311.5L611.5 311.5" fill-rule="nonzero"/><path stroke="#e6e6e6" stroke-width="1.0" stroke-linecap="butt" d="M46.5 298.5L611.5 298.5" fill-rule="nonzero"/><path stroke="#e6e6e6" stroke-width="1.0" stroke-linecap="butt" d="M46.5 272.5L611.5 272.5" fill-rule="nonzero"/><path stroke="#e6e6e6" stroke-width="1.0" stroke-linecap="butt" d="M46.5 259.5L611.5 259.5" fill-rule="nonzero"/><path stroke="#e6e6e6" stroke-width="1.0" stroke-linecap="butt" d="M46.5 246.5L611.5 246.5" fill-rule="nonzero"/><path stroke="#e6e6e6" stroke-width="1.0" stroke-linecap="butt" d="M46.5 233.5L611.5 233.5" fill-rule="nonzero"/><path stroke="#e6e6e6" stroke-width="1.0" stroke-linecap="butt" d="M46.5 207.5L611.5 207.5" fill-rule="nonzero"/><path stroke="#e6e6e6" stroke-width="1.0" stroke-linecap="butt" d="M46.5 194.5L611.5 194.5" fill-rule="nonzero"/><path stroke="#e6e6e6" stroke-width="1.0" stroke-linecap="butt" d="M46.5 181.5L611.5 181.5" fill-rule="nonzero"/><path stroke="#e6e6e6" stroke-width="1.0" stroke-linecap="butt" d="M46.5 168.5L611.5 168.5" fill-rule="nonzero"/><path stroke="#e6e6e6" stroke-width="1.0" stroke-linecap="butt" d="M46.5 142.5L611.5 142.5" fill-rule="nonzero"/><path stroke="#e6e6e6" stroke-width="1.0" stroke-linecap="butt" d="M46.5 129.5L611.5 129.5" fill-rule="nonzero"/><path stroke="#e6e6e6" stroke-width="1.0" stroke-linecap="butt" d="M46.5 116.5L611.5 116.5" fill-rule="nonzero"/><path stroke="#e6e6e6" stroke-width="1.0" stroke-linecap="butt" d="M46.5 103.5L611.5 103.5" fill-rule="nonzero"/><clipPath id="id_0"><path d="M46.5 90.5L611.5 90.5L611.5 350.5L46.5 350.5L46.5 90.5Z" clip-rule="nonzero"/></clipPath><path stroke="#4285f4" stroke-width="2.0" stroke-linecap="butt" stroke-dasharray="2.0,3.0" clip-path="url(#id_0)" d="M103.0 340.8787L216.0 317.1199L329.0 325.9144L442.0 309.0378L555.0 328.5612" fill-rule="nonzero"/><path stroke="#ea4335" stroke-width="2.0" stroke-linecap="butt" stroke-dasharray="2.0,3.0" clip-path="url(#id_0)" d="M103.0 336.6316L216.0 304.0978L329.0 316.4062L442.0 292.9815L555.0 320.0267" fill-rule="nonzero"/><path stroke="#fbbc04" stroke-width="2.0" stroke-linecap="butt" stroke-dasharray="2.0,3.0" clip-path="url(#id_0)" d="M103.0 338.7935L216.0 314.7227L329.0 328.3714L442.0 302.4052L555.0 325.5192" fill-rule="nonzero"/><path stroke="#34a853" stroke-width="2.0" stroke-linecap="butt" stroke-dasharray="2.0,3.0" clip-path="url(#id_0)" d="M103.0 340.4731L216.0 319.9435L329.0 324.1438L442.0 316.2177L555.0 331.6175" fill-rule="nonzero"/><path fill="#4285f4" clip-path="url(#id_0)" d="M103.0 334.8787L109.0 340.8787L103.0 346.8787L97.0 340.8787Z" fill-rule="nonzero"/><path fill="#4285f4" clip-path="url(#id_0)" d="M216.0 311.1199L222.0 317.1199L216.0 323.1199L210.0 317.1199Z" fill-rule="nonzero"/><path fill="#4285f4" clip-path="url(#id_0)" d="M329.0 319.9144L335.0 325.9144L329.0 331.9144L323.0 325.9144Z" fill-rule="nonzero"/><path fill="#4285f4" clip-path="url(#id_0)" d="M442.0 303.0378L448.0 309.0378L442.0 315.0378L436.0 309.0378Z" fill-rule="nonzero"/><path fill="#4285f4" clip-path="url(#id_0)" d="M555.0 322.5612L561.0 328.5612L555.0 334.5612L549.0 328.5612Z" fill-rule="nonzero"/><path fill="#ea4335" clip-path="url(#id_0)" d="M103.0 330.6316L109.0 336.6316L103.0 342.6316L97.0 336.6316Z" fill-rule="nonzero"/><path fill="#ea4335" clip-path="url(#id_0)" d="M216.0 298.0978L222.0 304.0978L216.0 310.0978L210.0 304.0978Z" fill-rule="nonzero"/><path fill="#ea4335" clip-path="url(#id_0)" d="M329.0 310.4062L335.0 316.4062L329.0 322.4062L323.0 316.4062Z" fill-rule="nonzero"/><path fill="#ea4335" clip-path="url(#id_0)" d="M442.0 286.9815L448.0 292.9815L442.0 298.9815L436.0 292.9815Z" fill-rule="nonzero"/><path fill="#ea4335" clip-path="url(#id_0)" d="M555.0 314.0267L561.0 320.0267L555.0 326.0267L549.0 320.0267Z" fill-rule="nonzero"/><path fill="#fbbc04" clip-path="url(#id_0)" d="M103.0 332.7935L109.0 338.7935L103.0 344.7935L97.0 338.7935Z" fill-rule="nonzero"/><path fill="#fbbc04" clip-path="url(#id_0)" d="M216.0 308.7227L222.0 314.7227L216.0 320.7227L210.0 314.7227Z" fill-rule="nonzero"/><path fill="#fbbc04" clip-path="url(#id_0)" d="M329.0 322.3714L335.0 328.3714L329.0 334.3714L323.0 328.3714Z" fill-rule="nonzero"/><path fill="#fbbc04" clip-path="url(#id_0)" d="M442.0 296.4052L448.0 302.4052L442.0 308.4052L436.0 302.4052Z" fill-rule="nonzero"/><path fill="#fbbc04" clip-path="url(#id_0)" d="M555.0 319.5192L561.0 325.5192L555.0 331.5192L549.0 325.5192Z" fill-rule="nonzero"/><path fill="#34a853" clip-path="url(#id_0)" d="M103.0 334.4731L109.0 340.4731L103.0 346.4731L97.0 340.4731Z" fill-rule="nonzero"/><path fill="#34a853" clip-path="url(#id_0)" d="M216.0 313.9435L222.0 319.9435L216.0 325.9435L210.0 319.9435Z" fill-rule="nonzero"/><path fill="#34a853" clip-path="url(#id_0)" d="M329.0 318.1438L335.0 324.1438L329.0 330.1438L323.0 324.1438Z" fill-rule="nonzero"/><path fill="#34a853" clip-path="url(#id_0)" d="M442.0 310.2177L448.0 316.2177L442.0 322.2177L436.0 316.2177Z" fill-rule="nonzero"/><path fill="#34a853" clip-path="url(#id_0)" d="M555.0 325.6175L561.0 331.6175L555.0 337.6175L549.0 331.6175Z" fill-rule="nonzero"/><path fill="#000000" d="M34.0 350.26562Q34.0 348.73438 34.3125 347.8125Q34.625 346.875 35.234375 346.375Q35.859375 345.875 36.796875 345.875Q37.484375 345.875 38.0 346.15625Q38.53125 346.4375 38.875 346.96875Q39.21875 347.48438 39.40625 348.23438Q39.59375 348.98438 39.59375 350.26562Q39.59375 351.78125 39.28125 352.70312Q38.984375 353.625 38.359375 354.14062Q37.75 354.64062 36.796875 354.64062Q35.5625 354.64062 34.84375 353.75Q34.0 352.6875 34.0 350.26562ZM35.078125 350.26562Q35.078125 352.375 35.578125 353.07812Q36.078125 353.78125 36.796875 353.78125Q37.53125 353.78125 38.015625 353.07812Q38.515625 352.375 38.515625 350.26562Q38.515625 348.14062 38.015625 347.45312Q37.53125 346.75 36.78125 346.75Q36.0625 346.75 35.625 347.35938Q35.078125 348.14062 35.078125 350.26562Z" fill-rule="nonzero"/><path fill="#000000" d="M34.0 287.25L35.109375 287.15625Q35.234375 287.96875 35.671875 288.375Q36.125 288.78125 36.765625 288.78125Q37.515625 288.78125 38.046875 288.20312Q38.578125 287.625 38.578125 286.6875Q38.578125 285.78125 38.0625 285.26562Q37.5625 284.73438 36.734375 284.73438Q36.234375 284.73438 35.8125 284.96875Q35.40625 285.20312 35.171875 285.5625L34.1875 285.4375L35.015625 281.03125L39.296875 281.03125L39.296875 282.03125L35.859375 282.03125L35.40625 284.34375Q36.171875 283.79688 37.015625 283.79688Q38.140625 283.79688 38.90625 284.57812Q39.6875 285.35938 39.6875 286.59375Q39.6875 287.75 39.015625 288.60938Q38.1875 289.64062 36.765625 289.64062Q35.59375 289.64062 34.84375 288.98438Q34.109375 288.32812 34.0 287.25Z" fill-rule="nonzero"/><path fill="#000000" d="M30.96875 224.5L29.921875 224.5L29.921875 217.78125Q29.53125 218.14062 28.90625 218.51562Q28.296875 218.875 27.8125 219.04688L27.8125 218.03125Q28.6875 217.60938 29.34375 217.03125Q30.015625 216.4375 30.296875 215.875L30.96875 215.875L30.96875 224.5ZM34.0 220.26562Q34.0 218.73438 34.3125 217.8125Q34.625 216.875 35.234375 216.375Q35.859375 215.875 36.796875 215.875Q37.484375 215.875 38.0 216.15625Q38.53125 216.4375 38.875 216.96875Q39.21875 217.48438 39.40625 218.23438Q39.59375 218.98438 39.59375 220.26562Q39.59375 221.78125 39.28125 222.70312Q38.984375 223.625 38.359375 224.14062Q37.75 224.64062 36.796875 224.64062Q35.5625 224.64062 34.84375 223.75Q34.0 222.6875 34.0 220.26562ZM35.078125 220.26562Q35.078125 222.375 35.578125 223.07812Q36.078125 223.78125 36.796875 223.78125Q37.53125 223.78125 38.015625 223.07812Q38.515625 222.375 38.515625 220.26562Q38.515625 218.14062 38.015625 217.45312Q37.53125 216.75 36.78125 216.75Q36.0625 216.75 35.625 217.35938Q35.078125 218.14062 35.078125 220.26562Z" fill-rule="nonzero"/><path fill="#000000" d="M30.96875 159.5L29.921875 159.5L29.921875 152.78125Q29.53125 153.14062 28.90625 153.51562Q28.296875 153.875 27.8125 154.04688L27.8125 153.03125Q28.6875 152.60938 29.34375 152.03125Q30.015625 151.4375 30.296875 150.875L30.96875 150.875L30.96875 159.5ZM34.0 157.25L35.109375 157.15625Q35.234375 157.96875 35.671875 158.375Q36.125 158.78125 36.765625 158.78125Q37.515625 158.78125 38.046875 158.20312Q38.578125 157.625 38.578125 156.6875Q38.578125 155.78125 38.0625 155.26562Q37.5625 154.73438 36.734375 154.73438Q36.234375 154.73438 35.8125 154.96875Q35.40625 155.20312 35.171875 155.5625L34.1875 155.4375L35.015625 151.03125L39.296875 151.03125L39.296875 152.03125L35.859375 152.03125L35.40625 154.34375Q36.171875 153.79688 37.015625 153.79688Q38.140625 153.79688 38.90625 154.57812Q39.6875 155.35938 39.6875 156.59375Q39.6875 157.75 39.015625 158.60938Q38.1875 159.64062 36.765625 159.64062Q35.59375 159.64062 34.84375 158.98438Q34.109375 158.32812 34.0 157.25Z" fill-rule="nonzero"/><path fill="#000000" d="M32.546875 93.484375L32.546875 94.5L26.859375 94.5Q26.859375 94.125 26.984375 93.765625Q27.203125 93.1875 27.671875 92.625Q28.15625 92.0625 29.0625 91.328125Q30.46875 90.171875 30.953125 89.5Q31.453125 88.828125 31.453125 88.234375Q31.453125 87.609375 31.0 87.1875Q30.546875 86.75 29.828125 86.75Q29.0625 86.75 28.609375 87.203125Q28.15625 87.65625 28.140625 88.46875L27.0625 88.359375Q27.171875 87.140625 27.890625 86.515625Q28.625 85.875 29.859375 85.875Q31.09375 85.875 31.8125 86.5625Q32.53125 87.25 32.53125 88.265625Q32.53125 88.78125 32.3125 89.28125Q32.109375 89.765625 31.609375 90.328125Q31.125 90.875 30.0 91.828125Q29.046875 92.625 28.765625 92.921875Q28.5 93.203125 28.328125 93.484375L32.546875 93.484375ZM34.0 90.265625Q34.0 88.734375 34.3125 87.8125Q34.625 86.875 35.234375 86.375Q35.859375 85.875 36.796875 85.875Q37.484375 85.875 38.0 86.15625Q38.53125 86.4375 38.875 86.96875Q39.21875 87.484375 39.40625 88.234375Q39.59375 88.984375 39.59375 90.265625Q39.59375 91.78125 39.28125 92.703125Q38.984375 93.625 38.359375 94.140625Q37.75 94.640625 36.796875 94.640625Q35.5625 94.640625 34.84375 93.75Q34.0 92.6875 34.0 90.265625ZM35.078125 90.265625Q35.078125 92.375 35.578125 93.078125Q36.078125 93.78125 36.796875 93.78125Q37.53125 93.78125 38.015625 93.078125Q38.515625 92.375 38.515625 90.265625Q38.515625 88.140625 38.015625 87.453125Q37.53125 86.75 36.78125 86.75Q36.0625 86.75 35.625 87.359375Q35.078125 88.140625 35.078125 90.265625Z" fill-rule="nonzero"/><path fill="#000000" d="M93.484375 367.5L96.78125 358.90625L98.0 358.90625L101.515625 367.5L100.234375 367.5L99.21875 364.89062L95.640625 364.89062L94.6875 367.5L93.484375 367.5ZM95.96875 363.96875L98.875 363.96875L97.984375 361.59375Q97.5625 360.51562 97.375 359.8125Q97.203125 360.64062 96.90625 361.45312L95.96875 363.96875ZM105.359375 365.21875L106.390625 365.35938Q106.21875 366.42188 105.515625 367.03125Q104.8125 367.64062 103.796875 367.64062Q102.515625 367.64062 101.734375 366.8125Q100.96875 365.96875 100.96875 364.40625Q100.96875 363.40625 101.296875 362.65625Q101.640625 361.89062 102.3125 361.51562Q103.0 361.14062 103.8125 361.14062Q104.8125 361.14062 105.453125 361.65625Q106.109375 362.15625 106.296875 363.10938L105.265625 363.26562Q105.125 362.64062 104.75 362.32812Q104.375 362.0 103.84375 362.0Q103.046875 362.0 102.546875 362.57812Q102.046875 363.14062 102.046875 364.375Q102.046875 365.64062 102.53125 366.20312Q103.015625 366.76562 103.78125 366.76562Q104.40625 366.76562 104.8125 366.39062Q105.234375 366.01562 105.359375 365.21875ZM111.359375 365.21875L112.390625 365.35938Q112.21875 366.42188 111.515625 367.03125Q110.8125 367.64062 109.796875 367.64062Q108.515625 367.64062 107.734375 366.8125Q106.96875 365.96875 106.96875 364.40625Q106.96875 363.40625 107.296875 362.65625Q107.640625 361.89062 108.3125 361.51562Q109.0 361.14062 109.8125 361.14062Q110.8125 361.14062 111.453125 361.65625Q112.109375 362.15625 112.296875 363.10938L111.265625 363.26562Q111.125 362.64062 110.75 362.32812Q110.375 362.0 109.84375 362.0Q109.046875 362.0 108.546875 362.57812Q108.046875 363.14062 108.046875 364.375Q108.046875 365.64062 108.53125 366.20312Q109.015625 366.76562 109.78125 366.76562Q110.40625 366.76562 110.8125 366.39062Q111.234375 366.01562 111.359375 365.21875Z" fill-rule="nonzero"/><path fill="#000000" d="M209.98438 367.5L209.98438 358.90625L215.78125 358.90625L215.78125 359.92188L211.125 359.92188L211.125 362.57812L215.15625 362.57812L215.15625 363.59375L211.125 363.59375L211.125 367.5L209.98438 367.5ZM220.46875 367.5L219.42188 367.5L219.42188 360.78125Q219.03125 361.14062 218.40625 361.51562Q217.79688 361.875 217.3125 362.04688L217.3125 361.03125Q218.1875 360.60938 218.84375 360.03125Q219.51562 359.4375 219.79688 358.875L220.46875 358.875L220.46875 367.5Z" fill-rule="nonzero"/><path fill="#000000" d="M320.42188 367.5L320.42188 358.90625L323.67188 358.90625Q324.51562 358.90625 324.96875 358.98438Q325.60938 359.09375 326.03125 359.39062Q326.46875 359.6875 326.71875 360.21875Q326.98438 360.75 326.98438 361.39062Q326.98438 362.48438 326.28125 363.25Q325.59375 364.0 323.76562 364.0L321.5625 364.0L321.5625 367.5L320.42188 367.5ZM321.5625 363.0L323.78125 363.0Q324.89062 363.0 325.34375 362.59375Q325.8125 362.17188 325.8125 361.42188Q325.8125 360.89062 325.53125 360.51562Q325.26562 360.125 324.82812 360.0Q324.53125 359.92188 323.76562 359.92188L321.5625 359.92188L321.5625 363.0ZM328.28125 367.5L328.28125 361.28125L329.23438 361.28125L329.23438 362.21875Q329.59375 361.5625 329.89062 361.35938Q330.20312 361.14062 330.57812 361.14062Q331.10938 361.14062 331.65625 361.46875L331.29688 362.45312Q330.90625 362.21875 330.53125 362.21875Q330.17188 362.21875 329.89062 362.4375Q329.625 362.64062 329.51562 363.01562Q329.32812 363.57812 329.32812 364.23438L329.32812 367.5L328.28125 367.5ZM336.54688 365.5L337.64062 365.625Q337.39062 366.57812 336.6875 367.10938Q335.98438 367.64062 334.90625 367.64062Q333.54688 367.64062 332.73438 366.79688Q331.9375 365.95312 331.9375 364.4375Q331.9375 362.875 332.75 362.01562Q333.5625 361.14062 334.84375 361.14062Q336.09375 361.14062 336.875 361.98438Q337.67188 362.82812 337.67188 364.375Q337.67188 364.46875 337.67188 364.65625L333.03125 364.65625Q333.09375 365.6875 333.60938 366.23438Q334.125 366.76562 334.90625 366.76562Q335.48438 366.76562 335.89062 366.46875Q336.3125 366.15625 336.54688 365.5ZM333.09375 363.79688L336.5625 363.79688Q336.5 363.0 336.17188 362.60938Q335.65625 362.0 334.85938 362.0Q334.125 362.0 333.625 362.48438Q333.14062 362.96875 333.09375 363.79688Z" fill-rule="nonzero"/><path fill="#000000" d="M431.9375 367.5L431.9375 358.90625L435.75 358.90625Q436.90625 358.90625 437.5 359.14062Q438.09375 359.375 438.45312 359.96875Q438.8125 360.54688 438.8125 361.25Q438.8125 362.17188 438.21875 362.79688Q437.625 363.42188 436.39062 363.59375Q436.84375 363.8125 437.07812 364.01562Q437.57812 364.46875 438.01562 365.15625L439.51562 367.5L438.07812 367.5L436.95312 365.71875Q436.45312 364.9375 436.125 364.53125Q435.8125 364.125 435.54688 363.96875Q435.29688 363.79688 435.03125 363.71875Q434.84375 363.6875 434.40625 363.6875L433.07812 363.6875L433.07812 367.5L431.9375 367.5ZM433.07812 362.70312L435.53125 362.70312Q436.29688 362.70312 436.73438 362.54688Q437.1875 362.375 437.40625 362.03125Q437.64062 361.67188 437.64062 361.25Q437.64062 360.64062 437.1875 360.25Q436.75 359.85938 435.79688 359.85938L433.07812 359.85938L433.07812 362.70312ZM445.04688 365.5L446.14062 365.625Q445.89062 366.57812 445.1875 367.10938Q444.48438 367.64062 443.40625 367.64062Q442.04688 367.64062 441.23438 366.79688Q440.4375 365.95312 440.4375 364.4375Q440.4375 362.875 441.25 362.01562Q442.0625 361.14062 443.34375 361.14062Q444.59375 361.14062 445.375 361.98438Q446.17188 362.82812 446.17188 364.375Q446.17188 364.46875 446.17188 364.65625L441.53125 364.65625Q441.59375 365.6875 442.10938 366.23438Q442.625 366.76562 443.40625 366.76562Q443.98438 366.76562 444.39062 366.46875Q444.8125 366.15625 445.04688 365.5ZM441.59375 363.79688L445.0625 363.79688Q445.0 363.0 444.67188 362.60938Q444.15625 362.0 443.35938 362.0Q442.625 362.0 442.125 362.48438Q441.64062 362.96875 441.59375 363.79688ZM451.85938 365.21875L452.89062 365.35938Q452.71875 366.42188 452.01562 367.03125Q451.3125 367.64062 450.29688 367.64062Q449.01562 367.64062 448.23438 366.8125Q447.46875 365.96875 447.46875 364.40625Q447.46875 363.40625 447.79688 362.65625Q448.14062 361.89062 448.8125 361.51562Q449.5 361.14062 450.3125 361.14062Q451.3125 361.14062 451.95312 361.65625Q452.60938 362.15625 452.79688 363.10938L451.76562 363.26562Q451.625 362.64062 451.25 362.32812Q450.875 362.0 450.34375 362.0Q449.54688 362.0 449.04688 362.57812Q448.54688 363.14062 448.54688 364.375Q448.54688 365.64062 449.03125 366.20312Q449.51562 366.76562 450.28125 366.76562Q450.90625 366.76562 451.3125 366.39062Q451.73438 366.01562 451.85938 365.21875Z" fill-rule="nonzero"/><path fill="#000000" d="M544.9375 367.5L544.9375 358.90625L548.75 358.90625Q549.90625 358.90625 550.5 359.14062Q551.09375 359.375 551.4531 359.96875Q551.8125 360.54688 551.8125 361.25Q551.8125 362.17188 551.21875 362.79688Q550.625 363.42188 549.3906 363.59375Q549.84375 363.8125 550.0781 364.01562Q550.5781 364.46875 551.0156 365.15625L552.5156 367.5L551.0781 367.5L549.9531 365.71875Q549.4531 364.9375 549.125 364.53125Q548.8125 364.125 548.5469 363.96875Q548.2969 363.79688 548.03125 363.71875Q547.84375 363.6875 547.40625 363.6875L546.0781 363.6875L546.0781 367.5L544.9375 367.5ZM546.0781 362.70312L548.53125 362.70312Q549.2969 362.70312 549.7344 362.54688Q550.1875 362.375 550.40625 362.03125Q550.6406 361.67188 550.6406 361.25Q550.6406 360.64062 550.1875 360.25Q549.75 359.85938 548.7969 359.85938L546.0781 359.85938L546.0781 362.70312ZM553.40625 364.39062Q553.40625 362.65625 554.3594 361.82812Q555.15625 361.14062 556.3125 361.14062Q557.59375 361.14062 558.40625 361.98438Q559.2344 362.8125 559.2344 364.29688Q559.2344 365.5 558.875 366.1875Q558.5156 366.875 557.8125 367.26562Q557.125 367.64062 556.3125 367.64062Q555.0156 367.64062 554.2031 366.8125Q553.40625 365.96875 553.40625 364.39062ZM554.4844 364.39062Q554.4844 365.57812 555.0 366.17188Q555.53125 366.76562 556.3125 366.76562Q557.1094 366.76562 557.625 366.17188Q558.1406 365.57812 558.1406 364.35938Q558.1406 363.20312 557.6094 362.60938Q557.09375 362.01562 556.3125 362.01562Q555.53125 362.01562 555.0 362.60938Q554.4844 363.1875 554.4844 364.39062ZM564.8594 365.21875L565.8906 365.35938Q565.71875 366.42188 565.0156 367.03125Q564.3125 367.64062 563.2969 367.64062Q562.0156 367.64062 561.2344 366.8125Q560.46875 365.96875 560.46875 364.40625Q560.46875 363.40625 560.7969 362.65625Q561.1406 361.89062 561.8125 361.51562Q562.5 361.14062 563.3125 361.14062Q564.3125 361.14062 564.9531 361.65625Q565.6094 362.15625 565.7969 363.10938L564.7656 363.26562Q564.625 362.64062 564.25 362.32812Q563.875 362.0 563.34375 362.0Q562.5469 362.0 562.0469 362.57812Q561.5469 363.14062 561.5469 364.375Q561.5469 365.64062 562.03125 366.20312Q562.5156 366.76562 563.28125 366.76562Q563.90625 366.76562 564.3125 366.39062Q564.7344 366.01562 564.8594 365.21875Z" fill-rule="nonzero"/><path fill="#4285f4" d="M149.5 57.5L155.5 63.5L149.5 69.5L143.5 63.5Z" fill-rule="nonzero"/><path fill="#1a1a1a" d="M164.375 58.90625L167.53125 58.90625Q168.60938 58.90625 169.17188 59.078125Q169.92188 59.296875 170.45312 59.875Q171.0 60.4375 171.28125 61.265625Q171.5625 62.078125 171.5625 63.28125Q171.5625 64.34375 171.3125 65.109375Q170.98438 66.046875 170.39062 66.625Q169.9375 67.078125 169.17188 67.3125Q168.59375 67.5 167.625 67.5L164.375 67.5L164.375 58.90625ZM166.10938 60.359375L166.10938 66.046875L167.39062 66.046875Q168.125 66.046875 168.45312 65.96875Q168.875 65.859375 169.14062 65.609375Q169.42188 65.359375 169.59375 64.78125Q169.78125 64.203125 169.78125 63.203125Q169.78125 62.21875 169.59375 61.6875Q169.42188 61.140625 169.10938 60.84375Q168.79688 60.546875 168.3125 60.4375Q167.9375 60.359375 166.875 60.359375L166.10938 60.359375ZM173.59375 63.171875L172.09375 62.90625Q172.34375 62.0 172.95312 61.578125Q173.57812 61.140625 174.79688 61.140625Q175.89062 61.140625 176.42188 61.40625Q176.96875 61.65625 177.1875 62.0625Q177.40625 62.453125 177.40625 63.53125L177.39062 65.453125Q177.39062 66.28125 177.46875 66.671875Q177.54688 67.046875 177.76562 67.5L176.14062 67.5Q176.07812 67.328125 175.98438 67.015625Q175.9375 66.859375 175.92188 66.8125Q175.5 67.234375 175.01562 67.4375Q174.54688 67.640625 174.0 67.640625Q173.03125 67.640625 172.46875 67.125Q171.92188 66.59375 171.92188 65.796875Q171.92188 65.265625 172.17188 64.859375Q172.4375 64.453125 172.89062 64.234375Q173.34375 64.0 174.20312 63.84375Q175.34375 63.625 175.79688 63.4375L175.79688 63.28125Q175.79688 62.796875 175.5625 62.59375Q175.32812 62.390625 174.67188 62.390625Q174.23438 62.390625 173.98438 62.5625Q173.75 62.734375 173.59375 63.171875ZM175.79688 64.515625Q175.48438 64.609375 174.79688 64.765625Q174.10938 64.90625 173.89062 65.046875Q173.57812 65.28125 173.57812 65.625Q173.57812 65.96875 173.82812 66.234375Q174.09375 66.484375 174.48438 66.484375Q174.9375 66.484375 175.34375 66.1875Q175.64062 65.96875 175.73438 65.640625Q175.79688 65.4375 175.79688 64.84375L175.79688 64.515625ZM182.21875 61.28125L182.21875 62.59375L181.09375 62.59375L181.09375 65.09375Q181.09375 65.859375 181.125 65.984375Q181.15625 66.109375 181.26562 66.203125Q181.39062 66.28125 181.54688 66.28125Q181.78125 66.28125 182.20312 66.109375L182.34375 67.390625Q181.78125 67.640625 181.04688 67.640625Q180.60938 67.640625 180.25 67.5Q179.89062 67.34375 179.71875 67.109375Q179.5625 66.859375 179.48438 66.46875Q179.4375 66.171875 179.4375 65.296875L179.4375 62.59375L178.6875 62.59375L178.6875 61.28125L179.4375 61.28125L179.4375 60.046875L181.09375 59.078125L181.09375 61.28125L182.21875 61.28125ZM184.59375 63.171875L183.09375 62.90625Q183.34375 62.0 183.95312 61.578125Q184.57812 61.140625 185.79688 61.140625Q186.89062 61.140625 187.42188 61.40625Q187.96875 61.65625 188.1875 62.0625Q188.40625 62.453125 188.40625 63.53125L188.39062 65.453125Q188.39062 66.28125 188.46875 66.671875Q188.54688 67.046875 188.76562 67.5L187.14062 67.5Q187.07812 67.328125 186.98438 67.015625Q186.9375 66.859375 186.92188 66.8125Q186.5 67.234375 186.01562 67.4375Q185.54688 67.640625 185.0 67.640625Q184.03125 67.640625 183.46875 67.125Q182.92188 66.59375 182.92188 65.796875Q182.92188 65.265625 183.17188 64.859375Q183.4375 64.453125 183.89062 64.234375Q184.34375 64.0 185.20312 63.84375Q186.34375 63.625 186.79688 63.4375L186.79688 63.28125Q186.79688 62.796875 186.5625 62.59375Q186.32812 62.390625 185.67188 62.390625Q185.23438 62.390625 184.98438 62.5625Q184.75 62.734375 184.59375 63.171875ZM186.79688 64.515625Q186.48438 64.609375 185.79688 64.765625Q185.10938 64.90625 184.89062 65.046875Q184.57812 65.28125 184.57812 65.625Q184.57812 65.96875 184.82812 66.234375Q185.09375 66.484375 185.48438 66.484375Q185.9375 66.484375 186.34375 66.1875Q186.64062 65.96875 186.73438 65.640625Q186.79688 65.4375 186.79688 64.84375L186.79688 64.515625ZM189.78125 65.71875L191.4375 65.46875Q191.54688 65.953125 191.85938 66.203125Q192.1875 66.453125 192.76562 66.453125Q193.40625 66.453125 193.71875 66.21875Q193.9375 66.046875 193.9375 65.78125Q193.9375 65.59375 193.82812 65.46875Q193.70312 65.34375 193.28125 65.25Q191.28125 64.8125 190.75 64.453125Q190.01562 63.9375 190.01562 63.046875Q190.01562 62.234375 190.64062 61.6875Q191.28125 61.140625 192.625 61.140625Q193.90625 61.140625 194.53125 61.5625Q195.15625 61.96875 195.39062 62.78125L193.82812 63.0625Q193.73438 62.703125 193.45312 62.515625Q193.17188 62.3125 192.65625 62.3125Q192.01562 62.3125 191.73438 62.5Q191.54688 62.625 191.54688 62.828125Q191.54688 63.015625 191.70312 63.140625Q191.92188 63.296875 193.23438 63.59375Q194.5625 63.890625 195.07812 64.328125Q195.59375 64.765625 195.59375 65.546875Q195.59375 66.40625 194.875 67.03125Q194.17188 67.640625 192.76562 67.640625Q191.5 67.640625 190.75 67.125Q190.01562 66.609375 189.78125 65.71875ZM200.96875 65.515625L202.60938 65.796875Q202.29688 66.703125 201.60938 67.171875Q200.92188 67.640625 199.90625 67.640625Q198.28125 67.640625 197.5 66.578125Q196.875 65.734375 196.875 64.4375Q196.875 62.890625 197.6875 62.015625Q198.5 61.140625 199.73438 61.140625Q201.125 61.140625 201.92188 62.0625Q202.73438 62.96875 202.6875 64.859375L198.5625 64.859375Q198.59375 65.59375 198.96875 66.0Q199.34375 66.40625 199.92188 66.40625Q200.29688 66.40625 200.5625 66.203125Q200.82812 65.984375 200.96875 65.515625ZM201.0625 63.859375Q201.04688 63.140625 200.6875 62.765625Q200.34375 62.390625 199.82812 62.390625Q199.29688 62.390625 198.9375 62.78125Q198.59375 63.1875 198.59375 63.859375L201.0625 63.859375ZM207.21875 61.28125L207.21875 62.59375L206.09375 62.59375L206.09375 65.09375Q206.09375 65.859375 206.125 65.984375Q206.15625 66.109375 206.26562 66.203125Q206.39062 66.28125 206.54688 66.28125Q206.78125 66.28125 207.20312 66.109375L207.34375 67.390625Q206.78125 67.640625 206.04688 67.640625Q205.60938 67.640625 205.25 67.5Q204.89062 67.34375 204.71875 67.109375Q204.5625 66.859375 204.48438 66.46875Q204.4375 66.171875 204.4375 65.296875L204.4375 62.59375L203.6875 62.59375L203.6875 61.28125L204.4375 61.28125L204.4375 60.046875L206.09375 59.078125L206.09375 61.28125L207.21875 61.28125ZM215.21875 67.5L213.57812 67.5L213.57812 61.296875Q212.67188 62.140625 211.45312 62.546875L211.45312 61.046875Q212.09375 60.84375 212.84375 60.25Q213.60938 59.65625 213.89062 58.875L215.21875 58.875L215.21875 67.5Z" fill-rule="nonzero"/><path fill="#ea4335" d="M239.5 57.5L245.5 63.5L239.5 69.5L233.5 63.5Z" fill-rule="nonzero"/><path fill="#1a1a1a" d="M254.375 58.90625L257.53125 58.90625Q258.60938 58.90625 259.17188 59.078125Q259.92188 59.296875 260.45312 59.875Q261.0 60.4375 261.28125 61.265625Q261.5625 62.078125 261.5625 63.28125Q261.5625 64.34375 261.3125 65.109375Q260.98438 66.046875 260.39062 66.625Q259.9375 67.078125 259.17188 67.3125Q258.59375 67.5 257.625 67.5L254.375 67.5L254.375 58.90625ZM256.10938 60.359375L256.10938 66.046875L257.39062 66.046875Q258.125 66.046875 258.45312 65.96875Q258.875 65.859375 259.14062 65.609375Q259.42188 65.359375 259.59375 64.78125Q259.78125 64.203125 259.78125 63.203125Q259.78125 62.21875 259.59375 61.6875Q259.42188 61.140625 259.10938 60.84375Q258.79688 60.546875 258.3125 60.4375Q257.9375 60.359375 256.875 60.359375L256.10938 60.359375ZM263.59375 63.171875L262.09375 62.90625Q262.34375 62.0 262.95312 61.578125Q263.57812 61.140625 264.79688 61.140625Q265.89062 61.140625 266.42188 61.40625Q266.96875 61.65625 267.1875 62.0625Q267.40625 62.453125 267.40625 63.53125L267.39062 65.453125Q267.39062 66.28125 267.46875 66.671875Q267.54688 67.046875 267.76562 67.5L266.14062 67.5Q266.07812 67.328125 265.98438 67.015625Q265.9375 66.859375 265.92188 66.8125Q265.5 67.234375 265.01562 67.4375Q264.54688 67.640625 264.0 67.640625Q263.03125 67.640625 262.46875 67.125Q261.92188 66.59375 261.92188 65.796875Q261.92188 65.265625 262.17188 64.859375Q262.4375 64.453125 262.89062 64.234375Q263.34375 64.0 264.20312 63.84375Q265.34375 63.625 265.79688 63.4375L265.79688 63.28125Q265.79688 62.796875 265.5625 62.59375Q265.32812 62.390625 264.67188 62.390625Q264.23438 62.390625 263.98438 62.5625Q263.75 62.734375 263.59375 63.171875ZM265.79688 64.515625Q265.48438 64.609375 264.79688 64.765625Q264.10938 64.90625 263.89062 65.046875Q263.57812 65.28125 263.57812 65.625Q263.57812 65.96875 263.82812 66.234375Q264.09375 66.484375 264.48438 66.484375Q264.9375 66.484375 265.34375 66.1875Q265.64062 65.96875 265.73438 65.640625Q265.79688 65.4375 265.79688 64.84375L265.79688 64.515625ZM272.21875 61.28125L272.21875 62.59375L271.09375 62.59375L271.09375 65.09375Q271.09375 65.859375 271.125 65.984375Q271.15625 66.109375 271.26562 66.203125Q271.39062 66.28125 271.54688 66.28125Q271.78125 66.28125 272.20312 66.109375L272.34375 67.390625Q271.78125 67.640625 271.04688 67.640625Q270.60938 67.640625 270.25 67.5Q269.89062 67.34375 269.71875 67.109375Q269.5625 66.859375 269.48438 66.46875Q269.4375 66.171875 269.4375 65.296875L269.4375 62.59375L268.6875 62.59375L268.6875 61.28125L269.4375 61.28125L269.4375 60.046875L271.09375 59.078125L271.09375 61.28125L272.21875 61.28125ZM274.59375 63.171875L273.09375 62.90625Q273.34375 62.0 273.95312 61.578125Q274.57812 61.140625 275.79688 61.140625Q276.89062 61.140625 277.42188 61.40625Q277.96875 61.65625 278.1875 62.0625Q278.40625 62.453125 278.40625 63.53125L278.39062 65.453125Q278.39062 66.28125 278.46875 66.671875Q278.54688 67.046875 278.76562 67.5L277.14062 67.5Q277.07812 67.328125 276.98438 67.015625Q276.9375 66.859375 276.92188 66.8125Q276.5 67.234375 276.01562 67.4375Q275.54688 67.640625 275.0 67.640625Q274.03125 67.640625 273.46875 67.125Q272.92188 66.59375 272.92188 65.796875Q272.92188 65.265625 273.17188 64.859375Q273.4375 64.453125 273.89062 64.234375Q274.34375 64.0 275.20312 63.84375Q276.34375 63.625 276.79688 63.4375L276.79688 63.28125Q276.79688 62.796875 276.5625 62.59375Q276.32812 62.390625 275.67188 62.390625Q275.23438 62.390625 274.98438 62.5625Q274.75 62.734375 274.59375 63.171875ZM276.79688 64.515625Q276.48438 64.609375 275.79688 64.765625Q275.10938 64.90625 274.89062 65.046875Q274.57812 65.28125 274.57812 65.625Q274.57812 65.96875 274.82812 66.234375Q275.09375 66.484375 275.48438 66.484375Q275.9375 66.484375 276.34375 66.1875Q276.64062 65.96875 276.73438 65.640625Q276.79688 65.4375 276.79688 64.84375L276.79688 64.515625ZM279.78125 65.71875L281.4375 65.46875Q281.54688 65.953125 281.85938 66.203125Q282.1875 66.453125 282.76562 66.453125Q283.40625 66.453125 283.71875 66.21875Q283.9375 66.046875 283.9375 65.78125Q283.9375 65.59375 283.82812 65.46875Q283.70312 65.34375 283.28125 65.25Q281.28125 64.8125 280.75 64.453125Q280.01562 63.9375 280.01562 63.046875Q280.01562 62.234375 280.64062 61.6875Q281.28125 61.140625 282.625 61.140625Q283.90625 61.140625 284.53125 61.5625Q285.15625 61.96875 285.39062 62.78125L283.82812 63.0625Q283.73438 62.703125 283.45312 62.515625Q283.17188 62.3125 282.65625 62.3125Q282.01562 62.3125 281.73438 62.5Q281.54688 62.625 281.54688 62.828125Q281.54688 63.015625 281.70312 63.140625Q281.92188 63.296875 283.23438 63.59375Q284.5625 63.890625 285.07812 64.328125Q285.59375 64.765625 285.59375 65.546875Q285.59375 66.40625 284.875 67.03125Q284.17188 67.640625 282.76562 67.640625Q281.5 67.640625 280.75 67.125Q280.01562 66.609375 279.78125 65.71875ZM290.96875 65.515625L292.60938 65.796875Q292.29688 66.703125 291.60938 67.171875Q290.92188 67.640625 289.90625 67.640625Q288.28125 67.640625 287.5 66.578125Q286.875 65.734375 286.875 64.4375Q286.875 62.890625 287.6875 62.015625Q288.5 61.140625 289.73438 61.140625Q291.125 61.140625 291.92188 62.0625Q292.73438 62.96875 292.6875 64.859375L288.5625 64.859375Q288.59375 65.59375 288.96875 66.0Q289.34375 66.40625 289.92188 66.40625Q290.29688 66.40625 290.5625 66.203125Q290.82812 65.984375 290.96875 65.515625ZM291.0625 63.859375Q291.04688 63.140625 290.6875 62.765625Q290.34375 62.390625 289.82812 62.390625Q289.29688 62.390625 288.9375 62.78125Q288.59375 63.1875 288.59375 63.859375L291.0625 63.859375ZM297.21875 61.28125L297.21875 62.59375L296.09375 62.59375L296.09375 65.09375Q296.09375 65.859375 296.125 65.984375Q296.15625 66.109375 296.26562 66.203125Q296.39062 66.28125 296.54688 66.28125Q296.78125 66.28125 297.20312 66.109375L297.34375 67.390625Q296.78125 67.640625 296.04688 67.640625Q295.60938 67.640625 295.25 67.5Q294.89062 67.34375 294.71875 67.109375Q294.5625 66.859375 294.48438 66.46875Q294.4375 66.171875 294.4375 65.296875L294.4375 62.59375L293.6875 62.59375L293.6875 61.28125L294.4375 61.28125L294.4375 60.046875L296.09375 59.078125L296.09375 61.28125L297.21875 61.28125ZM306.57812 65.96875L306.57812 67.5L300.79688 67.5Q300.89062 66.625 301.35938 65.859375Q301.82812 65.078125 303.21875 63.796875Q304.32812 62.765625 304.57812 62.390625Q304.92188 61.875 304.92188 61.375Q304.92188 60.828125 304.625 60.53125Q304.32812 60.234375 303.8125 60.234375Q303.29688 60.234375 302.98438 60.546875Q302.6875 60.859375 302.64062 61.578125L301.0 61.421875Q301.14062 60.0625 301.90625 59.46875Q302.6875 58.875 303.84375 58.875Q305.125 58.875 305.84375 59.5625Q306.57812 60.25 306.57812 61.265625Q306.57812 61.84375 306.35938 62.375Q306.15625 62.890625 305.70312 63.46875Q305.40625 63.84375 304.625 64.5625Q303.84375 65.28125 303.64062 65.515625Q303.4375 65.75 303.29688 65.96875L306.57812 65.96875Z" fill-rule="nonzero"/><path fill="#fbbc04" d="M329.5 57.5L335.5 63.5L329.5 69.5L323.5 63.5Z" fill-rule="nonzero"/><path fill="#1a1a1a" d="M344.375 58.90625L347.53125 58.90625Q348.60938 58.90625 349.17188 59.078125Q349.92188 59.296875 350.45312 59.875Q351.0 60.4375 351.28125 61.265625Q351.5625 62.078125 351.5625 63.28125Q351.5625 64.34375 351.3125 65.109375Q350.98438 66.046875 350.39062 66.625Q349.9375 67.078125 349.17188 67.3125Q348.59375 67.5 347.625 67.5L344.375 67.5L344.375 58.90625ZM346.10938 60.359375L346.10938 66.046875L347.39062 66.046875Q348.125 66.046875 348.45312 65.96875Q348.875 65.859375 349.14062 65.609375Q349.42188 65.359375 349.59375 64.78125Q349.78125 64.203125 349.78125 63.203125Q349.78125 62.21875 349.59375 61.6875Q349.42188 61.140625 349.10938 60.84375Q348.79688 60.546875 348.3125 60.4375Q347.9375 60.359375 346.875 60.359375L346.10938 60.359375ZM353.59375 63.171875L352.09375 62.90625Q352.34375 62.0 352.95312 61.578125Q353.57812 61.140625 354.79688 61.140625Q355.89062 61.140625 356.42188 61.40625Q356.96875 61.65625 357.1875 62.0625Q357.40625 62.453125 357.40625 63.53125L357.39062 65.453125Q357.39062 66.28125 357.46875 66.671875Q357.54688 67.046875 357.76562 67.5L356.14062 67.5Q356.07812 67.328125 355.98438 67.015625Q355.9375 66.859375 355.92188 66.8125Q355.5 67.234375 355.01562 67.4375Q354.54688 67.640625 354.0 67.640625Q353.03125 67.640625 352.46875 67.125Q351.92188 66.59375 351.92188 65.796875Q351.92188 65.265625 352.17188 64.859375Q352.4375 64.453125 352.89062 64.234375Q353.34375 64.0 354.20312 63.84375Q355.34375 63.625 355.79688 63.4375L355.79688 63.28125Q355.79688 62.796875 355.5625 62.59375Q355.32812 62.390625 354.67188 62.390625Q354.23438 62.390625 353.98438 62.5625Q353.75 62.734375 353.59375 63.171875ZM355.79688 64.515625Q355.48438 64.609375 354.79688 64.765625Q354.10938 64.90625 353.89062 65.046875Q353.57812 65.28125 353.57812 65.625Q353.57812 65.96875 353.82812 66.234375Q354.09375 66.484375 354.48438 66.484375Q354.9375 66.484375 355.34375 66.1875Q355.64062 65.96875 355.73438 65.640625Q355.79688 65.4375 355.79688 64.84375L355.79688 64.515625ZM362.21875 61.28125L362.21875 62.59375L361.09375 62.59375L361.09375 65.09375Q361.09375 65.859375 361.125 65.984375Q361.15625 66.109375 361.26562 66.203125Q361.39062 66.28125 361.54688 66.28125Q361.78125 66.28125 362.20312 66.109375L362.34375 67.390625Q361.78125 67.640625 361.04688 67.640625Q360.60938 67.640625 360.25 67.5Q359.89062 67.34375 359.71875 67.109375Q359.5625 66.859375 359.48438 66.46875Q359.4375 66.171875 359.4375 65.296875L359.4375 62.59375L358.6875 62.59375L358.6875 61.28125L359.4375 61.28125L359.4375 60.046875L361.09375 59.078125L361.09375 61.28125L362.21875 61.28125ZM364.59375 63.171875L363.09375 62.90625Q363.34375 62.0 363.95312 61.578125Q364.57812 61.140625 365.79688 61.140625Q366.89062 61.140625 367.42188 61.40625Q367.96875 61.65625 368.1875 62.0625Q368.40625 62.453125 368.40625 63.53125L368.39062 65.453125Q368.39062 66.28125 368.46875 66.671875Q368.54688 67.046875 368.76562 67.5L367.14062 67.5Q367.07812 67.328125 366.98438 67.015625Q366.9375 66.859375 366.92188 66.8125Q366.5 67.234375 366.01562 67.4375Q365.54688 67.640625 365.0 67.640625Q364.03125 67.640625 363.46875 67.125Q362.92188 66.59375 362.92188 65.796875Q362.92188 65.265625 363.17188 64.859375Q363.4375 64.453125 363.89062 64.234375Q364.34375 64.0 365.20312 63.84375Q366.34375 63.625 366.79688 63.4375L366.79688 63.28125Q366.79688 62.796875 366.5625 62.59375Q366.32812 62.390625 365.67188 62.390625Q365.23438 62.390625 364.98438 62.5625Q364.75 62.734375 364.59375 63.171875ZM366.79688 64.515625Q366.48438 64.609375 365.79688 64.765625Q365.10938 64.90625 364.89062 65.046875Q364.57812 65.28125 364.57812 65.625Q364.57812 65.96875 364.82812 66.234375Q365.09375 66.484375 365.48438 66.484375Q365.9375 66.484375 366.34375 66.1875Q366.64062 65.96875 366.73438 65.640625Q366.79688 65.4375 366.79688 64.84375L366.79688 64.515625ZM369.78125 65.71875L371.4375 65.46875Q371.54688 65.953125 371.85938 66.203125Q372.1875 66.453125 372.76562 66.453125Q373.40625 66.453125 373.71875 66.21875Q373.9375 66.046875 373.9375 65.78125Q373.9375 65.59375 373.82812 65.46875Q373.70312 65.34375 373.28125 65.25Q371.28125 64.8125 370.75 64.453125Q370.01562 63.9375 370.01562 63.046875Q370.01562 62.234375 370.64062 61.6875Q371.28125 61.140625 372.625 61.140625Q373.90625 61.140625 374.53125 61.5625Q375.15625 61.96875 375.39062 62.78125L373.82812 63.0625Q373.73438 62.703125 373.45312 62.515625Q373.17188 62.3125 372.65625 62.3125Q372.01562 62.3125 371.73438 62.5Q371.54688 62.625 371.54688 62.828125Q371.54688 63.015625 371.70312 63.140625Q371.92188 63.296875 373.23438 63.59375Q374.5625 63.890625 375.07812 64.328125Q375.59375 64.765625 375.59375 65.546875Q375.59375 66.40625 374.875 67.03125Q374.17188 67.640625 372.76562 67.640625Q371.5 67.640625 370.75 67.125Q370.01562 66.609375 369.78125 65.71875ZM380.96875 65.515625L382.60938 65.796875Q382.29688 66.703125 381.60938 67.171875Q380.92188 67.640625 379.90625 67.640625Q378.28125 67.640625 377.5 66.578125Q376.875 65.734375 376.875 64.4375Q376.875 62.890625 377.6875 62.015625Q378.5 61.140625 379.73438 61.140625Q381.125 61.140625 381.92188 62.0625Q382.73438 62.96875 382.6875 64.859375L378.5625 64.859375Q378.59375 65.59375 378.96875 66.0Q379.34375 66.40625 379.92188 66.40625Q380.29688 66.40625 380.5625 66.203125Q380.82812 65.984375 380.96875 65.515625ZM381.0625 63.859375Q381.04688 63.140625 380.6875 62.765625Q380.34375 62.390625 379.82812 62.390625Q379.29688 62.390625 378.9375 62.78125Q378.59375 63.1875 378.59375 63.859375L381.0625 63.859375ZM387.21875 61.28125L387.21875 62.59375L386.09375 62.59375L386.09375 65.09375Q386.09375 65.859375 386.125 65.984375Q386.15625 66.109375 386.26562 66.203125Q386.39062 66.28125 386.54688 66.28125Q386.78125 66.28125 387.20312 66.109375L387.34375 67.390625Q386.78125 67.640625 386.04688 67.640625Q385.60938 67.640625 385.25 67.5Q384.89062 67.34375 384.71875 67.109375Q384.5625 66.859375 384.48438 66.46875Q384.4375 66.171875 384.4375 65.296875L384.4375 62.59375L383.6875 62.59375L383.6875 61.28125L384.4375 61.28125L384.4375 60.046875L386.09375 59.078125L386.09375 61.28125L387.21875 61.28125ZM390.95312 65.21875L392.54688 65.03125Q392.625 65.640625 392.95312 65.96875Q393.29688 66.28125 393.76562 66.28125Q394.28125 66.28125 394.625 65.890625Q394.96875 65.5 394.96875 64.84375Q394.96875 64.234375 394.625 63.875Q394.29688 63.5 393.82812 63.5Q393.5 63.5 393.0625 63.625L393.25 62.28125Q393.92188 62.296875 394.26562 62.0Q394.625 61.6875 394.625 61.171875Q394.625 60.75 394.35938 60.5Q394.10938 60.234375 393.67188 60.234375Q393.25 60.234375 392.95312 60.53125Q392.65625 60.8125 392.59375 61.375L391.07812 61.125Q391.23438 60.34375 391.54688 59.875Q391.875 59.40625 392.4375 59.140625Q393.01562 58.875 393.71875 58.875Q394.9375 58.875 395.67188 59.640625Q396.26562 60.28125 396.26562 61.078125Q396.26562 62.203125 395.03125 62.875Q395.78125 63.046875 396.21875 63.59375Q396.65625 64.140625 396.65625 64.921875Q396.65625 66.046875 395.82812 66.84375Q395.0 67.640625 393.78125 67.640625Q392.60938 67.640625 391.84375 66.96875Q391.07812 66.296875 390.95312 65.21875Z" fill-rule="nonzero"/><path fill="#34a853" d="M419.5 57.5L425.5 63.5L419.5 69.5L413.5 63.5Z" fill-rule="nonzero"/><path fill="#1a1a1a" d="M434.375 58.90625L437.53125 58.90625Q438.60938 58.90625 439.17188 59.078125Q439.92188 59.296875 440.45312 59.875Q441.0 60.4375 441.28125 61.265625Q441.5625 62.078125 441.5625 63.28125Q441.5625 64.34375 441.3125 65.109375Q440.98438 66.046875 440.39062 66.625Q439.9375 67.078125 439.17188 67.3125Q438.59375 67.5 437.625 67.5L434.375 67.5L434.375 58.90625ZM436.10938 60.359375L436.10938 66.046875L437.39062 66.046875Q438.125 66.046875 438.45312 65.96875Q438.875 65.859375 439.14062 65.609375Q439.42188 65.359375 439.59375 64.78125Q439.78125 64.203125 439.78125 63.203125Q439.78125 62.21875 439.59375 61.6875Q439.42188 61.140625 439.10938 60.84375Q438.79688 60.546875 438.3125 60.4375Q437.9375 60.359375 436.875 60.359375L436.10938 60.359375ZM443.59375 63.171875L442.09375 62.90625Q442.34375 62.0 442.95312 61.578125Q443.57812 61.140625 444.79688 61.140625Q445.89062 61.140625 446.42188 61.40625Q446.96875 61.65625 447.1875 62.0625Q447.40625 62.453125 447.40625 63.53125L447.39062 65.453125Q447.39062 66.28125 447.46875 66.671875Q447.54688 67.046875 447.76562 67.5L446.14062 67.5Q446.07812 67.328125 445.98438 67.015625Q445.9375 66.859375 445.92188 66.8125Q445.5 67.234375 445.01562 67.4375Q444.54688 67.640625 444.0 67.640625Q443.03125 67.640625 442.46875 67.125Q441.92188 66.59375 441.92188 65.796875Q441.92188 65.265625 442.17188 64.859375Q442.4375 64.453125 442.89062 64.234375Q443.34375 64.0 444.20312 63.84375Q445.34375 63.625 445.79688 63.4375L445.79688 63.28125Q445.79688 62.796875 445.5625 62.59375Q445.32812 62.390625 444.67188 62.390625Q444.23438 62.390625 443.98438 62.5625Q443.75 62.734375 443.59375 63.171875ZM445.79688 64.515625Q445.48438 64.609375 444.79688 64.765625Q444.10938 64.90625 443.89062 65.046875Q443.57812 65.28125 443.57812 65.625Q443.57812 65.96875 443.82812 66.234375Q444.09375 66.484375 444.48438 66.484375Q444.9375 66.484375 445.34375 66.1875Q445.64062 65.96875 445.73438 65.640625Q445.79688 65.4375 445.79688 64.84375L445.79688 64.515625ZM452.21875 61.28125L452.21875 62.59375L451.09375 62.59375L451.09375 65.09375Q451.09375 65.859375 451.125 65.984375Q451.15625 66.109375 451.26562 66.203125Q451.39062 66.28125 451.54688 66.28125Q451.78125 66.28125 452.20312 66.109375L452.34375 67.390625Q451.78125 67.640625 451.04688 67.640625Q450.60938 67.640625 450.25 67.5Q449.89062 67.34375 449.71875 67.109375Q449.5625 66.859375 449.48438 66.46875Q449.4375 66.171875 449.4375 65.296875L449.4375 62.59375L448.6875 62.59375L448.6875 61.28125L449.4375 61.28125L449.4375 60.046875L451.09375 59.078125L451.09375 61.28125L452.21875 61.28125ZM454.59375 63.171875L453.09375 62.90625Q453.34375 62.0 453.95312 61.578125Q454.57812 61.140625 455.79688 61.140625Q456.89062 61.140625 457.42188 61.40625Q457.96875 61.65625 458.1875 62.0625Q458.40625 62.453125 458.40625 63.53125L458.39062 65.453125Q458.39062 66.28125 458.46875 66.671875Q458.54688 67.046875 458.76562 67.5L457.14062 67.5Q457.07812 67.328125 456.98438 67.015625Q456.9375 66.859375 456.92188 66.8125Q456.5 67.234375 456.01562 67.4375Q455.54688 67.640625 455.0 67.640625Q454.03125 67.640625 453.46875 67.125Q452.92188 66.59375 452.92188 65.796875Q452.92188 65.265625 453.17188 64.859375Q453.4375 64.453125 453.89062 64.234375Q454.34375 64.0 455.20312 63.84375Q456.34375 63.625 456.79688 63.4375L456.79688 63.28125Q456.79688 62.796875 456.5625 62.59375Q456.32812 62.390625 455.67188 62.390625Q455.23438 62.390625 454.98438 62.5625Q454.75 62.734375 454.59375 63.171875ZM456.79688 64.515625Q456.48438 64.609375 455.79688 64.765625Q455.10938 64.90625 454.89062 65.046875Q454.57812 65.28125 454.57812 65.625Q454.57812 65.96875 454.82812 66.234375Q455.09375 66.484375 455.48438 66.484375Q455.9375 66.484375 456.34375 66.1875Q456.64062 65.96875 456.73438 65.640625Q456.79688 65.4375 456.79688 64.84375L456.79688 64.515625ZM459.78125 65.71875L461.4375 65.46875Q461.54688 65.953125 461.85938 66.203125Q462.1875 66.453125 462.76562 66.453125Q463.40625 66.453125 463.71875 66.21875Q463.9375 66.046875 463.9375 65.78125Q463.9375 65.59375 463.82812 65.46875Q463.70312 65.34375 463.28125 65.25Q461.28125 64.8125 460.75 64.453125Q460.01562 63.9375 460.01562 63.046875Q460.01562 62.234375 460.64062 61.6875Q461.28125 61.140625 462.625 61.140625Q463.90625 61.140625 464.53125 61.5625Q465.15625 61.96875 465.39062 62.78125L463.82812 63.0625Q463.73438 62.703125 463.45312 62.515625Q463.17188 62.3125 462.65625 62.3125Q462.01562 62.3125 461.73438 62.5Q461.54688 62.625 461.54688 62.828125Q461.54688 63.015625 461.70312 63.140625Q461.92188 63.296875 463.23438 63.59375Q464.5625 63.890625 465.07812 64.328125Q465.59375 64.765625 465.59375 65.546875Q465.59375 66.40625 464.875 67.03125Q464.17188 67.640625 462.76562 67.640625Q461.5 67.640625 460.75 67.125Q460.01562 66.609375 459.78125 65.71875ZM470.96875 65.515625L472.60938 65.796875Q472.29688 66.703125 471.60938 67.171875Q470.92188 67.640625 469.90625 67.640625Q468.28125 67.640625 467.5 66.578125Q466.875 65.734375 466.875 64.4375Q466.875 62.890625 467.6875 62.015625Q468.5 61.140625 469.73438 61.140625Q471.125 61.140625 471.92188 62.0625Q472.73438 62.96875 472.6875 64.859375L468.5625 64.859375Q468.59375 65.59375 468.96875 66.0Q469.34375 66.40625 469.92188 66.40625Q470.29688 66.40625 470.5625 66.203125Q470.82812 65.984375 470.96875 65.515625ZM471.0625 63.859375Q471.04688 63.140625 470.6875 62.765625Q470.34375 62.390625 469.82812 62.390625Q469.29688 62.390625 468.9375 62.78125Q468.59375 63.1875 468.59375 63.859375L471.0625 63.859375ZM477.21875 61.28125L477.21875 62.59375L476.09375 62.59375L476.09375 65.09375Q476.09375 65.859375 476.125 65.984375Q476.15625 66.109375 476.26562 66.203125Q476.39062 66.28125 476.54688 66.28125Q476.78125 66.28125 477.20312 66.109375L477.34375 67.390625Q476.78125 67.640625 476.04688 67.640625Q475.60938 67.640625 475.25 67.5Q474.89062 67.34375 474.71875 67.109375Q474.5625 66.859375 474.48438 66.46875Q474.4375 66.171875 474.4375 65.296875L474.4375 62.59375L473.6875 62.59375L473.6875 61.28125L474.4375 61.28125L474.4375 60.046875L476.09375 59.078125L476.09375 61.28125L477.21875 61.28125ZM484.23438 67.5L484.23438 65.765625L480.71875 65.765625L480.71875 64.328125L484.45312 58.875L485.82812 58.875L485.82812 64.328125L486.90625 64.328125L486.90625 65.765625L485.82812 65.765625L485.82812 67.5L484.23438 67.5ZM484.23438 64.328125L484.23438 61.390625L482.26562 64.328125L484.23438 64.328125Z" fill-rule="nonzero"/><path fill="#000000" d="M297.46875 38.5L297.46875 24.1875L299.35938 24.1875L299.35938 31.28125L306.46875 24.1875L309.03125 24.1875L303.03125 29.984375L309.29688 38.5L306.79688 38.5L301.70312 31.25L299.35938 33.53125L299.35938 38.5L297.46875 38.5ZM310.53125 38.5L310.53125 24.1875L312.46875 24.1875L319.98438 35.421875L319.98438 24.1875L321.79688 24.1875L321.79688 38.5L319.85938 38.5L312.34375 27.25L312.34375 38.5L310.53125 38.5ZM323.53125 38.5L323.53125 24.1875L325.46875 24.1875L332.98438 35.421875L332.98438 24.1875L334.79688 24.1875L334.79688 38.5L332.85938 38.5L325.34375 27.25L325.34375 38.5L323.53125 38.5Z" fill-rule="nonzero"/></svg>