<svg version="1.1" viewBox="0.0 0.0 600.0 371.0" fill="none" stroke="none" stroke-linecap="square" stroke-miterlimit="10" width="600" height="371" xmlns:xlink="http://www.w3.org/1999/xlink" xmlns="http://www.w3.org/2000/svg"><path fill="#ffffff" d="M0 0L600.0 0L600.0 371.0L0 371.0L0 0Z" fill-rule="nonzero"/><path stroke="#333333" stroke-width="1.0" stroke-linecap="butt" d="M45.5 332.5L581.5 332.5" fill-rule="nonzero"/><path stroke="#cccccc" stroke-width="1.0" stroke-linecap="butt" d="M45.5 271.5L581.5 271.5" fill-rule="nonzero"/><path stroke="#cccccc" stroke-width="1.0" stroke-linecap="butt" d="M45.5 210.5L581.5 210.5" fill-rule="nonzero"/><path stroke="#cccccc" stroke-width="1.0" stroke-linecap="butt" d="M45.5 149.5L581.5 149.5" fill-rule="nonzero"/><path stroke="#cccccc" stroke-width="1.0" stroke-linecap="butt" d="M45.5 88.5L581.5 88.5" fill-rule="nonzero"/><path stroke="#e6e6e6" stroke-width="1.0" stroke-linecap="butt" d="M45.5 320.5L581.5 320.5" fill-rule="nonzero"/><path stroke="#e6e6e6" stroke-width="1.0" stroke-linecap="butt" d="M45.5 308.5L581.5 308.5" fill-rule="nonzero"/><path stroke="#e6e6e6" stroke-width="1.0" stroke-linecap="butt" d="M45.5 295.5L581.5 295.5" fill-rule="nonzero"/><path stroke="#e6e6e6" stroke-width="1.0" stroke-linecap="butt" d="M45.5 283.5L581.5 283.5" fill-rule="nonzero"/><path stroke="#e6e6e6" stroke-width="1.0" stroke-linecap="butt" d="M45.5 259.5L581.5 259.5" fill-rule="nonzero"/><path stroke="#e6e6e6" stroke-width="1.0" stroke-linecap="butt" d="M45.5 246.5L581.5 246.5" fill-rule="nonzero"/><path stroke="#e6e6e6" stroke-width="1.0" stroke-linecap="butt" d="M45.5 234.5L581.5 234.5" fill-rule="nonzero"/><path stroke="#e6e6e6" stroke-width="1.0" stroke-linecap="butt" d="M45.5 222.5L581.5 222.5" fill-rule="nonzero"/><path stroke="#e6e6e6" stroke-width="1.0" stroke-linecap="butt" d="M45.5 198.5L581.5 198.5" fill-rule="nonzero"/><path stroke="#e6e6e6" stroke-width="1.0" stroke-linecap="butt" d="M45.5 185.5L581.5 185.5" fill-rule="nonzero"/><path stroke="#e6e6e6" stroke-width="1.0" stroke-linecap="butt" d="M45.5 173.5L581.5 173.5" fill-rule="nonzero"/><path stroke="#e6e6e6" stroke-width="1.0" stroke-linecap="butt" d="M45.5 161.5L581.5 161.5" fill-rule="nonzero"/><path stroke="#e6e6e6" stroke-width="1.0" stroke-linecap="butt" d="M45.5 137.5L581.5 137.5" fill-rule="nonzero"/><path stroke="#e6e6e6" stroke-width="1.0" stroke-linecap="butt" d="M45.5 124.5L581.5 124.5" fill-rule="nonzero"/><path stroke="#e6e6e6" stroke-width="1.0" stroke-linecap="butt" d="M45.5 112.5L581.5 112.5" fill-rule="nonzero"/><path stroke="#e6e6e6" stroke-width="1.0" stroke-linecap="butt" d="M45.5 100.5L581.5 100.5" fill-rule="nonzero"/><clipPath id="id_0"><path d="M45.55 88.28333L581.45 88.28333L581.45 332.45L45.55 332.45L45.55 88.28333Z" clip-rule="nonzero"/></clipPath><path stroke="#4285f4" stroke-width="2.0" stroke-linecap="butt" stroke-dasharray="2.0,3.0" clip-path="url(#id_0)" d="M99.14 307.41797L206.32 251.6089L313.5 317.40976L420.68 194.12006L527.86 263.1212" fill-rule="nonzero"/><path stroke="#ea4335" stroke-width="2.0" stroke-linecap="butt" stroke-dasharray="2.0,3.0" clip-path="url(#id_0)" d="M99.14 305.35318L206.32 244.26762L313.5 315.30692L420.68 183.42332L527.86 257.811" fill-rule="nonzero"/><path stroke="#fbbc04" stroke-width="2.0" stroke-linecap="butt" stroke-dasharray="2.0,3.0" clip-path="url(#id_0)" d="M99.14 304.13193L206.32 241.88397L313.5 319.62448L420.68 175.80281L527.86 254.52977" fill-rule="nonzero"/><path stroke="#34a853" stroke-width="2.0" stroke-linecap="butt" stroke-dasharray="2.0,3.0" clip-path="url(#id_0)" d="M99.14 306.15714L206.32 248.51901L313.5 314.12137L420.68 191.98209L527.86 262.0949" fill-rule="nonzero"/><path fill="#4285f4" clip-path="url(#id_0)" d="M99.14 301.41797L105.14 307.41797L99.14 313.41797L93.14 307.41797Z" fill-rule="nonzero"/><path fill="#4285f4" clip-path="url(#id_0)" d="M206.32 245.6089L212.32 251.6089L206.32 257.60892L200.32 251.6089Z" fill-rule="nonzero"/><path fill="#4285f4" clip-path="url(#id_0)" d="M313.5 311.40976L319.5 317.40976L313.5 323.40976L307.5 317.40976Z" fill-rule="nonzero"/><path fill="#4285f4" clip-path="url(#id_0)" d="M420.68 188.12006L426.68 194.12006L420.68 200.12006L414.68 194.12006Z" fill-rule="nonzero"/><path fill="#4285f4" clip-path="url(#id_0)" d="M527.86 257.1212L533.86 263.1212L527.86 269.1212L521.86 263.1212Z" fill-rule="nonzero"/><path fill="#ea4335" clip-path="url(#id_0)" d="M99.14 299.35318L105.14 305.35318L99.14 311.35318L93.14 305.35318Z" fill-rule="nonzero"/><path fill="#ea4335" clip-path="url(#id_0)" d="M206.32 238.26762L212.32 244.26762L206.32 250.26762L200.32 244.26762Z" fill-rule="nonzero"/><path fill="#ea4335" clip-path="url(#id_0)" d="M313.5 309.30692L319.5 315.30692L313.5 321.30692L307.5 315.30692Z" fill-rule="nonzero"/><path fill="#ea4335" clip-path="url(#id_0)" d="M420.68 177.42332L426.68 183.42332L420.68 189.42332L414.68 183.42332Z" fill-rule="nonzero"/><path fill="#ea4335" clip-path="url(#id_0)" d="M527.86 251.811L533.86 257.811L527.86 263.811L521.86 257.811Z" fill-rule="nonzero"/><path fill="#fbbc04" clip-path="url(#id_0)" d="M99.14 298.13193L105.14 304.13193L99.14 310.13193L93.14 304.13193Z" fill-rule="nonzero"/><path fill="#fbbc04" clip-path="url(#id_0)" d="M206.32 235.88397L212.32 241.88397L206.32 247.88397L200.32 241.88397Z" fill-rule="nonzero"/><path fill="#fbbc04" clip-path="url(#id_0)" d="M313.5 313.62448L319.5 319.62448L313.5 325.62448L307.5 319.62448Z" fill-rule="nonzero"/><path fill="#fbbc04" clip-path="url(#id_0)" d="M420.68 169.80281L426.68 175.80281L420.68 181.80281L414.68 175.80281Z" fill-rule="nonzero"/><path fill="#fbbc04" clip-path="url(#id_0)" d="M527.86 248.52977L533.86 254.52977L527.86 260.52975L521.86 254.52977Z" fill-rule="nonzero"/><path fill="#34a853" clip-path="url(#id_0)" d="M99.14 300.15714L105.14 306.15714L99.14 312.15714L93.14 306.15714Z" fill-rule="nonzero"/><path fill="#34a853" clip-path="url(#id_0)" d="M206.32 242.51901L212.32 248.51901L206.32 254.51901L200.32 248.51901Z" fill-rule="nonzero"/><path fill="#34a853" clip-path="url(#id_0)" d="M313.5 308.12137L319.5 314.12137L313.5 320.12137L307.5 314.12137Z" fill-rule="nonzero"/><path fill="#34a853" clip-path="url(#id_0)" d="M420.68 185.98209L426.68 191.98209L420.68 197.98209L414.68 191.98209Z" fill-rule="nonzero"/><path fill="#34a853" clip-path="url(#id_0)" d="M527.86 256.0949L533.86 262.0949L527.86 268.0949L521.86 262.0949Z" fill-rule="nonzero"/><path fill="#000000" d="M33.05 332.21564Q33.05 330.6844 33.3625 329.7625Q33.675 328.825 34.284374 328.325Q34.909374 327.825 35.846874 327.825Q36.534374 327.825 37.05 328.10626Q37.58125 328.3875 37.925 328.91876Q38.26875 329.4344 38.45625 330.1844Q38.64375 330.9344 38.64375 332.21564Q38.64375 333.73126 38.33125 334.65314Q38.034374 335.575 37.409374 336.09064Q36.8 336.59064 35.846874 336.59064Q34.6125 336.59064 33.89375 335.7Q33.05 334.6375 33.05 332.21564ZM34.128124 332.21564Q34.128124 334.325 34.628124 335.02814Q35.128124 335.73126 35.846874 335.73126Q36.58125 335.73126 37.065624 335.02814Q37.565624 334.325 37.565624 332.21564Q37.565624 330.09064 37.065624 329.40314Q36.58125 328.7 35.83125 328.7Q35.1125 328.7 34.675 329.3094Q34.128124 330.09064 34.128124 332.21564Z" fill-rule="nonzero"/><path fill="#000000" d="M33.05 273.15833L34.159374 273.06458Q34.284374 273.87708 34.721874 274.28333Q35.175 274.68958 35.815624 274.68958Q36.565624 274.68958 37.096874 274.11145Q37.628124 273.53333 37.628124 272.59583Q37.628124 271.68958 37.1125 271.17395Q36.6125 270.6427 35.784374 270.6427Q35.284374 270.6427 34.8625 270.87708Q34.45625 271.11145 34.221874 271.47083L33.2375 271.34583L34.065624 266.93958L38.346874 266.93958L38.346874 267.93958L34.909374 267.93958L34.45625 270.25208Q35.221874 269.7052 36.065624 269.7052Q37.190624 269.7052 37.95625 270.48645Q38.7375 271.2677 38.7375 272.50208Q38.7375 273.65833 38.065624 274.5177Q37.2375 275.54895 35.815624 275.54895Q34.64375 275.54895 33.89375 274.8927Q33.159374 274.23645 33.05 273.15833Z" fill-rule="nonzero"/><path fill="#000000" d="M30.01875 214.36667L28.971874 214.36667L28.971874 207.64792Q28.58125 208.0073 27.95625 208.3823Q27.346874 208.74167 26.8625 208.91354L26.8625 207.89792Q27.7375 207.47604 28.39375 206.89792Q29.065624 206.30417 29.346874 205.74167L30.01875 205.74167L30.01875 214.36667ZM33.05 210.1323Q33.05 208.60104 33.3625 207.67917Q33.675 206.74167 34.284374 206.24167Q34.909374 205.74167 35.846874 205.74167Q36.534374 205.74167 37.05 206.02292Q37.58125 206.30417 37.925 206.83542Q38.26875 207.35104 38.45625 208.10104Q38.64375 208.85104 38.64375 210.1323Q38.64375 211.64792 38.33125 212.5698Q38.034374 213.49167 37.409374 214.0073Q36.8 214.5073 35.846874 214.5073Q34.6125 214.5073 33.89375 213.61667Q33.05 212.55417 33.05 210.1323ZM34.128124 210.1323Q34.128124 212.24167 34.628124 212.9448Q35.128124 213.64792 35.846874 213.64792Q36.58125 213.64792 37.065624 212.9448Q37.565624 212.24167 37.565624 210.1323Q37.565624 208.0073 37.065624 207.3198Q36.58125 206.61667 35.83125 206.61667Q35.1125 206.61667 34.675 207.22604Q34.128124 208.0073 34.128124 210.1323Z" fill-rule="nonzero"/><path fill="#000000" d="M30.01875 153.325L28.971874 153.325L28.971874 146.60625Q28.58125 146.96562 27.95625 147.34062Q27.346874 147.7 26.8625 147.87187L26.8625 146.85625Q27.7375 146.43437 28.39375 145.85625Q29.065624 145.2625 29.346874 144.7L30.01875 144.7L30.01875 153.325ZM33.05 151.075L34.159374 150.98125Q34.284374 151.79375 34.721874 152.2Q35.175 152.60625 35.815624 152.60625Q36.565624 152.60625 37.096874 152.02812Q37.628124 151.45 37.628124 150.5125Q37.628124 149.60625 37.1125 149.09062Q36.6125 148.55937 35.784374 148.55937Q35.284374 148.55937 34.8625 148.79375Q34.45625 149.02812 34.221874 149.3875L33.2375 149.2625L34.065624 144.85625L38.346874 144.85625L38.346874 145.85625L34.909374 145.85625L34.45625 148.16875Q35.221874 147.62187 36.065624 147.62187Q37.190624 147.62187 37.95625 148.40312Q38.7375 149.18437 38.7375 150.41875Q38.7375 151.575 38.065624 152.43437Q37.2375 153.46562 35.815624 153.46562Q34.64375 153.46562 33.89375 152.80937Q33.159374 152.15312 33.05 151.075Z" fill-rule="nonzero"/><path fill="#000000" d="M31.596874 91.26771L31.596874 92.28333L25.909374 92.28333Q25.909374 91.90833 26.034374 91.54896Q26.253124 90.97083 26.721874 90.40833Q27.20625 89.84583 28.1125 89.11146Q29.51875 87.95521 30.003124 87.28333Q30.503124 86.61146 30.503124 86.01771Q30.503124 85.39271 30.05 84.97083Q29.596874 84.53333 28.878124 84.53333Q28.1125 84.53333 27.659374 84.98646Q27.20625 85.43958 27.190624 86.25208L26.1125 86.14271Q26.221874 84.92396 26.940624 84.29896Q27.675 83.65833 28.909374 83.65833Q30.14375 83.65833 30.8625 84.34583Q31.58125 85.03333 31.58125 86.04896Q31.58125 86.56458 31.3625 87.06458Q31.159374 87.54896 30.659374 88.11146Q30.175 88.65833 29.05 89.61146Q28.096874 90.40833 27.815624 90.70521Q27.55 90.98646 27.378124 91.26771L31.596874 91.26771ZM33.05 88.04896Q33.05 86.51771 33.3625 85.59583Q33.675 84.65833 34.284374 84.15833Q34.909374 83.65833 35.846874 83.65833Q36.534374 83.65833 37.05 83.93958Q37.58125 84.22083 37.925 84.75208Q38.26875 85.26771 38.45625 86.01771Q38.64375 86.76771 38.64375 88.04896Q38.64375 89.56458 38.33125 90.48646Q38.034374 91.40833 37.409374 91.92396Q36.8 92.42396 35.846874 92.42396Q34.6125 92.42396 33.89375 91.53333Q33.05 90.47083 33.05 88.04896ZM34.128124 88.04896Q34.128124 90.15833 34.628124 90.86146Q35.128124 91.56458 35.846874 91.56458Q36.58125 91.56458 37.065624 90.86146Q37.565624 90.15833 37.565624 88.04896Q37.565624 85.92396 37.065624 85.23646Q36.58125 84.53333 35.83125 84.53333Q35.1125 84.53333 34.675 85.14271Q34.128124 85.92396 34.128124 88.04896Z" fill-rule="nonzero"/><path fill="#000000" d="M89.624374 349.45L92.92125 340.85626L94.14 340.85626L97.655624 349.45L96.374374 349.45L95.35875 346.84064L91.780624 346.84064L90.8275 349.45L89.624374 349.45ZM92.10875 345.91876L95.015 345.91876L94.124374 343.54376Q93.7025 342.46564 93.515 341.7625Q93.343124 342.59064 93.04625 343.40314L92.10875 345.91876ZM101.499374 347.16876L102.530624 347.3094Q102.35875 348.3719 101.655624 348.98126Q100.9525 349.59064 99.936874 349.59064Q98.655624 349.59064 97.874374 348.7625Q97.10875 347.91876 97.10875 346.35626Q97.10875 345.35626 97.436874 344.60626Q97.780624 343.84064 98.4525 343.46564Q99.14 343.09064 99.9525 343.09064Q100.9525 343.09064 101.593124 343.60626Q102.249374 344.10626 102.436874 345.0594L101.405624 345.21564Q101.265 344.59064 100.89 344.27814Q100.515 343.95 99.98375 343.95Q99.186874 343.95 98.686874 344.52814Q98.186874 345.09064 98.186874 346.325Q98.186874 347.59064 98.67125 348.15314Q99.155624 348.71564 99.92125 348.71564Q100.54625 348.71564 100.9525 348.34064Q101.374374 347.96564 101.499374 347.16876ZM107.499374 347.16876L108.530624 347.3094Q108.35875 348.3719 107.655624 348.98126Q106.9525 349.59064 105.936874 349.59064Q104.655624 349.59064 103.874374 348.7625Q103.10875 347.91876 103.10875 346.35626Q103.10875 345.35626 103.436874 344.60626Q103.780624 343.84064 104.4525 343.46564Q105.14 343.09064 105.9525 343.09064Q106.9525 343.09064 107.593124 343.60626Q108.249374 344.10626 108.436874 345.0594L107.405624 345.21564Q107.265 344.59064 106.89 344.27814Q106.515 343.95 105.98375 343.95Q105.186874 343.95 104.686874 344.52814Q104.186874 345.09064 104.186874 346.325Q104.186874 347.59064 104.67125 348.15314Q105.155624 348.71564 105.92125 348.71564Q106.54625 348.71564 106.9525 348.34064Q107.374374 347.96564 107.499374 347.16876Z" fill-rule="nonzero"/><path fill="#000000" d="M200.30438 349.45L200.30438 340.85626L206.10126 340.85626L206.10126 341.8719L201.445 341.8719L201.445 344.52814L205.47626 344.52814L205.47626 345.54376L201.445 345.54376L201.445 349.45L200.30438 349.45ZM210.78876 349.45L209.74188 349.45L209.74188 342.73126Q209.35126 343.09064 208.72626 343.46564Q208.11688 343.825 207.6325 343.9969L207.6325 342.98126Q208.5075 342.5594 209.16376 341.98126Q209.83563 341.3875 210.11688 340.825L210.78876 340.825L210.78876 349.45Z" fill-rule="nonzero"/><path fill="#000000" d="M304.92188 349.45L304.92188 340.85626L308.17188 340.85626Q309.01562 340.85626 309.46875 340.9344Q310.10938 341.04376 310.53125 341.34064Q310.96875 341.6375 311.21875 342.16876Q311.48438 342.7 311.48438 343.34064Q311.48438 344.4344 310.78125 345.2Q310.09375 345.95 308.26562 345.95L306.0625 345.95L306.0625 349.45L304.92188 349.45ZM306.0625 344.95L308.28125 344.95Q309.39062 344.95 309.84375 344.54376Q310.3125 344.1219 310.3125 343.3719Q310.3125 342.84064 310.03125 342.46564Q309.76562 342.075 309.32812 341.95Q309.03125 341.8719 308.26562 341.8719L306.0625 341.8719L306.0625 344.95ZM312.78125 349.45L312.78125 343.23126L313.73438 343.23126L313.73438 344.16876Q314.09375 343.5125 314.39062 343.3094Q314.70312 343.09064 315.07812 343.09064Q315.60938 343.09064 316.15625 343.41876L315.79688 344.40314Q315.40625 344.16876 315.03125 344.16876Q314.67188 344.16876 314.39062 344.3875Q314.125 344.59064 314.01562 344.96564Q313.82812 345.52814 313.82812 346.1844L313.82812 349.45L312.78125 349.45ZM321.04688 347.45L322.14062 347.575Q321.89062 348.52814 321.1875 349.0594Q320.48438 349.59064 319.40625 349.59064Q318.04688 349.59064 317.23438 348.7469Q316.4375 347.90314 316.4375 346.3875Q316.4375 344.825 317.25 343.96564Q318.0625 343.09064 319.34375 343.09064Q320.59375 343.09064 321.375 343.9344Q322.17188 344.77814 322.17188 346.325Q322.17188 346.41876 322.17188 346.60626L317.53125 346.60626Q317.59375 347.6375 318.10938 348.1844Q318.625 348.71564 319.40625 348.71564Q319.98438 348.71564 320.39062 348.41876Q320.8125 348.10626 321.04688 347.45ZM317.59375 345.7469L321.0625 345.7469Q321.0 344.95 320.67188 344.5594Q320.15625 343.95 319.35938 343.95Q318.625 343.95 318.125 344.4344Q317.64062 344.91876 317.59375 345.7469Z" fill-rule="nonzero"/><path fill="#000000" d="M410.6175 349.45L410.6175 340.85626L414.43 340.85626Q415.58624 340.85626 416.18 341.09064Q416.77374 341.325 417.13312 341.91876Q417.4925 342.4969 417.4925 343.2Q417.4925 344.1219 416.89874 344.7469Q416.305 345.3719 415.07062 345.54376Q415.52374 345.7625 415.75812 345.96564Q416.25812 346.41876 416.69562 347.10626L418.19562 349.45L416.75812 349.45L415.63312 347.66876Q415.13312 346.8875 414.805 346.48126Q414.4925 346.075 414.22687 345.91876Q413.97687 345.7469 413.71124 345.66876Q413.52374 345.6375 413.08624 345.6375L411.75812 345.6375L411.75812 349.45L410.6175 349.45ZM411.75812 344.65314L414.21124 344.65314Q414.97687 344.65314 415.41437 344.4969Q415.8675 344.325 416.08624 343.98126Q416.32062 343.6219 416.32062 343.2Q416.32062 342.59064 415.8675 342.2Q415.43 341.8094 414.47687 341.8094L411.75812 341.8094L411.75812 344.65314ZM423.72687 347.45L424.82062 347.575Q424.57062 348.52814 423.8675 349.0594Q423.16437 349.59064 422.08624 349.59064Q420.72687 349.59064 419.91437 348.7469Q419.1175 347.90314 419.1175 346.3875Q419.1175 344.825 419.93 343.96564Q420.7425 343.09064 422.02374 343.09064Q423.27374 343.09064 424.055 343.9344Q424.85187 344.77814 424.85187 346.325Q424.85187 346.41876 424.85187 346.60626L420.21124 346.60626Q420.27374 347.6375 420.78937 348.1844Q421.305 348.71564 422.08624 348.71564Q422.66437 348.71564 423.07062 348.41876Q423.4925 348.10626 423.72687 347.45ZM420.27374 345.7469L423.7425 345.7469Q423.68 344.95 423.35187 344.5594Q422.83624 343.95 422.03937 343.95Q421.305 343.95 420.805 344.4344Q420.32062 344.91876 420.27374 345.7469ZM430.53937 347.16876L431.57062 347.3094Q431.39874 348.3719 430.69562 348.98126Q429.9925 349.59064 428.97687 349.59064Q427.69562 349.59064 426.91437 348.7625Q426.14874 347.91876 426.14874 346.35626Q426.14874 345.35626 426.47687 344.60626Q426.82062 343.84064 427.4925 343.46564Q428.18 343.09064 428.9925 343.09064Q429.9925 343.09064 430.63312 343.60626Q431.28937 344.10626 431.47687 345.0594L430.44562 345.21564Q430.305 344.59064 429.93 344.27814Q429.555 343.95 429.02374 343.95Q428.22687 343.95 427.72687 344.52814Q427.22687 345.09064 427.22687 346.325Q427.22687 347.59064 427.71124 348.15314Q428.19562 348.71564 428.96124 348.71564Q429.58624 348.71564 429.9925 348.34064Q430.41437 347.96564 430.53937 347.16876Z" fill-rule="nonzero"/><path fill="#000000" d="M517.7975 349.45L517.7975 340.85626L521.61 340.85626Q522.76624 340.85626 523.36 341.09064Q523.95374 341.325 524.3131 341.91876Q524.6725 342.4969 524.6725 343.2Q524.6725 344.1219 524.07874 344.7469Q523.485 345.3719 522.2506 345.54376Q522.70374 345.7625 522.9381 345.96564Q523.4381 346.41876 523.8756 347.10626L525.3756 349.45L523.9381 349.45L522.8131 347.66876Q522.3131 346.8875 521.985 346.48126Q521.6725 346.075 521.40686 345.91876Q521.15686 345.7469 520.89124 345.66876Q520.70374 345.6375 520.26624 345.6375L518.9381 345.6375L518.9381 349.45L517.7975 349.45ZM518.9381 344.65314L521.39124 344.65314Q522.15686 344.65314 522.59436 344.4969Q523.0475 344.325 523.26624 343.98126Q523.5006 343.6219 523.5006 343.2Q523.5006 342.59064 523.0475 342.2Q522.61 341.8094 521.65686 341.8094L518.9381 341.8094L518.9381 344.65314ZM526.26624 346.34064Q526.26624 344.60626 527.21936 343.77814Q528.01624 343.09064 529.1725 343.09064Q530.45374 343.09064 531.26624 343.9344Q532.09436 344.7625 532.09436 346.2469Q532.09436 347.45 531.735 348.1375Q531.3756 348.825 530.6725 349.21564Q529.985 349.59064 529.1725 349.59064Q527.8756 349.59064 527.0631 348.7625Q526.26624 347.91876 526.26624 346.34064ZM527.34436 346.34064Q527.34436 347.52814 527.86 348.1219Q528.39124 348.71564 529.1725 348.71564Q529.96936 348.71564 530.485 348.1219Q531.0006 347.52814 531.0006 346.3094Q531.0006 345.15314 530.46936 344.5594Q529.95374 343.96564 529.1725 343.96564Q528.39124 343.96564 527.86 344.5594Q527.34436 345.1375 527.34436 346.34064ZM537.71936 347.16876L538.7506 347.3094Q538.57874 348.3719 537.8756 348.98126Q537.1725 349.59064 536.15686 349.59064Q534.8756 349.59064 534.09436 348.7625Q533.32874 347.91876 533.32874 346.35626Q533.32874 345.35626 533.65686 344.60626Q534.0006 343.84064 534.6725 343.46564Q535.36 343.09064 536.1725 343.09064Q537.1725 343.09064 537.8131 343.60626Q538.46936 344.10626 538.65686 345.0594L537.6256 345.21564Q537.485 344.59064 537.11 344.27814Q536.735 343.95 536.20374 343.95Q535.40686 343.95 534.90686 344.52814Q534.40686 345.09064 534.40686 346.325Q534.40686 347.59064 534.89124 348.15314Q535.3756 348.71564 536.14124 348.71564Q536.76624 348.71564 537.1725 348.34064Q537.59436 347.96564 537.71936 347.16876Z" fill-rule="nonzero"/><path fill="#4285f4" d="M136.0 55.916668L142.0 61.916668L136.0 67.916664L130.0 61.916668Z" fill-rule="nonzero"/><path fill="#1a1a1a" d="M150.92188 65.916664L150.92188 57.322914L153.89062 57.322914Q154.89062 57.322914 155.42188 57.447914Q156.15625 57.61979 156.67188 58.05729Q157.35938 58.635414 157.6875 59.541664Q158.03125 60.43229 158.03125 61.572914Q158.03125 62.55729 157.79688 63.30729Q157.57812 64.05729 157.21875 64.55729Q156.85938 65.05729 156.42188 65.33854Q156.0 65.61979 155.40625 65.77604Q154.8125 65.916664 154.03125 65.916664L150.92188 65.916664ZM152.0625 64.90104L153.89062 64.90104Q154.75 64.90104 155.23438 64.74479Q155.71875 64.58854 156.0 64.291664Q156.40625 63.90104 156.625 63.21354Q156.85938 62.52604 156.85938 61.55729Q156.85938 60.21354 156.40625 59.49479Q155.96875 58.760414 155.34375 58.510414Q154.875 58.33854 153.875 58.33854L152.0625 58.33854L152.0625 64.90104ZM163.85938 65.15104Q163.26562 65.65104 162.71875 65.854164Q162.1875 66.05729 161.5625 66.05729Q160.53125 66.05729 159.98438 65.55729Q159.4375 65.05729 159.4375 64.27604Q159.4375 63.822914 159.64062 63.447914Q159.84375 63.05729 160.1875 62.83854Q160.53125 62.604164 160.95312 62.49479Q161.25 62.40104 161.89062 62.322914Q163.15625 62.18229 163.76562 61.96354Q163.76562 61.74479 163.76562 61.697914Q163.76562 61.041664 163.46875 60.77604Q163.0625 60.43229 162.26562 60.43229Q161.53125 60.43229 161.17188 60.697914Q160.8125 60.947914 160.64062 61.604164L159.60938 61.46354Q159.75 60.80729 160.07812 60.40104Q160.40625 59.99479 161.01562 59.77604Q161.625 59.55729 162.42188 59.55729Q163.21875 59.55729 163.71875 59.74479Q164.21875 59.93229 164.45312 60.21354Q164.6875 60.49479 164.78125 60.93229Q164.82812 61.197914 164.82812 61.90104L164.82812 63.30729Q164.82812 64.77604 164.89062 65.166664Q164.96875 65.55729 165.17188 65.916664L164.0625 65.916664Q163.90625 65.58854 163.85938 65.15104ZM163.76562 62.791664Q163.1875 63.02604 162.04688 63.197914Q161.39062 63.291664 161.125 63.416664Q160.85938 63.52604 160.70312 63.74479Q160.5625 63.96354 160.5625 64.24479Q160.5625 64.666664 160.875 64.947914Q161.20312 65.229164 161.8125 65.229164Q162.42188 65.229164 162.89062 64.96354Q163.375 64.697914 163.59375 64.229164Q163.76562 63.86979 163.76562 63.18229L163.76562 62.791664ZM169.09375 64.979164L169.25 65.90104Q168.79688 65.99479 168.45312 65.99479Q167.875 65.99479 167.5625 65.822914Q167.25 65.635414 167.10938 65.33854Q166.98438 65.041664 166.98438 64.08854L166.98438 60.510414L166.21875 60.510414L166.21875 59.697914L166.98438 59.697914L166.98438 58.15104L168.03125 57.52604L168.03125 59.697914L169.09375 59.697914L169.09375 60.510414L168.03125 60.510414L168.03125 64.15104Q168.03125 64.604164 168.07812 64.729164Q168.14062 64.854164 168.26562 64.93229Q168.39062 65.010414 168.625 65.010414Q168.8125 65.010414 169.09375 64.979164ZM173.85938 65.15104Q173.26562 65.65104 172.71875 65.854164Q172.1875 66.05729 171.5625 66.05729Q170.53125 66.05729 169.98438 65.55729Q169.4375 65.05729 169.4375 64.27604Q169.4375 63.822914 169.64062 63.447914Q169.84375 63.05729 170.1875 62.83854Q170.53125 62.604164 170.95312 62.49479Q171.25 62.40104 171.89062 62.322914Q173.15625 62.18229 173.76562 61.96354Q173.76562 61.74479 173.76562 61.697914Q173.76562 61.041664 173.46875 60.77604Q173.0625 60.43229 172.26562 60.43229Q171.53125 60.43229 171.17188 60.697914Q170.8125 60.947914 170.64062 61.604164L169.60938 61.46354Q169.75 60.80729 170.07812 60.40104Q170.40625 59.99479 171.01562 59.77604Q171.625 59.55729 172.42188 59.55729Q173.21875 59.55729 173.71875 59.74479Q174.21875 59.93229 174.45312 60.21354Q174.6875 60.49479 174.78125 60.93229Q174.82812 61.197914 174.82812 61.90104L174.82812 63.30729Q174.82812 64.77604 174.89062 65.166664Q174.96875 65.55729 175.17188 65.916664L174.0625 65.916664Q173.90625 65.58854 173.85938 65.15104ZM173.76562 62.791664Q173.1875 63.02604 172.04688 63.197914Q171.39062 63.291664 171.125 63.416664Q170.85938 63.52604 170.70312 63.74479Q170.5625 63.96354 170.5625 64.24479Q170.5625 64.666664 170.875 64.947914Q171.20312 65.229164 171.8125 65.229164Q172.42188 65.229164 172.89062 64.96354Q173.375 64.697914 173.59375 64.229164Q173.76562 63.86979 173.76562 63.18229L173.76562 62.791664ZM176.375 64.05729L177.40625 63.90104Q177.5 64.52604 177.89062 64.854164Q178.29688 65.18229 179.03125 65.18229Q179.75 65.18229 180.09375 64.90104Q180.45312 64.604164 180.45312 64.197914Q180.45312 63.83854 180.14062 63.635414Q179.92188 63.49479 179.0625 63.27604Q177.90625 62.979164 177.45312 62.77604Q177.01562 62.55729 176.78125 62.18229Q176.54688 61.80729 176.54688 61.33854Q176.54688 60.93229 176.73438 60.572914Q176.92188 60.21354 177.25 59.979164Q177.5 59.80729 177.92188 59.68229Q178.34375 59.55729 178.84375 59.55729Q179.5625 59.55729 180.10938 59.77604Q180.67188 59.979164 180.9375 60.33854Q181.20312 60.697914 181.29688 61.291664L180.26562 61.43229Q180.20312 60.96354 179.85938 60.697914Q179.53125 60.416664 178.90625 60.416664Q178.1875 60.416664 177.875 60.666664Q177.5625 60.90104 177.5625 61.229164Q177.5625 61.43229 177.6875 61.58854Q177.82812 61.760414 178.09375 61.86979Q178.25 61.93229 179.03125 62.135414Q180.15625 62.447914 180.59375 62.635414Q181.03125 62.822914 181.28125 63.18229Q181.53125 63.541664 181.53125 64.08854Q181.53125 64.61979 181.21875 65.08854Q180.92188 65.541664 180.34375 65.80729Q179.76562 66.05729 179.03125 66.05729Q177.8125 66.05729 177.17188 65.55729Q176.54688 65.041664 176.375 64.05729ZM188.04688 63.916664L189.14062 64.041664Q188.89062 64.99479 188.1875 65.52604Q187.48438 66.05729 186.40625 66.05729Q185.04688 66.05729 184.23438 65.21354Q183.4375 64.36979 183.4375 62.854164Q183.4375 61.291664 184.25 60.43229Q185.0625 59.55729 186.34375 59.55729Q187.59375 59.55729 188.375 60.40104Q189.17188 61.24479 189.17188 62.791664Q189.17188 62.885414 189.17188 63.072914L184.53125 63.072914Q184.59375 64.104164 185.10938 64.65104Q185.625 65.18229 186.40625 65.18229Q186.98438 65.18229 187.39062 64.885414Q187.8125 64.572914 188.04688 63.916664ZM184.59375 62.21354L188.0625 62.21354Q188.0 61.416664 187.67188 61.02604Q187.15625 60.416664 186.35938 60.416664Q185.625 60.416664 185.125 60.90104Q184.64062 61.385414 184.59375 62.21354ZM193.09375 64.979164L193.25 65.90104Q192.79688 65.99479 192.45312 65.99479Q191.875 65.99479 191.5625 65.822914Q191.25 65.635414 191.10938 65.33854Q190.98438 65.041664 190.98438 64.08854L190.98438 60.510414L190.21875 60.510414L190.21875 59.697914L190.98438 59.697914L190.98438 58.15104L192.03125 57.52604L192.03125 59.697914L193.09375 59.697914L193.09375 60.510414L192.03125 60.510414L192.03125 64.15104Q192.03125 64.604164 192.07812 64.729164Q192.14062 64.854164 192.26562 64.93229Q192.39062 65.010414 192.625 65.010414Q192.8125 65.010414 193.09375 64.979164ZM200.46875 65.916664L199.42188 65.916664L199.42188 59.197914Q199.03125 59.55729 198.40625 59.93229Q197.79688 60.291664 197.3125 60.46354L197.3125 59.447914Q198.1875 59.02604 198.84375 58.447914Q199.51562 57.854164 199.79688 57.291664L200.46875 57.291664L200.46875 65.916664Z" fill-rule="nonzero"/><path fill="#ea4335" d="M225.0 55.916668L231.0 61.916668L225.0 67.916664L219.0 61.916668Z" fill-rule="nonzero"/><path fill="#1a1a1a" d="M239.92188 65.916664L239.92188 57.322914L242.89062 57.322914Q243.89062 57.322914 244.42188 57.447914Q245.15625 57.61979 245.67188 58.05729Q246.35938 58.635414 246.6875 59.541664Q247.03125 60.43229 247.03125 61.572914Q247.03125 62.55729 246.79688 63.30729Q246.57812 64.05729 246.21875 64.55729Q245.85938 65.05729 245.42188 65.33854Q245.0 65.61979 244.40625 65.77604Q243.8125 65.916664 243.03125 65.916664L239.92188 65.916664ZM241.0625 64.90104L242.89062 64.90104Q243.75 64.90104 244.23438 64.74479Q244.71875 64.58854 245.0 64.291664Q245.40625 63.90104 245.625 63.21354Q245.85938 62.52604 245.85938 61.55729Q245.85938 60.21354 245.40625 59.49479Q244.96875 58.760414 244.34375 58.510414Q243.875 58.33854 242.875 58.33854L241.0625 58.33854L241.0625 64.90104ZM252.85938 65.15104Q252.26562 65.65104 251.71875 65.854164Q251.1875 66.05729 250.5625 66.05729Q249.53125 66.05729 248.98438 65.55729Q248.4375 65.05729 248.4375 64.27604Q248.4375 63.822914 248.64062 63.447914Q248.84375 63.05729 249.1875 62.83854Q249.53125 62.604164 249.95312 62.49479Q250.25 62.40104 250.89062 62.322914Q252.15625 62.18229 252.76562 61.96354Q252.76562 61.74479 252.76562 61.697914Q252.76562 61.041664 252.46875 60.77604Q252.0625 60.43229 251.26562 60.43229Q250.53125 60.43229 250.17188 60.697914Q249.8125 60.947914 249.64062 61.604164L248.60938 61.46354Q248.75 60.80729 249.07812 60.40104Q249.40625 59.99479 250.01562 59.77604Q250.625 59.55729 251.42188 59.55729Q252.21875 59.55729 252.71875 59.74479Q253.21875 59.93229 253.45312 60.21354Q253.6875 60.49479 253.78125 60.93229Q253.82812 61.197914 253.82812 61.90104L253.82812 63.30729Q253.82812 64.77604 253.89062 65.166664Q253.96875 65.55729 254.17188 65.916664L253.0625 65.916664Q252.90625 65.58854 252.85938 65.15104ZM252.76562 62.791664Q252.1875 63.02604 251.04688 63.197914Q250.39062 63.291664 250.125 63.416664Q249.85938 63.52604 249.70312 63.74479Q249.5625 63.96354 249.5625 64.24479Q249.5625 64.666664 249.875 64.947914Q250.20312 65.229164 250.8125 65.229164Q251.42188 65.229164 251.89062 64.96354Q252.375 64.697914 252.59375 64.229164Q252.76562 63.86979 252.76562 63.18229L252.76562 62.791664ZM258.09375 64.979164L258.25 65.90104Q257.79688 65.99479 257.45312 65.99479Q256.875 65.99479 256.5625 65.822914Q256.25 65.635414 256.10938 65.33854Q255.98438 65.041664 255.98438 64.08854L255.98438 60.510414L255.21875 60.510414L255.21875 59.697914L255.98438 59.697914L255.98438 58.15104L257.03125 57.52604L257.03125 59.697914L258.09375 59.697914L258.09375 60.510414L257.03125 60.510414L257.03125 64.15104Q257.03125 64.604164 257.07812 64.729164Q257.14062 64.854164 257.26562 64.93229Q257.39062 65.010414 257.625 65.010414Q257.8125 65.010414 258.09375 64.979164ZM262.85938 65.15104Q262.26562 65.65104 261.71875 65.854164Q261.1875 66.05729 260.5625 66.05729Q259.53125 66.05729 258.98438 65.55729Q258.4375 65.05729 258.4375 64.27604Q258.4375 63.822914 258.64062 63.447914Q258.84375 63.05729 259.1875 62.83854Q259.53125 62.604164 259.95312 62.49479Q260.25 62.40104 260.89062 62.322914Q262.15625 62.18229 262.76562 61.96354Q262.76562 61.74479 262.76562 61.697914Q262.76562 61.041664 262.46875 60.77604Q262.0625 60.43229 261.26562 60.43229Q260.53125 60.43229 260.17188 60.697914Q259.8125 60.947914 259.64062 61.604164L258.60938 61.46354Q258.75 60.80729 259.07812 60.40104Q259.40625 59.99479 260.01562 59.77604Q260.625 59.55729 261.42188 59.55729Q262.21875 59.55729 262.71875 59.74479Q263.21875 59.93229 263.45312 60.21354Q263.6875 60.49479 263.78125 60.93229Q263.82812 61.197914 263.82812 61.90104L263.82812 63.30729Q263.82812 64.77604 263.89062 65.166664Q263.96875 65.55729 264.17188 65.916664L263.0625 65.916664Q262.90625 65.58854 262.85938 65.15104ZM262.76562 62.791664Q262.1875 63.02604 261.04688 63.197914Q260.39062 63.291664 260.125 63.416664Q259.85938 63.52604 259.70312 63.74479Q259.5625 63.96354 259.5625 64.24479Q259.5625 64.666664 259.875 64.947914Q260.20312 65.229164 260.8125 65.229164Q261.42188 65.229164 261.89062 64.96354Q262.375 64.697914 262.59375 64.229164Q262.76562 63.86979 262.76562 63.18229L262.76562 62.791664ZM265.375 64.05729L266.40625 63.90104Q266.5 64.52604 266.89062 64.854164Q267.29688 65.18229 268.03125 65.18229Q268.75 65.18229 269.09375 64.90104Q269.45312 64.604164 269.45312 64.197914Q269.45312 63.83854 269.14062 63.635414Q268.92188 63.49479 268.0625 63.27604Q266.90625 62.979164 266.45312 62.77604Q266.01562 62.55729 265.78125 62.18229Q265.54688 61.80729 265.54688 61.33854Q265.54688 60.93229 265.73438 60.572914Q265.92188 60.21354 266.25 59.979164Q266.5 59.80729 266.92188 59.68229Q267.34375 59.55729 267.84375 59.55729Q268.5625 59.55729 269.10938 59.77604Q269.67188 59.979164 269.9375 60.33854Q270.20312 60.697914 270.29688 61.291664L269.26562 61.43229Q269.20312 60.96354 268.85938 60.697914Q268.53125 60.416664 267.90625 60.416664Q267.1875 60.416664 266.875 60.666664Q266.5625 60.90104 266.5625 61.229164Q266.5625 61.43229 266.6875 61.58854Q266.82812 61.760414 267.09375 61.86979Q267.25 61.93229 268.03125 62.135414Q269.15625 62.447914 269.59375 62.635414Q270.03125 62.822914 270.28125 63.18229Q270.53125 63.541664 270.53125 64.08854Q270.53125 64.61979 270.21875 65.08854Q269.92188 65.541664 269.34375 65.80729Q268.76562 66.05729 268.03125 66.05729Q266.8125 66.05729 266.17188 65.55729Q265.54688 65.041664 265.375 64.05729ZM277.04688 63.916664L278.14062 64.041664Q277.89062 64.99479 277.1875 65.52604Q276.48438 66.05729 275.40625 66.05729Q274.04688 66.05729 273.23438 65.21354Q272.4375 64.36979 272.4375 62.854164Q272.4375 61.291664 273.25 60.43229Q274.0625 59.55729 275.34375 59.55729Q276.59375 59.55729 277.375 60.40104Q278.17188 61.24479 278.17188 62.791664Q278.17188 62.885414 278.17188 63.072914L273.53125 63.072914Q273.59375 64.104164 274.10938 64.65104Q274.625 65.18229 275.40625 65.18229Q275.98438 65.18229 276.39062 64.885414Q276.8125 64.572914 277.04688 63.916664ZM273.59375 62.21354L277.0625 62.21354Q277.0 61.416664 276.67188 61.02604Q276.15625 60.416664 275.35938 60.416664Q274.625 60.416664 274.125 60.90104Q273.64062 61.385414 273.59375 62.21354ZM282.09375 64.979164L282.25 65.90104Q281.79688 65.99479 281.45312 65.99479Q280.875 65.99479 280.5625 65.822914Q280.25 65.635414 280.10938 65.33854Q279.98438 65.041664 279.98438 64.08854L279.98438 60.510414L279.21875 60.510414L279.21875 59.697914L279.98438 59.697914L279.98438 58.15104L281.03125 57.52604L281.03125 59.697914L282.09375 59.697914L282.09375 60.510414L281.03125 60.510414L281.03125 64.15104Q281.03125 64.604164 281.07812 64.729164Q281.14062 64.854164 281.26562 64.93229Q281.39062 65.010414 281.625 65.010414Q281.8125 65.010414 282.09375 64.979164ZM291.04688 64.90104L291.04688 65.916664L285.35938 65.916664Q285.35938 65.541664 285.48438 65.18229Q285.70312 64.604164 286.17188 64.041664Q286.65625 63.479164 287.5625 62.74479Q288.96875 61.58854 289.45312 60.916664Q289.95312 60.24479 289.95312 59.65104Q289.95312 59.02604 289.5 58.604164Q289.04688 58.166664 288.32812 58.166664Q287.5625 58.166664 287.10938 58.61979Q286.65625 59.072914 286.64062 59.885414L285.5625 59.77604Q285.67188 58.55729 286.39062 57.93229Q287.125 57.291664 288.35938 57.291664Q289.59375 57.291664 290.3125 57.979164Q291.03125 58.666664 291.03125 59.68229Q291.03125 60.197914 290.8125 60.697914Q290.60938 61.18229 290.10938 61.74479Q289.625 62.291664 288.5 63.24479Q287.54688 64.041664 287.26562 64.33854Q287.0 64.61979 286.82812 64.90104L291.04688 64.90104Z" fill-rule="nonzero"/><path fill="#fbbc04" d="M314.0 55.916668L320.0 61.916668L314.0 67.916664L308.0 61.916668Z" fill-rule="nonzero"/><path fill="#1a1a1a" d="M328.92188 65.916664L328.92188 57.322914L331.89062 57.322914Q332.89062 57.322914 333.42188 57.447914Q334.15625 57.61979 334.67188 58.05729Q335.35938 58.635414 335.6875 59.541664Q336.03125 60.43229 336.03125 61.572914Q336.03125 62.55729 335.79688 63.30729Q335.57812 64.05729 335.21875 64.55729Q334.85938 65.05729 334.42188 65.33854Q334.0 65.61979 333.40625 65.77604Q332.8125 65.916664 332.03125 65.916664L328.92188 65.916664ZM330.0625 64.90104L331.89062 64.90104Q332.75 64.90104 333.23438 64.74479Q333.71875 64.58854 334.0 64.291664Q334.40625 63.90104 334.625 63.21354Q334.85938 62.52604 334.85938 61.55729Q334.85938 60.21354 334.40625 59.49479Q333.96875 58.760414 333.34375 58.510414Q332.875 58.33854 331.875 58.33854L330.0625 58.33854L330.0625 64.90104ZM341.85938 65.15104Q341.26562 65.65104 340.71875 65.854164Q340.1875 66.05729 339.5625 66.05729Q338.53125 66.05729 337.98438 65.55729Q337.4375 65.05729 337.4375 64.27604Q337.4375 63.822914 337.64062 63.447914Q337.84375 63.05729 338.1875 62.83854Q338.53125 62.604164 338.95312 62.49479Q339.25 62.40104 339.89062 62.322914Q341.15625 62.18229 341.76562 61.96354Q341.76562 61.74479 341.76562 61.697914Q341.76562 61.041664 341.46875 60.77604Q341.0625 60.43229 340.26562 60.43229Q339.53125 60.43229 339.17188 60.697914Q338.8125 60.947914 338.64062 61.604164L337.60938 61.46354Q337.75 60.80729 338.07812 60.40104Q338.40625 59.99479 339.01562 59.77604Q339.625 59.55729 340.42188 59.55729Q341.21875 59.55729 341.71875 59.74479Q342.21875 59.93229 342.45312 60.21354Q342.6875 60.49479 342.78125 60.93229Q342.82812 61.197914 342.82812 61.90104L342.82812 63.30729Q342.82812 64.77604 342.89062 65.166664Q342.96875 65.55729 343.17188 65.916664L342.0625 65.916664Q341.90625 65.58854 341.85938 65.15104ZM341.76562 62.791664Q341.1875 63.02604 340.04688 63.197914Q339.39062 63.291664 339.125 63.416664Q338.85938 63.52604 338.70312 63.74479Q338.5625 63.96354 338.5625 64.24479Q338.5625 64.666664 338.875 64.947914Q339.20312 65.229164 339.8125 65.229164Q340.42188 65.229164 340.89062 64.96354Q341.375 64.697914 341.59375 64.229164Q341.76562 63.86979 341.76562 63.18229L341.76562 62.791664ZM347.09375 64.979164L347.25 65.90104Q346.79688 65.99479 346.45312 65.99479Q345.875 65.99479 345.5625 65.822914Q345.25 65.635414 345.10938 65.33854Q344.98438 65.041664 344.98438 64.08854L344.98438 60.510414L344.21875 60.510414L344.21875 59.697914L344.98438 59.697914L344.98438 58.15104L346.03125 57.52604L346.03125 59.697914L347.09375 59.697914L347.09375 60.510414L346.03125 60.510414L346.03125 64.15104Q346.03125 64.604164 346.07812 64.729164Q346.14062 64.854164 346.26562 64.93229Q346.39062 65.010414 346.625 65.010414Q346.8125 65.010414 347.09375 64.979164ZM351.85938 65.15104Q351.26562 65.65104 350.71875 65.854164Q350.1875 66.05729 349.5625 66.05729Q348.53125 66.05729 347.98438 65.55729Q347.4375 65.05729 347.4375 64.27604Q347.4375 63.822914 347.64062 63.447914Q347.84375 63.05729 348.1875 62.83854Q348.53125 62.604164 348.95312 62.49479Q349.25 62.40104 349.89062 62.322914Q351.15625 62.18229 351.76562 61.96354Q351.76562 61.74479 351.76562 61.697914Q351.76562 61.041664 351.46875 60.77604Q351.0625 60.43229 350.26562 60.43229Q349.53125 60.43229 349.17188 60.697914Q348.8125 60.947914 348.64062 61.604164L347.60938 61.46354Q347.75 60.80729 348.07812 60.40104Q348.40625 59.99479 349.01562 59.77604Q349.625 59.55729 350.42188 59.55729Q351.21875 59.55729 351.71875 59.74479Q352.21875 59.93229 352.45312 60.21354Q352.6875 60.49479 352.78125 60.93229Q352.82812 61.197914 352.82812 61.90104L352.82812 63.30729Q352.82812 64.77604 352.89062 65.166664Q352.96875 65.55729 353.17188 65.916664L352.0625 65.916664Q351.90625 65.58854 351.85938 65.15104ZM351.76562 62.791664Q351.1875 63.02604 350.04688 63.197914Q349.39062 63.291664 349.125 63.416664Q348.85938 63.52604 348.70312 63.74479Q348.5625 63.96354 348.5625 64.24479Q348.5625 64.666664 348.875 64.947914Q349.20312 65.229164 349.8125 65.229164Q350.42188 65.229164 350.89062 64.96354Q351.375 64.697914 351.59375 64.229164Q351.76562 63.86979 351.76562 63.18229L351.76562 62.791664ZM354.375 64.05729L355.40625 63.90104Q355.5 64.52604 355.89062 64.854164Q356.29688 65.18229 357.03125 65.18229Q357.75 65.18229 358.09375 64.90104Q358.45312 64.604164 358.45312 64.197914Q358.45312 63.83854 358.14062 63.635414Q357.92188 63.49479 357.0625 63.27604Q355.90625 62.979164 355.45312 62.77604Q355.01562 62.55729 354.78125 62.18229Q354.54688 61.80729 354.54688 61.33854Q354.54688 60.93229 354.73438 60.572914Q354.92188 60.21354 355.25 59.979164Q355.5 59.80729 355.92188 59.68229Q356.34375 59.55729 356.84375 59.55729Q357.5625 59.55729 358.10938 59.77604Q358.67188 59.979164 358.9375 60.33854Q359.20312 60.697914 359.29688 61.291664L358.26562 61.43229Q358.20312 60.96354 357.85938 60.697914Q357.53125 60.416664 356.90625 60.416664Q356.1875 60.416664 355.875 60.666664Q355.5625 60.90104 355.5625 61.229164Q355.5625 61.43229 355.6875 61.58854Q355.82812 61.760414 356.09375 61.86979Q356.25 61.93229 357.03125 62.135414Q358.15625 62.447914 358.59375 62.635414Q359.03125 62.822914 359.28125 63.18229Q359.53125 63.541664 359.53125 64.08854Q359.53125 64.61979 359.21875 65.08854Q358.92188 65.541664 358.34375 65.80729Q357.76562 66.05729 357.03125 66.05729Q355.8125 66.05729 355.17188 65.55729Q354.54688 65.041664 354.375 64.05729ZM366.04688 63.916664L367.14062 64.041664Q366.89062 64.99479 366.1875 65.52604Q365.48438 66.05729 364.40625 66.05729Q363.04688 66.05729 362.23438 65.21354Q361.4375 64.36979 361.4375 62.854164Q361.4375 61.291664 362.25 60.43229Q363.0625 59.55729 364.34375 59.55729Q365.59375 59.55729 366.375 60.40104Q367.17188 61.24479 367.17188 62.791664Q367.17188 62.885414 367.17188 63.072914L362.53125 63.072914Q362.59375 64.104164 363.10938 64.65104Q363.625 65.18229 364.40625 65.18229Q364.98438 65.18229 365.39062 64.885414Q365.8125 64.572914 366.04688 63.916664ZM362.59375 62.21354L366.0625 62.21354Q366.0 61.416664 365.67188 61.02604Q365.15625 60.416664 364.35938 60.416664Q363.625 60.416664 363.125 60.90104Q362.64062 61.385414 362.59375 62.21354ZM371.09375 64.979164L371.25 65.90104Q370.79688 65.99479 370.45312 65.99479Q369.875 65.99479 369.5625 65.822914Q369.25 65.635414 369.10938 65.33854Q368.98438 65.041664 368.98438 64.08854L368.98438 60.510414L368.21875 60.510414L368.21875 59.697914L368.98438 59.697914L368.98438 58.15104L370.03125 57.52604L370.03125 59.697914L371.09375 59.697914L371.09375 60.510414L370.03125 60.510414L370.03125 64.15104Q370.03125 64.604164 370.07812 64.729164Q370.14062 64.854164 370.26562 64.93229Q370.39062 65.010414 370.625 65.010414Q370.8125 65.010414 371.09375 64.979164ZM374.5 63.65104L375.5625 63.510414Q375.73438 64.40104 376.17188 64.80729Q376.60938 65.197914 377.23438 65.197914Q377.98438 65.197914 378.5 64.68229Q379.01562 64.166664 379.01562 63.40104Q379.01562 62.68229 378.53125 62.21354Q378.0625 61.729164 377.32812 61.729164Q377.03125 61.729164 376.57812 61.854164L376.70312 60.916664Q376.8125 60.93229 376.875 60.93229Q377.54688 60.93229 378.07812 60.58854Q378.625 60.229164 378.625 59.49479Q378.625 58.916664 378.23438 58.541664Q377.84375 58.15104 377.21875 58.15104Q376.60938 58.15104 376.1875 58.541664Q375.78125 58.93229 375.67188 59.697914L374.60938 59.510414Q374.79688 58.46354 375.48438 57.885414Q376.17188 57.291664 377.1875 57.291664Q377.89062 57.291664 378.48438 57.604164Q379.07812 57.90104 379.39062 58.416664Q379.70312 58.93229 379.70312 59.52604Q379.70312 60.072914 379.40625 60.541664Q379.10938 60.99479 378.53125 61.260414Q379.28125 61.43229 379.70312 61.99479Q380.125 62.541664 380.125 63.385414Q380.125 64.510414 379.29688 65.291664Q378.48438 66.072914 377.23438 66.072914Q376.10938 66.072914 375.35938 65.40104Q374.60938 64.71354 374.5 63.65104Z" fill-rule="nonzero"/><path fill="#34a853" d="M403.0 55.916668L409.0 61.916668L403.0 67.916664L397.0 61.916668Z" fill-rule="nonzero"/><path fill="#1a1a1a" d="M417.92188 65.916664L417.92188 57.322914L420.89062 57.322914Q421.89062 57.322914 422.42188 57.447914Q423.15625 57.61979 423.67188 58.05729Q424.35938 58.635414 424.6875 59.541664Q425.03125 60.43229 425.03125 61.572914Q425.03125 62.55729 424.79688 63.30729Q424.57812 64.05729 424.21875 64.55729Q423.85938 65.05729 423.42188 65.33854Q423.0 65.61979 422.40625 65.77604Q421.8125 65.916664 421.03125 65.916664L417.92188 65.916664ZM419.0625 64.90104L420.89062 64.90104Q421.75 64.90104 422.23438 64.74479Q422.71875 64.58854 423.0 64.291664Q423.40625 63.90104 423.625 63.21354Q423.85938 62.52604 423.85938 61.55729Q423.85938 60.21354 423.40625 59.49479Q422.96875 58.760414 422.34375 58.510414Q421.875 58.33854 420.875 58.33854L419.0625 58.33854L419.0625 64.90104ZM430.85938 65.15104Q430.26562 65.65104 429.71875 65.854164Q429.1875 66.05729 428.5625 66.05729Q427.53125 66.05729 426.98438 65.55729Q426.4375 65.05729 426.4375 64.27604Q426.4375 63.822914 426.64062 63.447914Q426.84375 63.05729 427.1875 62.83854Q427.53125 62.604164 427.95312 62.49479Q428.25 62.40104 428.89062 62.322914Q430.15625 62.18229 430.76562 61.96354Q430.76562 61.74479 430.76562 61.697914Q430.76562 61.041664 430.46875 60.77604Q430.0625 60.43229 429.26562 60.43229Q428.53125 60.43229 428.17188 60.697914Q427.8125 60.947914 427.64062 61.604164L426.60938 61.46354Q426.75 60.80729 427.07812 60.40104Q427.40625 59.99479 428.01562 59.77604Q428.625 59.55729 429.42188 59.55729Q430.21875 59.55729 430.71875 59.74479Q431.21875 59.93229 431.45312 60.21354Q431.6875 60.49479 431.78125 60.93229Q431.82812 61.197914 431.82812 61.90104L431.82812 63.30729Q431.82812 64.77604 431.89062 65.166664Q431.96875 65.55729 432.17188 65.916664L431.0625 65.916664Q430.90625 65.58854 430.85938 65.15104ZM430.76562 62.791664Q430.1875 63.02604 429.04688 63.197914Q428.39062 63.291664 428.125 63.416664Q427.85938 63.52604 427.70312 63.74479Q427.5625 63.96354 427.5625 64.24479Q427.5625 64.666664 427.875 64.947914Q428.20312 65.229164 428.8125 65.229164Q429.42188 65.229164 429.89062 64.96354Q430.375 64.697914 430.59375 64.229164Q430.76562 63.86979 430.76562 63.18229L430.76562 62.791664ZM436.09375 64.979164L436.25 65.90104Q435.79688 65.99479 435.45312 65.99479Q434.875 65.99479 434.5625 65.822914Q434.25 65.635414 434.10938 65.33854Q433.98438 65.041664 433.98438 64.08854L433.98438 60.510414L433.21875 60.510414L433.21875 59.697914L433.98438 59.697914L433.98438 58.15104L435.03125 57.52604L435.03125 59.697914L436.09375 59.697914L436.09375 60.510414L435.03125 60.510414L435.03125 64.15104Q435.03125 64.604164 435.07812 64.729164Q435.14062 64.854164 435.26562 64.93229Q435.39062 65.010414 435.625 65.010414Q435.8125 65.010414 436.09375 64.979164ZM440.85938 65.15104Q440.26562 65.65104 439.71875 65.854164Q439.1875 66.05729 438.5625 66.05729Q437.53125 66.05729 436.98438 65.55729Q436.4375 65.05729 436.4375 64.27604Q436.4375 63.822914 436.64062 63.447914Q436.84375 63.05729 437.1875 62.83854Q437.53125 62.604164 437.95312 62.49479Q438.25 62.40104 438.89062 62.322914Q440.15625 62.18229 440.76562 61.96354Q440.76562 61.74479 440.76562 61.697914Q440.76562 61.041664 440.46875 60.77604Q440.0625 60.43229 439.26562 60.43229Q438.53125 60.43229 438.17188 60.697914Q437.8125 60.947914 437.64062 61.604164L436.60938 61.46354Q436.75 60.80729 437.07812 60.40104Q437.40625 59.99479 438.01562 59.77604Q438.625 59.55729 439.42188 59.55729Q440.21875 59.55729 440.71875 59.74479Q441.21875 59.93229 441.45312 60.21354Q441.6875 60.49479 441.78125 60.93229Q441.82812 61.197914 441.82812 61.90104L441.82812 63.30729Q441.82812 64.77604 441.89062 65.166664Q441.96875 65.55729 442.17188 65.916664L441.0625 65.916664Q440.90625 65.58854 440.85938 65.15104ZM440.76562 62.791664Q440.1875 63.02604 439.04688 63.197914Q438.39062 63.291664 438.125 63.416664Q437.85938 63.52604 437.70312 63.74479Q437.5625 63.96354 437.5625 64.24479Q437.5625 64.666664 437.875 64.947914Q438.20312 65.229164 438.8125 65.229164Q439.42188 65.229164 439.89062 64.96354Q440.375 64.697914 440.59375 64.229164Q440.76562 63.86979 440.76562 63.18229L440.76562 62.791664ZM443.375 64.05729L444.40625 63.90104Q444.5 64.52604 444.89062 64.854164Q445.29688 65.18229 446.03125 65.18229Q446.75 65.18229 447.09375 64.90104Q447.45312 64.604164 447.45312 64.197914Q447.45312 63.83854 447.14062 63.635414Q446.92188 63.49479 446.0625 63.27604Q444.90625 62.979164 444.45312 62.77604Q444.01562 62.55729 443.78125 62.18229Q443.54688 61.80729 443.54688 61.33854Q443.54688 60.93229 443.73438 60.572914Q443.92188 60.21354 444.25 59.979164Q444.5 59.80729 444.92188 59.68229Q445.34375 59.55729 445.84375 59.55729Q446.5625 59.55729 447.10938 59.77604Q447.67188 59.979164 447.9375 60.33854Q448.20312 60.697914 448.29688 61.291664L447.26562 61.43229Q447.20312 60.96354 446.85938 60.697914Q446.53125 60.416664 445.90625 60.416664Q445.1875 60.416664 444.875 60.666664Q444.5625 60.90104 444.5625 61.229164Q444.5625 61.43229 444.6875 61.58854Q444.82812 61.760414 445.09375 61.86979Q445.25 61.93229 446.03125 62.135414Q447.15625 62.447914 447.59375 62.635414Q448.03125 62.822914 448.28125 63.18229Q448.53125 63.541664 448.53125 64.08854Q448.53125 64.61979 448.21875 65.08854Q447.92188 65.541664 447.34375 65.80729Q446.76562 66.05729 446.03125 66.05729Q444.8125 66.05729 444.17188 65.55729Q443.54688 65.041664 443.375 64.05729ZM455.04688 63.916664L456.14062 64.041664Q455.89062 64.99479 455.1875 65.52604Q454.48438 66.05729 453.40625 66.05729Q452.04688 66.05729 451.23438 65.21354Q450.4375 64.36979 450.4375 62.854164Q450.4375 61.291664 451.25 60.43229Q452.0625 59.55729 453.34375 59.55729Q454.59375 59.55729 455.375 60.40104Q456.17188 61.24479 456.17188 62.791664Q456.17188 62.885414 456.17188 63.072914L451.53125 63.072914Q451.59375 64.104164 452.10938 64.65104Q452.625 65.18229 453.40625 65.18229Q453.98438 65.18229 454.39062 64.885414Q454.8125 64.572914 455.04688 63.916664ZM451.59375 62.21354L455.0625 62.21354Q455.0 61.416664 454.67188 61.02604Q454.15625 60.416664 453.35938 60.416664Q452.625 60.416664 452.125 60.90104Q451.64062 61.385414 451.59375 62.21354ZM460.09375 64.979164L460.25 65.90104Q459.79688 65.99479 459.45312 65.99479Q458.875 65.99479 458.5625 65.822914Q458.25 65.635414 458.10938 65.33854Q457.98438 65.041664 457.98438 64.08854L457.98438 60.510414L457.21875 60.510414L457.21875 59.697914L457.98438 59.697914L457.98438 58.15104L459.03125 57.52604L459.03125 59.697914L460.09375 59.697914L460.09375 60.510414L459.03125 60.510414L459.03125 64.15104Q459.03125 64.604164 459.07812 64.729164Q459.14062 64.854164 459.26562 64.93229Q459.39062 65.010414 459.625 65.010414Q459.8125 65.010414 460.09375 64.979164ZM466.875 65.916664L466.875 63.854164L463.15625 63.854164L463.15625 62.885414L467.07812 57.322914L467.9375 57.322914L467.9375 62.885414L469.09375 62.885414L469.09375 63.854164L467.9375 63.854164L467.9375 65.916664L466.875 65.916664ZM466.875 62.885414L466.875 59.02604L464.1875 62.885414L466.875 62.885414Z" fill-rule="nonzero"/><path fill="#000000" d="M288.57812 37.55L288.57812 23.2375L294.92188 23.2375Q296.82812 23.2375 297.82812 23.628124Q298.82812 24.003124 299.42188 24.9875Q300.01562 25.95625 300.01562 27.14375Q300.01562 28.659374 299.03125 29.70625Q298.04688 30.753124 295.98438 31.034374Q296.73438 31.39375 297.125 31.753124Q297.95312 32.503124 298.70312 33.659374L301.1875 37.55L298.8125 37.55L296.90625 34.565624Q296.07812 33.284374 295.54688 32.596874Q295.01562 31.909374 294.57812 31.64375Q294.15625 31.3625 293.71875 31.253124Q293.39062 31.190624 292.67188 31.190624L290.46875 31.190624L290.46875 37.55L288.57812 37.55ZM290.46875 29.55L294.54688 29.55Q295.84375 29.55 296.5625 29.284374Q297.29688 29.01875 297.67188 28.425Q298.0625 27.83125 298.0625 27.14375Q298.0625 26.128124 297.32812 25.471874Q296.59375 24.815624 295.0 24.815624L290.46875 24.815624L290.46875 29.55ZM302.64062 37.55L302.64062 23.2375L312.29688 23.2375L312.29688 24.925L304.53125 24.925L304.53125 29.3625L311.25 29.3625L311.25 31.05L304.53125 31.05L304.53125 37.55L302.64062 37.55Z" fill-rule="nonzero"/></svg>