<svg version="1.1" viewBox="0.0 0.0 600.0 371.0" fill="none" stroke="none" stroke-linecap="square" stroke-miterlimit="10" width="600" height="371" xmlns:xlink="http://www.w3.org/1999/xlink" xmlns="http://www.w3.org/2000/svg"><path fill="#ffffff" d="M0 0L600.0 0L600.0 371.0L0 371.0L0 0Z" fill-rule="nonzero"/><path stroke="#333333" stroke-width="1.0" stroke-linecap="butt" d="M45.5 332.5L581.5 332.5" fill-rule="nonzero"/><path stroke="#cccccc" stroke-width="1.0" stroke-linecap="butt" d="M45.5 271.5L581.5 271.5" fill-rule="nonzero"/><path stroke="#cccccc" stroke-width="1.0" stroke-linecap="butt" d="M45.5 210.5L581.5 210.5" fill-rule="nonzero"/><path stroke="#cccccc" stroke-width="1.0" stroke-linecap="butt" d="M45.5 149.5L581.5 149.5" fill-rule="nonzero"/><path stroke="#cccccc" stroke-width="1.0" stroke-linecap="butt" d="M45.5 88.5L581.5 88.5" fill-rule="nonzero"/><path stroke="#e6e6e6" stroke-width="1.0" stroke-linecap="butt" d="M45.5 320.5L581.5 320.5" fill-rule="nonzero"/><path stroke="#e6e6e6" stroke-width="1.0" stroke-linecap="butt" d="M45.5 308.5L581.5 308.5" fill-rule="nonzero"/><path stroke="#e6e6e6" stroke-width="1.0" stroke-linecap="butt" d="M45.5 295.5L581.5 295.5" fill-rule="nonzero"/><path stroke="#e6e6e6" stroke-width="1.0" stroke-linecap="butt" d="M45.5 283.5L581.5 283.5" fill-rule="nonzero"/><path stroke="#e6e6e6" stroke-width="1.0" stroke-linecap="butt" d="M45.5 259.5L581.5 259.5" fill-rule="nonzero"/><path stroke="#e6e6e6" stroke-width="1.0" stroke-linecap="butt" d="M45.5 246.5L581.5 246.5" fill-rule="nonzero"/><path stroke="#e6e6e6" stroke-width="1.0" stroke-linecap="butt" d="M45.5 234.5L581.5 234.5" fill-rule="nonzero"/><path stroke="#e6e6e6" stroke-width="1.0" stroke-linecap="butt" d="M45.5 222.5L581.5 222.5" fill-rule="nonzero"/><path stroke="#e6e6e6" stroke-width="1.0" stroke-linecap="butt" d="M45.5 198.5L581.5 198.5" fill-rule="nonzero"/><path stroke="#e6e6e6" stroke-width="1.0" stroke-linecap="butt" d="M45.5 185.5L581.5 185.5" fill-rule="nonzero"/><path stroke="#e6e6e6" stroke-width="1.0" stroke-linecap="butt" d="M45.5 173.5L581.5 173.5" fill-rule="nonzero"/><path stroke="#e6e6e6" stroke-width="1.0" stroke-linecap="butt" d="M45.5 161.5L581.5 161.5" fill-rule="nonzero"/><path stroke="#e6e6e6" stroke-width="1.0" stroke-linecap="butt" d="M45.5 137.5L581.5 137.5" fill-rule="nonzero"/><path stroke="#e6e6e6" stroke-width="1.0" stroke-linecap="butt" d="M45.5 124.5L581.5 124.5" fill-rule="nonzero"/><path stroke="#e6e6e6" stroke-width="1.0" stroke-linecap="butt" d="M45.5 112.5L581.5 112.5" fill-rule="nonzero"/><path stroke="#e6e6e6" stroke-width="1.0" stroke-linecap="butt" d="M45.5 100.5L581.5 100.5" fill-rule="nonzero"/><clipPath id="id_0"><path d="M45.55 88.28333L581.45 88.28333L581.45 332.45L45.55 332.45L45.55 88.28333Z" clip-rule="nonzero"/></clipPath><path stroke="#4285f4" stroke-width="2.0" stroke-linecap="butt" stroke-dasharray="2.0,3.0" clip-path="url(#id_0)" d="M99.14 325.71677L206.32 308.79297L313.5 311.51648L420.68 306.3644L527.86 318.2037" fill-rule="nonzero"/><path stroke="#ea4335" stroke-width="2.0" stroke-linecap="butt" stroke-dasharray="2.0,3.0" clip-path="url(#id_0)" d="M99.14 319.36816L206.32 298.76498L313.5 314.0463L420.68 285.28442L527.86 308.4263" fill-rule="nonzero"/><path stroke="#fbbc04" stroke-width="2.0" stroke-linecap="butt" stroke-dasharray="2.0,3.0" clip-path="url(#id_0)" d="M99.14 322.41223L206.32 301.29614L313.5 314.45236L420.68 289.74707L527.86 310.40198" fill-rule="nonzero"/><path stroke="#34a853" stroke-width="2.0" stroke-linecap="butt" stroke-dasharray="2.0,3.0" clip-path="url(#id_0)" d="M99.14 324.29614L206.32 307.31598L313.5 312.1997L420.68 303.08334L527.86 316.66187" fill-rule="nonzero"/><path fill="#4285f4" clip-path="url(#id_0)" d="M99.14 319.71677L105.14 325.71677L99.14 331.71677L93.14 325.71677Z" fill-rule="nonzero"/><path fill="#4285f4" clip-path="url(#id_0)" d="M206.32 302.79297L212.32 308.79297L206.32 314.79297L200.32 308.79297Z" fill-rule="nonzero"/><path fill="#4285f4" clip-path="url(#id_0)" d="M313.5 305.51648L319.5 311.51648L313.5 317.51648L307.5 311.51648Z" fill-rule="nonzero"/><path fill="#4285f4" clip-path="url(#id_0)" d="M420.68 300.3644L426.68 306.3644L420.68 312.3644L414.68 306.3644Z" fill-rule="nonzero"/><path fill="#4285f4" clip-path="url(#id_0)" d="M527.86 312.2037L533.86 318.2037L527.86 324.2037L521.86 318.2037Z" fill-rule="nonzero"/><path fill="#ea4335" clip-path="url(#id_0)" d="M99.14 313.36816L105.14 319.36816L99.14 325.36816L93.14 319.36816Z" fill-rule="nonzero"/><path fill="#ea4335" clip-path="url(#id_0)" d="M206.32 292.76498L212.32 298.76498L206.32 304.76498L200.32 298.76498Z" fill-rule="nonzero"/><path fill="#ea4335" clip-path="url(#id_0)" d="M313.5 308.0463L319.5 314.0463L313.5 320.0463L307.5 314.0463Z" fill-rule="nonzero"/><path fill="#ea4335" clip-path="url(#id_0)" d="M420.68 279.28442L426.68 285.28442L420.68 291.28442L414.68 285.28442Z" fill-rule="nonzero"/><path fill="#ea4335" clip-path="url(#id_0)" d="M527.86 302.4263L533.86 308.4263L527.86 314.4263L521.86 308.4263Z" fill-rule="nonzero"/><path fill="#fbbc04" clip-path="url(#id_0)" d="M99.14 316.41223L105.14 322.41223L99.14 328.41223L93.14 322.41223Z" fill-rule="nonzero"/><path fill="#fbbc04" clip-path="url(#id_0)" d="M206.32 295.29614L212.32 301.29614L206.32 307.29614L200.32 301.29614Z" fill-rule="nonzero"/><path fill="#fbbc04" clip-path="url(#id_0)" d="M313.5 308.45236L319.5 314.45236L313.5 320.45236L307.5 314.45236Z" fill-rule="nonzero"/><path fill="#fbbc04" clip-path="url(#id_0)" d="M420.68 283.74707L426.68 289.74707L420.68 295.74707L414.68 289.74707Z" fill-rule="nonzero"/><path fill="#fbbc04" clip-path="url(#id_0)" d="M527.86 304.40198L533.86 310.40198L527.86 316.40198L521.86 310.40198Z" fill-rule="nonzero"/><path fill="#34a853" clip-path="url(#id_0)" d="M99.14 318.29614L105.14 324.29614L99.14 330.29614L93.14 324.29614Z" fill-rule="nonzero"/><path fill="#34a853" clip-path="url(#id_0)" d="M206.32 301.31598L212.32 307.31598L206.32 313.31598L200.32 307.31598Z" fill-rule="nonzero"/><path fill="#34a853" clip-path="url(#id_0)" d="M313.5 306.1997L319.5 312.1997L313.5 318.1997L307.5 312.1997Z" fill-rule="nonzero"/><path fill="#34a853" clip-path="url(#id_0)" d="M420.68 297.08334L426.68 303.08334L420.68 309.08334L414.68 303.08334Z" fill-rule="nonzero"/><path fill="#34a853" clip-path="url(#id_0)" d="M527.86 310.66187L533.86 316.66187L527.86 322.66187L521.86 316.66187Z" fill-rule="nonzero"/><path fill="#000000" d="M33.05 332.21564Q33.05 330.6844 33.3625 329.7625Q33.675 328.825 34.284374 328.325Q34.909374 327.825 35.846874 327.825Q36.534374 327.825 37.05 328.10626Q37.58125 328.3875 37.925 328.91876Q38.26875 329.4344 38.45625 330.1844Q38.64375 330.9344 38.64375 332.21564Q38.64375 333.73126 38.33125 334.65314Q38.034374 335.575 37.409374 336.09064Q36.8 336.59064 35.846874 336.59064Q34.6125 336.59064 33.89375 335.7Q33.05 334.6375 33.05 332.21564ZM34.128124 332.21564Q34.128124 334.325 34.628124 335.02814Q35.128124 335.73126 35.846874 335.73126Q36.58125 335.73126 37.065624 335.02814Q37.565624 334.325 37.565624 332.21564Q37.565624 330.09064 37.065624 329.40314Q36.58125 328.7 35.83125 328.7Q35.1125 328.7 34.675 329.3094Q34.128124 330.09064 34.128124 332.21564Z" fill-rule="nonzero"/><path fill="#000000" d="M33.05 273.15833L34.159374 273.06458Q34.284374 273.87708 34.721874 274.28333Q35.175 274.68958 35.815624 274.68958Q36.565624 274.68958 37.096874 274.11145Q37.628124 273.53333 37.628124 272.59583Q37.628124 271.68958 37.1125 271.17395Q36.6125 270.6427 35.784374 270.6427Q35.284374 270.6427 34.8625 270.87708Q34.45625 271.11145 34.221874 271.47083L33.2375 271.34583L34.065624 266.93958L38.346874 266.93958L38.346874 267.93958L34.909374 267.93958L34.45625 270.25208Q35.221874 269.7052 36.065624 269.7052Q37.190624 269.7052 37.95625 270.48645Q38.7375 271.2677 38.7375 272.50208Q38.7375 273.65833 38.065624 274.5177Q37.2375 275.54895 35.815624 275.54895Q34.64375 275.54895 33.89375 274.8927Q33.159374 274.23645 33.05 273.15833Z" fill-rule="nonzero"/><path fill="#000000" d="M30.01875 214.36667L28.971874 214.36667L28.971874 207.64792Q28.58125 208.0073 27.95625 208.3823Q27.346874 208.74167 26.8625 208.91354L26.8625 207.89792Q27.7375 207.47604 28.39375 206.89792Q29.065624 206.30417 29.346874 205.74167L30.01875 205.74167L30.01875 214.36667ZM33.05 210.1323Q33.05 208.60104 33.3625 207.67917Q33.675 206.74167 34.284374 206.24167Q34.909374 205.74167 35.846874 205.74167Q36.534374 205.74167 37.05 206.02292Q37.58125 206.30417 37.925 206.83542Q38.26875 207.35104 38.45625 208.10104Q38.64375 208.85104 38.64375 210.1323Q38.64375 211.64792 38.33125 212.5698Q38.034374 213.49167 37.409374 214.0073Q36.8 214.5073 35.846874 214.5073Q34.6125 214.5073 33.89375 213.61667Q33.05 212.55417 33.05 210.1323ZM34.128124 210.1323Q34.128124 212.24167 34.628124 212.9448Q35.128124 213.64792 35.846874 213.64792Q36.58125 213.64792 37.065624 212.9448Q37.565624 212.24167 37.565624 210.1323Q37.565624 208.0073 37.065624 207.3198Q36.58125 206.61667 35.83125 206.61667Q35.1125 206.61667 34.675 207.22604Q34.128124 208.0073 34.128124 210.1323Z" fill-rule="nonzero"/><path fill="#000000" d="M30.01875 153.325L28.971874 153.325L28.971874 146.60625Q28.58125 146.96562 27.95625 147.34062Q27.346874 147.7 26.8625 147.87187L26.8625 146.85625Q27.7375 146.43437 28.39375 145.85625Q29.065624 145.2625 29.346874 144.7L30.01875 144.7L30.01875 153.325ZM33.05 151.075L34.159374 150.98125Q34.284374 151.79375 34.721874 152.2Q35.175 152.60625 35.815624 152.60625Q36.565624 152.60625 37.096874 152.02812Q37.628124 151.45 37.628124 150.5125Q37.628124 149.60625 37.1125 149.09062Q36.6125 148.55937 35.784374 148.55937Q35.284374 148.55937 34.8625 148.79375Q34.45625 149.02812 34.221874 149.3875L33.2375 149.2625L34.065624 144.85625L38.346874 144.85625L38.346874 145.85625L34.909374 145.85625L34.45625 148.16875Q35.221874 147.62187 36.065624 147.62187Q37.190624 147.62187 37.95625 148.40312Q38.7375 149.18437 38.7375 150.41875Q38.7375 151.575 38.065624 152.43437Q37.2375 153.46562 35.815624 153.46562Q34.64375 153.46562 33.89375 152.80937Q33.159374 152.15312 33.05 151.075Z" fill-rule="nonzero"/><path fill="#000000" d="M31.596874 91.26771L31.596874 92.28333L25.909374 92.28333Q25.909374 91.90833 26.034374 91.54896Q26.253124 90.97083 26.721874 90.40833Q27.20625 89.84583 28.1125 89.11146Q29.51875 87.95521 30.003124 87.28333Q30.503124 86.61146 30.503124 86.01771Q30.503124 85.39271 30.05 84.97083Q29.596874 84.53333 28.878124 84.53333Q28.1125 84.53333 27.659374 84.98646Q27.20625 85.43958 27.190624 86.25208L26.1125 86.14271Q26.221874 84.92396 26.940624 84.29896Q27.675 83.65833 28.909374 83.65833Q30.14375 83.65833 30.8625 84.34583Q31.58125 85.03333 31.58125 86.04896Q31.58125 86.56458 31.3625 87.06458Q31.159374 87.54896 30.659374 88.11146Q30.175 88.65833 29.05 89.61146Q28.096874 90.40833 27.815624 90.70521Q27.55 90.98646 27.378124 91.26771L31.596874 91.26771ZM33.05 88.04896Q33.05 86.51771 33.3625 85.59583Q33.675 84.65833 34.284374 84.15833Q34.909374 83.65833 35.846874 83.65833Q36.534374 83.65833 37.05 83.93958Q37.58125 84.22083 37.925 84.75208Q38.26875 85.26771 38.45625 86.01771Q38.64375 86.76771 38.64375 88.04896Q38.64375 89.56458 38.33125 90.48646Q38.034374 91.40833 37.409374 91.92396Q36.8 92.42396 35.846874 92.42396Q34.6125 92.42396 33.89375 91.53333Q33.05 90.47083 33.05 88.04896ZM34.128124 88.04896Q34.128124 90.15833 34.628124 90.86146Q35.128124 91.56458 35.846874 91.56458Q36.58125 91.56458 37.065624 90.86146Q37.565624 90.15833 37.565624 88.04896Q37.565624 85.92396 37.065624 85.23646Q36.58125 84.53333 35.83125 84.53333Q35.1125 84.53333 34.675 85.14271Q34.128124 85.92396 34.128124 88.04896Z" fill-rule="nonzero"/><path fill="#000000" d="M89.624374 349.45L92.92125 340.85626L94.14 340.85626L97.655624 349.45L96.374374 349.45L95.35875 346.84064L91.780624 346.84064L90.8275 349.45L89.624374 349.45ZM92.10875 345.91876L95.015 345.91876L94.124374 343.54376Q93.7025 342.46564 93.515 341.7625Q93.343124 342.59064 93.04625 343.40314L92.10875 345.91876ZM101.499374 347.16876L102.530624 347.3094Q102.35875 348.3719 101.655624 348.98126Q100.9525 349.59064 99.936874 349.59064Q98.655624 349.59064 97.874374 348.7625Q97.10875 347.91876 97.10875 346.35626Q97.10875 345.35626 97.436874 344.60626Q97.780624 343.84064 98.4525 343.46564Q99.14 343.09064 99.9525 343.09064Q100.9525 343.09064 101.593124 343.60626Q102.249374 344.10626 102.436874 345.0594L101.405624 345.21564Q101.265 344.59064 100.89 344.27814Q100.515 343.95 99.98375 343.95Q99.186874 343.95 98.686874 344.52814Q98.186874 345.09064 98.186874 346.325Q98.186874 347.59064 98.67125 348.15314Q99.155624 348.71564 99.92125 348.71564Q100.54625 348.71564 100.9525 348.34064Q101.374374 347.96564 101.499374 347.16876ZM107.499374 347.16876L108.530624 347.3094Q108.35875 348.3719 107.655624 348.98126Q106.9525 349.59064 105.936874 349.59064Q104.655624 349.59064 103.874374 348.7625Q103.10875 347.91876 103.10875 346.35626Q103.10875 345.35626 103.436874 344.60626Q103.780624 343.84064 104.4525 343.46564Q105.14 343.09064 105.9525 343.09064Q106.9525 343.09064 107.593124 343.60626Q108.249374 344.10626 108.436874 345.0594L107.405624 345.21564Q107.265 344.59064 106.89 344.27814Q106.515 343.95 105.98375 343.95Q105.186874 343.95 104.686874 344.52814Q104.186874 345.09064 104.186874 346.325Q104.186874 347.59064 104.67125 348.15314Q105.155624 348.71564 105.92125 348.71564Q106.54625 348.71564 106.9525 348.34064Q107.374374 347.96564 107.499374 347.16876Z" fill-rule="nonzero"/><path fill="#000000" d="M200.30438 349.45L200.30438 340.85626L206.10126 340.85626L206.10126 341.8719L201.445 341.8719L201.445 344.52814L205.47626 344.52814L205.47626 345.54376L201.445 345.54376L201.445 349.45L200.30438 349.45ZM210.78876 349.45L209.74188 349.45L209.74188 342.73126Q209.35126 343.09064 208.72626 343.46564Q208.11688 343.825 207.6325 343.9969L207.6325 342.98126Q208.5075 342.5594 209.16376 341.98126Q209.83563 341.3875 210.11688 340.825L210.78876 340.825L210.78876 349.45Z" fill-rule="nonzero"/><path fill="#000000" d="M304.92188 349.45L304.92188 340.85626L308.17188 340.85626Q309.01562 340.85626 309.46875 340.9344Q310.10938 341.04376 310.53125 341.34064Q310.96875 341.6375 311.21875 342.16876Q311.48438 342.7 311.48438 343.34064Q311.48438 344.4344 310.78125 345.2Q310.09375 345.95 308.26562 345.95L306.0625 345.95L306.0625 349.45L304.92188 349.45ZM306.0625 344.95L308.28125 344.95Q309.39062 344.95 309.84375 344.54376Q310.3125 344.1219 310.3125 343.3719Q310.3125 342.84064 310.03125 342.46564Q309.76562 342.075 309.32812 341.95Q309.03125 341.8719 308.26562 341.8719L306.0625 341.8719L306.0625 344.95ZM312.78125 349.45L312.78125 343.23126L313.73438 343.23126L313.73438 344.16876Q314.09375 343.5125 314.39062 343.3094Q314.70312 343.09064 315.07812 343.09064Q315.60938 343.09064 316.15625 343.41876L315.79688 344.40314Q315.40625 344.16876 315.03125 344.16876Q314.67188 344.16876 314.39062 344.3875Q314.125 344.59064 314.01562 344.96564Q313.82812 345.52814 313.82812 346.1844L313.82812 349.45L312.78125 349.45ZM321.04688 347.45L322.14062 347.575Q321.89062 348.52814 321.1875 349.0594Q320.48438 349.59064 319.40625 349.59064Q318.04688 349.59064 317.23438 348.7469Q316.4375 347.90314 316.4375 346.3875Q316.4375 344.825 317.25 343.96564Q318.0625 343.09064 319.34375 343.09064Q320.59375 343.09064 321.375 343.9344Q322.17188 344.77814 322.17188 346.325Q322.17188 346.41876 322.17188 346.60626L317.53125 346.60626Q317.59375 347.6375 318.10938 348.1844Q318.625 348.71564 319.40625 348.71564Q319.98438 348.71564 320.39062 348.41876Q320.8125 348.10626 321.04688 347.45ZM317.59375 345.7469L321.0625 345.7469Q321.0 344.95 320.67188 344.5594Q320.15625 343.95 319.35938 343.95Q318.625 343.95 318.125 344.4344Q317.64062 344.91876 317.59375 345.7469Z" fill-rule="nonzero"/><path fill="#000000" d="M410.6175 349.45L410.6175 340.85626L414.43 340.85626Q415.58624 340.85626 416.18 341.09064Q416.77374 341.325 417.13312 341.91876Q417.4925 342.4969 417.4925 343.2Q417.4925 344.1219 416.89874 344.7469Q416.305 345.3719 415.07062 345.54376Q415.52374 345.7625 415.75812 345.96564Q416.25812 346.41876 416.69562 347.10626L418.19562 349.45L416.75812 349.45L415.63312 347.66876Q415.13312 346.8875 414.805 346.48126Q414.4925 346.075 414.22687 345.91876Q413.97687 345.7469 413.71124 345.66876Q413.52374 345.6375 413.08624 345.6375L411.75812 345.6375L411.75812 349.45L410.6175 349.45ZM411.75812 344.65314L414.21124 344.65314Q414.97687 344.65314 415.41437 344.4969Q415.8675 344.325 416.08624 343.98126Q416.32062 343.6219 416.32062 343.2Q416.32062 342.59064 415.8675 342.2Q415.43 341.8094 414.47687 341.8094L411.75812 341.8094L411.75812 344.65314ZM423.72687 347.45L424.82062 347.575Q424.57062 348.52814 423.8675 349.0594Q423.16437 349.59064 422.08624 349.59064Q420.72687 349.59064 419.91437 348.7469Q419.1175 347.90314 419.1175 346.3875Q419.1175 344.825 419.93 343.96564Q420.7425 343.09064 422.02374 343.09064Q423.27374 343.09064 424.055 343.9344Q424.85187 344.77814 424.85187 346.325Q424.85187 346.41876 424.85187 346.60626L420.21124 346.60626Q420.27374 347.6375 420.78937 348.1844Q421.305 348.71564 422.08624 348.71564Q422.66437 348.71564 423.07062 348.41876Q423.4925 348.10626 423.72687 347.45ZM420.27374 345.7469L423.7425 345.7469Q423.68 344.95 423.35187 344.5594Q422.83624 343.95 422.03937 343.95Q421.305 343.95 420.805 344.4344Q420.32062 344.91876 420.27374 345.7469ZM430.53937 347.16876L431.57062 347.3094Q431.39874 348.3719 430.69562 348.98126Q429.9925 349.59064 428.97687 349.59064Q427.69562 349.59064 426.91437 348.7625Q426.14874 347.91876 426.14874 346.35626Q426.14874 345.35626 426.47687 344.60626Q426.82062 343.84064 427.4925 343.46564Q428.18 343.09064 428.9925 343.09064Q429.9925 343.09064 430.63312 343.60626Q431.28937 344.10626 431.47687 345.0594L430.44562 345.21564Q430.305 344.59064 429.93 344.27814Q429.555 343.95 429.02374 343.95Q428.22687 343.95 427.72687 344.52814Q427.22687 345.09064 427.22687 346.325Q427.22687 347.59064 427.71124 348.15314Q428.19562 348.71564 428.96124 348.71564Q429.58624 348.71564 429.9925 348.34064Q430.41437 347.96564 430.53937 347.16876Z" fill-rule="nonzero"/><path fill="#000000" d="M517.7975 349.45L517.7975 340.85626L521.61 340.85626Q522.76624 340.85626 523.36 341.09064Q523.95374 341.325 524.3131 341.91876Q524.6725 342.4969 524.6725 343.2Q524.6725 344.1219 524.07874 344.7469Q523.485 345.3719 522.2506 345.54376Q522.70374 345.7625 522.9381 345.96564Q523.4381 346.41876 523.8756 347.10626L525.3756 349.45L523.9381 349.45L522.8131 347.66876Q522.3131 346.8875 521.985 346.48126Q521.6725 346.075 521.40686 345.91876Q521.15686 345.7469 520.89124 345.66876Q520.70374 345.6375 520.26624 345.6375L518.9381 345.6375L518.9381 349.45L517.7975 349.45ZM518.9381 344.65314L521.39124 344.65314Q522.15686 344.65314 522.59436 344.4969Q523.0475 344.325 523.26624 343.98126Q523.5006 343.6219 523.5006 343.2Q523.5006 342.59064 523.0475 342.2Q522.61 341.8094 521.65686 341.8094L518.9381 341.8094L518.9381 344.65314ZM526.26624 346.34064Q526.26624 344.60626 527.21936 343.77814Q528.01624 343.09064 529.1725 343.09064Q530.45374 343.09064 531.26624 343.9344Q532.09436 344.7625 532.09436 346.2469Q532.09436 347.45 531.735 348.1375Q531.3756 348.825 530.6725 349.21564Q529.985 349.59064 529.1725 349.59064Q527.8756 349.59064 527.0631 348.7625Q526.26624 347.91876 526.26624 346.34064ZM527.34436 346.34064Q527.34436 347.52814 527.86 348.1219Q528.39124 348.71564 529.1725 348.71564Q529.96936 348.71564 530.485 348.1219Q531.0006 347.52814 531.0006 346.3094Q531.0006 345.15314 530.46936 344.5594Q529.95374 343.96564 529.1725 343.96564Q528.39124 343.96564 527.86 344.5594Q527.34436 345.1375 527.34436 346.34064ZM537.71936 347.16876L538.7506 347.3094Q538.57874 348.3719 537.8756 348.98126Q537.1725 349.59064 536.15686 349.59064Q534.8756 349.59064 534.09436 348.7625Q533.32874 347.91876 533.32874 346.35626Q533.32874 345.35626 533.65686 344.60626Q534.0006 343.84064 534.6725 343.46564Q535.36 343.09064 536.1725 343.09064Q537.1725 343.09064 537.8131 343.60626Q538.46936 344.10626 538.65686 345.0594L537.6256 345.21564Q537.485 344.59064 537.11 344.27814Q536.735 343.95 536.20374 343.95Q535.40686 343.95 534.90686 344.52814Q534.40686 345.09064 534.40686 346.325Q534.40686 347.59064 534.89124 348.15314Q535.3756 348.71564 536.14124 348.71564Q536.76624 348.71564 537.1725 348.34064Q537.59436 347.96564 537.71936 347.16876Z" fill-rule="nonzero"/><path fill="#4285f4" d="M134.0 55.916668L140.0 61.916668L134.0 67.916664L128.0 61.916668Z" fill-rule="nonzero"/><path fill="#1a1a1a" d="M148.875 57.322914L152.03125 57.322914Q153.10938 57.322914 153.67188 57.49479Q154.42188 57.71354 154.95312 58.291664Q155.5 58.854164 155.78125 59.68229Q156.0625 60.49479 156.0625 61.697914Q156.0625 62.760414 155.8125 63.52604Q155.48438 64.46354 154.89062 65.041664Q154.4375 65.49479 153.67188 65.729164Q153.09375 65.916664 152.125 65.916664L148.875 65.916664L148.875 57.322914ZM150.60938 58.77604L150.60938 64.46354L151.89062 64.46354Q152.625 64.46354 152.95312 64.385414Q153.375 64.27604 153.64062 64.02604Q153.92188 63.77604 154.09375 63.197914Q154.28125 62.61979 154.28125 61.61979Q154.28125 60.635414 154.09375 60.104164Q153.92188 59.55729 153.60938 59.260414Q153.29688 58.96354 152.8125 58.854164Q152.4375 58.77604 151.375 58.77604L150.60938 58.77604ZM158.09375 61.58854L156.59375 61.322914Q156.84375 60.416664 157.45312 59.99479Q158.07812 59.55729 159.29688 59.55729Q160.39062 59.55729 160.92188 59.822914Q161.46875 60.072914 161.6875 60.479164Q161.90625 60.86979 161.90625 61.947914L161.89062 63.86979Q161.89062 64.697914 161.96875 65.08854Q162.04688 65.46354 162.26562 65.916664L160.64062 65.916664Q160.57812 65.74479 160.48438 65.43229Q160.4375 65.27604 160.42188 65.229164Q160.0 65.65104 159.51562 65.854164Q159.04688 66.05729 158.5 66.05729Q157.53125 66.05729 156.96875 65.541664Q156.42188 65.010414 156.42188 64.21354Q156.42188 63.68229 156.67188 63.27604Q156.9375 62.86979 157.39062 62.65104Q157.84375 62.416664 158.70312 62.260414Q159.84375 62.041664 160.29688 61.854164L160.29688 61.697914Q160.29688 61.21354 160.0625 61.010414Q159.82812 60.80729 159.17188 60.80729Q158.73438 60.80729 158.48438 60.979164Q158.25 61.15104 158.09375 61.58854ZM160.29688 62.93229Q159.98438 63.02604 159.29688 63.18229Q158.60938 63.322914 158.39062 63.46354Q158.07812 63.697914 158.07812 64.041664Q158.07812 64.385414 158.32812 64.65104Q158.59375 64.90104 158.98438 64.90104Q159.4375 64.90104 159.84375 64.604164Q160.14062 64.385414 160.23438 64.05729Q160.29688 63.854164 160.29688 63.260414L160.29688 62.93229ZM166.71875 59.697914L166.71875 61.010414L165.59375 61.010414L165.59375 63.510414Q165.59375 64.27604 165.625 64.40104Q165.65625 64.52604 165.76562 64.61979Q165.89062 64.697914 166.04688 64.697914Q166.28125 64.697914 166.70312 64.52604L166.84375 65.80729Q166.28125 66.05729 165.54688 66.05729Q165.10938 66.05729 164.75 65.916664Q164.39062 65.760414 164.21875 65.52604Q164.0625 65.27604 163.98438 64.885414Q163.9375 64.58854 163.9375 63.71354L163.9375 61.010414L163.1875 61.010414L163.1875 59.697914L163.9375 59.697914L163.9375 58.46354L165.59375 57.49479L165.59375 59.697914L166.71875 59.697914ZM169.09375 61.58854L167.59375 61.322914Q167.84375 60.416664 168.45312 59.99479Q169.07812 59.55729 170.29688 59.55729Q171.39062 59.55729 171.92188 59.822914Q172.46875 60.072914 172.6875 60.479164Q172.90625 60.86979 172.90625 61.947914L172.89062 63.86979Q172.89062 64.697914 172.96875 65.08854Q173.04688 65.46354 173.26562 65.916664L171.64062 65.916664Q171.57812 65.74479 171.48438 65.43229Q171.4375 65.27604 171.42188 65.229164Q171.0 65.65104 170.51562 65.854164Q170.04688 66.05729 169.5 66.05729Q168.53125 66.05729 167.96875 65.541664Q167.42188 65.010414 167.42188 64.21354Q167.42188 63.68229 167.67188 63.27604Q167.9375 62.86979 168.39062 62.65104Q168.84375 62.416664 169.70312 62.260414Q170.84375 62.041664 171.29688 61.854164L171.29688 61.697914Q171.29688 61.21354 171.0625 61.010414Q170.82812 60.80729 170.17188 60.80729Q169.73438 60.80729 169.48438 60.979164Q169.25 61.15104 169.09375 61.58854ZM171.29688 62.93229Q170.98438 63.02604 170.29688 63.18229Q169.60938 63.322914 169.39062 63.46354Q169.07812 63.697914 169.07812 64.041664Q169.07812 64.385414 169.32812 64.65104Q169.59375 64.90104 169.98438 64.90104Q170.4375 64.90104 170.84375 64.604164Q171.14062 64.385414 171.23438 64.05729Q171.29688 63.854164 171.29688 63.260414L171.29688 62.93229ZM174.28125 64.135414L175.9375 63.885414Q176.04688 64.36979 176.35938 64.61979Q176.6875 64.86979 177.26562 64.86979Q177.90625 64.86979 178.21875 64.635414Q178.4375 64.46354 178.4375 64.197914Q178.4375 64.010414 178.32812 63.885414Q178.20312 63.760414 177.78125 63.666664Q175.78125 63.229164 175.25 62.86979Q174.51562 62.354164 174.51562 61.46354Q174.51562 60.65104 175.14062 60.104164Q175.78125 59.55729 177.125 59.55729Q178.40625 59.55729 179.03125 59.979164Q179.65625 60.385414 179.89062 61.197914L178.32812 61.479164Q178.23438 61.11979 177.95312 60.93229Q177.67188 60.729164 177.15625 60.729164Q176.51562 60.729164 176.23438 60.916664Q176.04688 61.041664 176.04688 61.24479Q176.04688 61.43229 176.20312 61.55729Q176.42188 61.71354 177.73438 62.010414Q179.0625 62.30729 179.57812 62.74479Q180.09375 63.18229 180.09375 63.96354Q180.09375 64.822914 179.375 65.447914Q178.67188 66.05729 177.26562 66.05729Q176.0 66.05729 175.25 65.541664Q174.51562 65.02604 174.28125 64.135414ZM185.46875 63.93229L187.10938 64.21354Q186.79688 65.11979 186.10938 65.58854Q185.42188 66.05729 184.40625 66.05729Q182.78125 66.05729 182.0 64.99479Q181.375 64.15104 181.375 62.854164Q181.375 61.30729 182.1875 60.43229Q183.0 59.55729 184.23438 59.55729Q185.625 59.55729 186.42188 60.479164Q187.23438 61.385414 187.1875 63.27604L183.0625 63.27604Q183.09375 64.010414 183.46875 64.416664Q183.84375 64.822914 184.42188 64.822914Q184.79688 64.822914 185.0625 64.61979Q185.32812 64.40104 185.46875 63.93229ZM185.5625 62.27604Q185.54688 61.55729 185.1875 61.18229Q184.84375 60.80729 184.32812 60.80729Q183.79688 60.80729 183.4375 61.197914Q183.09375 61.604164 183.09375 62.27604L185.5625 62.27604ZM191.71875 59.697914L191.71875 61.010414L190.59375 61.010414L190.59375 63.510414Q190.59375 64.27604 190.625 64.40104Q190.65625 64.52604 190.76562 64.61979Q190.89062 64.697914 191.04688 64.697914Q191.28125 64.697914 191.70312 64.52604L191.84375 65.80729Q191.28125 66.05729 190.54688 66.05729Q190.10938 66.05729 189.75 65.916664Q189.39062 65.760414 189.21875 65.52604Q189.0625 65.27604 188.98438 64.885414Q188.9375 64.58854 188.9375 63.71354L188.9375 61.010414L188.1875 61.010414L188.1875 59.697914L188.9375 59.697914L188.9375 58.46354L190.59375 57.49479L190.59375 59.697914L191.71875 59.697914ZM199.71875 65.916664L198.07812 65.916664L198.07812 59.71354Q197.17188 60.55729 195.95312 60.96354L195.95312 59.46354Q196.59375 59.260414 197.34375 58.666664Q198.10938 58.072914 198.39062 57.291664L199.71875 57.291664L199.71875 65.916664Z" fill-rule="nonzero"/><path fill="#ea4335" d="M224.0 55.916668L230.0 61.916668L224.0 67.916664L218.0 61.916668Z" fill-rule="nonzero"/><path fill="#1a1a1a" d="M238.875 57.322914L242.03125 57.322914Q243.10938 57.322914 243.67188 57.49479Q244.42188 57.71354 244.95312 58.291664Q245.5 58.854164 245.78125 59.68229Q246.0625 60.49479 246.0625 61.697914Q246.0625 62.760414 245.8125 63.52604Q245.48438 64.46354 244.89062 65.041664Q244.4375 65.49479 243.67188 65.729164Q243.09375 65.916664 242.125 65.916664L238.875 65.916664L238.875 57.322914ZM240.60938 58.77604L240.60938 64.46354L241.89062 64.46354Q242.625 64.46354 242.95312 64.385414Q243.375 64.27604 243.64062 64.02604Q243.92188 63.77604 244.09375 63.197914Q244.28125 62.61979 244.28125 61.61979Q244.28125 60.635414 244.09375 60.104164Q243.92188 59.55729 243.60938 59.260414Q243.29688 58.96354 242.8125 58.854164Q242.4375 58.77604 241.375 58.77604L240.60938 58.77604ZM248.09375 61.58854L246.59375 61.322914Q246.84375 60.416664 247.45312 59.99479Q248.07812 59.55729 249.29688 59.55729Q250.39062 59.55729 250.92188 59.822914Q251.46875 60.072914 251.6875 60.479164Q251.90625 60.86979 251.90625 61.947914L251.89062 63.86979Q251.89062 64.697914 251.96875 65.08854Q252.04688 65.46354 252.26562 65.916664L250.64062 65.916664Q250.57812 65.74479 250.48438 65.43229Q250.4375 65.27604 250.42188 65.229164Q250.0 65.65104 249.51562 65.854164Q249.04688 66.05729 248.5 66.05729Q247.53125 66.05729 246.96875 65.541664Q246.42188 65.010414 246.42188 64.21354Q246.42188 63.68229 246.67188 63.27604Q246.9375 62.86979 247.39062 62.65104Q247.84375 62.416664 248.70312 62.260414Q249.84375 62.041664 250.29688 61.854164L250.29688 61.697914Q250.29688 61.21354 250.0625 61.010414Q249.82812 60.80729 249.17188 60.80729Q248.73438 60.80729 248.48438 60.979164Q248.25 61.15104 248.09375 61.58854ZM250.29688 62.93229Q249.98438 63.02604 249.29688 63.18229Q248.60938 63.322914 248.39062 63.46354Q248.07812 63.697914 248.07812 64.041664Q248.07812 64.385414 248.32812 64.65104Q248.59375 64.90104 248.98438 64.90104Q249.4375 64.90104 249.84375 64.604164Q250.14062 64.385414 250.23438 64.05729Q250.29688 63.854164 250.29688 63.260414L250.29688 62.93229ZM256.71875 59.697914L256.71875 61.010414L255.59375 61.010414L255.59375 63.510414Q255.59375 64.27604 255.625 64.40104Q255.65625 64.52604 255.76562 64.61979Q255.89062 64.697914 256.04688 64.697914Q256.28125 64.697914 256.70312 64.52604L256.84375 65.80729Q256.28125 66.05729 255.54688 66.05729Q255.10938 66.05729 254.75 65.916664Q254.39062 65.760414 254.21875 65.52604Q254.0625 65.27604 253.98438 64.885414Q253.9375 64.58854 253.9375 63.71354L253.9375 61.010414L253.1875 61.010414L253.1875 59.697914L253.9375 59.697914L253.9375 58.46354L255.59375 57.49479L255.59375 59.697914L256.71875 59.697914ZM259.09375 61.58854L257.59375 61.322914Q257.84375 60.416664 258.45312 59.99479Q259.07812 59.55729 260.29688 59.55729Q261.39062 59.55729 261.92188 59.822914Q262.46875 60.072914 262.6875 60.479164Q262.90625 60.86979 262.90625 61.947914L262.89062 63.86979Q262.89062 64.697914 262.96875 65.08854Q263.04688 65.46354 263.26562 65.916664L261.64062 65.916664Q261.57812 65.74479 261.48438 65.43229Q261.4375 65.27604 261.42188 65.229164Q261.0 65.65104 260.51562 65.854164Q260.04688 66.05729 259.5 66.05729Q258.53125 66.05729 257.96875 65.541664Q257.42188 65.010414 257.42188 64.21354Q257.42188 63.68229 257.67188 63.27604Q257.9375 62.86979 258.39062 62.65104Q258.84375 62.416664 259.70312 62.260414Q260.84375 62.041664 261.29688 61.854164L261.29688 61.697914Q261.29688 61.21354 261.0625 61.010414Q260.82812 60.80729 260.17188 60.80729Q259.73438 60.80729 259.48438 60.979164Q259.25 61.15104 259.09375 61.58854ZM261.29688 62.93229Q260.98438 63.02604 260.29688 63.18229Q259.60938 63.322914 259.39062 63.46354Q259.07812 63.697914 259.07812 64.041664Q259.07812 64.385414 259.32812 64.65104Q259.59375 64.90104 259.98438 64.90104Q260.4375 64.90104 260.84375 64.604164Q261.14062 64.385414 261.23438 64.05729Q261.29688 63.854164 261.29688 63.260414L261.29688 62.93229ZM264.28125 64.135414L265.9375 63.885414Q266.04688 64.36979 266.35938 64.61979Q266.6875 64.86979 267.26562 64.86979Q267.90625 64.86979 268.21875 64.635414Q268.4375 64.46354 268.4375 64.197914Q268.4375 64.010414 268.32812 63.885414Q268.20312 63.760414 267.78125 63.666664Q265.78125 63.229164 265.25 62.86979Q264.51562 62.354164 264.51562 61.46354Q264.51562 60.65104 265.14062 60.104164Q265.78125 59.55729 267.125 59.55729Q268.40625 59.55729 269.03125 59.979164Q269.65625 60.385414 269.89062 61.197914L268.32812 61.479164Q268.23438 61.11979 267.95312 60.93229Q267.67188 60.729164 267.15625 60.729164Q266.51562 60.729164 266.23438 60.916664Q266.04688 61.041664 266.04688 61.24479Q266.04688 61.43229 266.20312 61.55729Q266.42188 61.71354 267.73438 62.010414Q269.0625 62.30729 269.57812 62.74479Q270.09375 63.18229 270.09375 63.96354Q270.09375 64.822914 269.375 65.447914Q268.67188 66.05729 267.26562 66.05729Q266.0 66.05729 265.25 65.541664Q264.51562 65.02604 264.28125 64.135414ZM275.46875 63.93229L277.10938 64.21354Q276.79688 65.11979 276.10938 65.58854Q275.42188 66.05729 274.40625 66.05729Q272.78125 66.05729 272.0 64.99479Q271.375 64.15104 271.375 62.854164Q271.375 61.30729 272.1875 60.43229Q273.0 59.55729 274.23438 59.55729Q275.625 59.55729 276.42188 60.479164Q277.23438 61.385414 277.1875 63.27604L273.0625 63.27604Q273.09375 64.010414 273.46875 64.416664Q273.84375 64.822914 274.42188 64.822914Q274.79688 64.822914 275.0625 64.61979Q275.32812 64.40104 275.46875 63.93229ZM275.5625 62.27604Q275.54688 61.55729 275.1875 61.18229Q274.84375 60.80729 274.32812 60.80729Q273.79688 60.80729 273.4375 61.197914Q273.09375 61.604164 273.09375 62.27604L275.5625 62.27604ZM281.71875 59.697914L281.71875 61.010414L280.59375 61.010414L280.59375 63.510414Q280.59375 64.27604 280.625 64.40104Q280.65625 64.52604 280.76562 64.61979Q280.89062 64.697914 281.04688 64.697914Q281.28125 64.697914 281.70312 64.52604L281.84375 65.80729Q281.28125 66.05729 280.54688 66.05729Q280.10938 66.05729 279.75 65.916664Q279.39062 65.760414 279.21875 65.52604Q279.0625 65.27604 278.98438 64.885414Q278.9375 64.58854 278.9375 63.71354L278.9375 61.010414L278.1875 61.010414L278.1875 59.697914L278.9375 59.697914L278.9375 58.46354L280.59375 57.49479L280.59375 59.697914L281.71875 59.697914ZM291.07812 64.385414L291.07812 65.916664L285.29688 65.916664Q285.39062 65.041664 285.85938 64.27604Q286.32812 63.49479 287.71875 62.21354Q288.82812 61.18229 289.07812 60.80729Q289.42188 60.291664 289.42188 59.791664Q289.42188 59.24479 289.125 58.947914Q288.82812 58.65104 288.3125 58.65104Q287.79688 58.65104 287.48438 58.96354Q287.1875 59.27604 287.14062 59.99479L285.5 59.83854Q285.64062 58.479164 286.40625 57.885414Q287.1875 57.291664 288.34375 57.291664Q289.625 57.291664 290.34375 57.979164Q291.07812 58.666664 291.07812 59.68229Q291.07812 60.260414 290.85938 60.791664Q290.65625 61.30729 290.20312 61.885414Q289.90625 62.260414 289.125 62.979164Q288.34375 63.697914 288.14062 63.93229Q287.9375 64.166664 287.79688 64.385414L291.07812 64.385414Z" fill-rule="nonzero"/><path fill="#fbbc04" d="M314.0 55.916668L320.0 61.916668L314.0 67.916664L308.0 61.916668Z" fill-rule="nonzero"/><path fill="#1a1a1a" d="M328.875 57.322914L332.03125 57.322914Q333.10938 57.322914 333.67188 57.49479Q334.42188 57.71354 334.95312 58.291664Q335.5 58.854164 335.78125 59.68229Q336.0625 60.49479 336.0625 61.697914Q336.0625 62.760414 335.8125 63.52604Q335.48438 64.46354 334.89062 65.041664Q334.4375 65.49479 333.67188 65.729164Q333.09375 65.916664 332.125 65.916664L328.875 65.916664L328.875 57.322914ZM330.60938 58.77604L330.60938 64.46354L331.89062 64.46354Q332.625 64.46354 332.95312 64.385414Q333.375 64.27604 333.64062 64.02604Q333.92188 63.77604 334.09375 63.197914Q334.28125 62.61979 334.28125 61.61979Q334.28125 60.635414 334.09375 60.104164Q333.92188 59.55729 333.60938 59.260414Q333.29688 58.96354 332.8125 58.854164Q332.4375 58.77604 331.375 58.77604L330.60938 58.77604ZM338.09375 61.58854L336.59375 61.322914Q336.84375 60.416664 337.45312 59.99479Q338.07812 59.55729 339.29688 59.55729Q340.39062 59.55729 340.92188 59.822914Q341.46875 60.072914 341.6875 60.479164Q341.90625 60.86979 341.90625 61.947914L341.89062 63.86979Q341.89062 64.697914 341.96875 65.08854Q342.04688 65.46354 342.26562 65.916664L340.64062 65.916664Q340.57812 65.74479 340.48438 65.43229Q340.4375 65.27604 340.42188 65.229164Q340.0 65.65104 339.51562 65.854164Q339.04688 66.05729 338.5 66.05729Q337.53125 66.05729 336.96875 65.541664Q336.42188 65.010414 336.42188 64.21354Q336.42188 63.68229 336.67188 63.27604Q336.9375 62.86979 337.39062 62.65104Q337.84375 62.416664 338.70312 62.260414Q339.84375 62.041664 340.29688 61.854164L340.29688 61.697914Q340.29688 61.21354 340.0625 61.010414Q339.82812 60.80729 339.17188 60.80729Q338.73438 60.80729 338.48438 60.979164Q338.25 61.15104 338.09375 61.58854ZM340.29688 62.93229Q339.98438 63.02604 339.29688 63.18229Q338.60938 63.322914 338.39062 63.46354Q338.07812 63.697914 338.07812 64.041664Q338.07812 64.385414 338.32812 64.65104Q338.59375 64.90104 338.98438 64.90104Q339.4375 64.90104 339.84375 64.604164Q340.14062 64.385414 340.23438 64.05729Q340.29688 63.854164 340.29688 63.260414L340.29688 62.93229ZM346.71875 59.697914L346.71875 61.010414L345.59375 61.010414L345.59375 63.510414Q345.59375 64.27604 345.625 64.40104Q345.65625 64.52604 345.76562 64.61979Q345.89062 64.697914 346.04688 64.697914Q346.28125 64.697914 346.70312 64.52604L346.84375 65.80729Q346.28125 66.05729 345.54688 66.05729Q345.10938 66.05729 344.75 65.916664Q344.39062 65.760414 344.21875 65.52604Q344.0625 65.27604 343.98438 64.885414Q343.9375 64.58854 343.9375 63.71354L343.9375 61.010414L343.1875 61.010414L343.1875 59.697914L343.9375 59.697914L343.9375 58.46354L345.59375 57.49479L345.59375 59.697914L346.71875 59.697914ZM349.09375 61.58854L347.59375 61.322914Q347.84375 60.416664 348.45312 59.99479Q349.07812 59.55729 350.29688 59.55729Q351.39062 59.55729 351.92188 59.822914Q352.46875 60.072914 352.6875 60.479164Q352.90625 60.86979 352.90625 61.947914L352.89062 63.86979Q352.89062 64.697914 352.96875 65.08854Q353.04688 65.46354 353.26562 65.916664L351.64062 65.916664Q351.57812 65.74479 351.48438 65.43229Q351.4375 65.27604 351.42188 65.229164Q351.0 65.65104 350.51562 65.854164Q350.04688 66.05729 349.5 66.05729Q348.53125 66.05729 347.96875 65.541664Q347.42188 65.010414 347.42188 64.21354Q347.42188 63.68229 347.67188 63.27604Q347.9375 62.86979 348.39062 62.65104Q348.84375 62.416664 349.70312 62.260414Q350.84375 62.041664 351.29688 61.854164L351.29688 61.697914Q351.29688 61.21354 351.0625 61.010414Q350.82812 60.80729 350.17188 60.80729Q349.73438 60.80729 349.48438 60.979164Q349.25 61.15104 349.09375 61.58854ZM351.29688 62.93229Q350.98438 63.02604 350.29688 63.18229Q349.60938 63.322914 349.39062 63.46354Q349.07812 63.697914 349.07812 64.041664Q349.07812 64.385414 349.32812 64.65104Q349.59375 64.90104 349.98438 64.90104Q350.4375 64.90104 350.84375 64.604164Q351.14062 64.385414 351.23438 64.05729Q351.29688 63.854164 351.29688 63.260414L351.29688 62.93229ZM354.28125 64.135414L355.9375 63.885414Q356.04688 64.36979 356.35938 64.61979Q356.6875 64.86979 357.26562 64.86979Q357.90625 64.86979 358.21875 64.635414Q358.4375 64.46354 358.4375 64.197914Q358.4375 64.010414 358.32812 63.885414Q358.20312 63.760414 357.78125 63.666664Q355.78125 63.229164 355.25 62.86979Q354.51562 62.354164 354.51562 61.46354Q354.51562 60.65104 355.14062 60.104164Q355.78125 59.55729 357.125 59.55729Q358.40625 59.55729 359.03125 59.979164Q359.65625 60.385414 359.89062 61.197914L358.32812 61.479164Q358.23438 61.11979 357.95312 60.93229Q357.67188 60.729164 357.15625 60.729164Q356.51562 60.729164 356.23438 60.916664Q356.04688 61.041664 356.04688 61.24479Q356.04688 61.43229 356.20312 61.55729Q356.42188 61.71354 357.73438 62.010414Q359.0625 62.30729 359.57812 62.74479Q360.09375 63.18229 360.09375 63.96354Q360.09375 64.822914 359.375 65.447914Q358.67188 66.05729 357.26562 66.05729Q356.0 66.05729 355.25 65.541664Q354.51562 65.02604 354.28125 64.135414ZM365.46875 63.93229L367.10938 64.21354Q366.79688 65.11979 366.10938 65.58854Q365.42188 66.05729 364.40625 66.05729Q362.78125 66.05729 362.0 64.99479Q361.375 64.15104 361.375 62.854164Q361.375 61.30729 362.1875 60.43229Q363.0 59.55729 364.23438 59.55729Q365.625 59.55729 366.42188 60.479164Q367.23438 61.385414 367.1875 63.27604L363.0625 63.27604Q363.09375 64.010414 363.46875 64.416664Q363.84375 64.822914 364.42188 64.822914Q364.79688 64.822914 365.0625 64.61979Q365.32812 64.40104 365.46875 63.93229ZM365.5625 62.27604Q365.54688 61.55729 365.1875 61.18229Q364.84375 60.80729 364.32812 60.80729Q363.79688 60.80729 363.4375 61.197914Q363.09375 61.604164 363.09375 62.27604L365.5625 62.27604ZM371.71875 59.697914L371.71875 61.010414L370.59375 61.010414L370.59375 63.510414Q370.59375 64.27604 370.625 64.40104Q370.65625 64.52604 370.76562 64.61979Q370.89062 64.697914 371.04688 64.697914Q371.28125 64.697914 371.70312 64.52604L371.84375 65.80729Q371.28125 66.05729 370.54688 66.05729Q370.10938 66.05729 369.75 65.916664Q369.39062 65.760414 369.21875 65.52604Q369.0625 65.27604 368.98438 64.885414Q368.9375 64.58854 368.9375 63.71354L368.9375 61.010414L368.1875 61.010414L368.1875 59.697914L368.9375 59.697914L368.9375 58.46354L370.59375 57.49479L370.59375 59.697914L371.71875 59.697914ZM375.45312 63.635414L377.04688 63.447914Q377.125 64.05729 377.45312 64.385414Q377.79688 64.697914 378.26562 64.697914Q378.78125 64.697914 379.125 64.30729Q379.46875 63.916664 379.46875 63.260414Q379.46875 62.65104 379.125 62.291664Q378.79688 61.916664 378.32812 61.916664Q378.0 61.916664 377.5625 62.041664L377.75 60.697914Q378.42188 60.71354 378.76562 60.416664Q379.125 60.104164 379.125 59.58854Q379.125 59.166664 378.85938 58.916664Q378.60938 58.65104 378.17188 58.65104Q377.75 58.65104 377.45312 58.947914Q377.15625 59.229164 377.09375 59.791664L375.57812 59.541664Q375.73438 58.760414 376.04688 58.291664Q376.375 57.822914 376.9375 57.55729Q377.51562 57.291664 378.21875 57.291664Q379.4375 57.291664 380.17188 58.05729Q380.76562 58.697914 380.76562 59.49479Q380.76562 60.61979 379.53125 61.291664Q380.28125 61.46354 380.71875 62.010414Q381.15625 62.55729 381.15625 63.33854Q381.15625 64.46354 380.32812 65.260414Q379.5 66.05729 378.28125 66.05729Q377.10938 66.05729 376.34375 65.385414Q375.57812 64.71354 375.45312 63.635414Z" fill-rule="nonzero"/><path fill="#34a853" d="M404.0 55.916668L410.0 61.916668L404.0 67.916664L398.0 61.916668Z" fill-rule="nonzero"/><path fill="#1a1a1a" d="M418.875 57.322914L422.03125 57.322914Q423.10938 57.322914 423.67188 57.49479Q424.42188 57.71354 424.95312 58.291664Q425.5 58.854164 425.78125 59.68229Q426.0625 60.49479 426.0625 61.697914Q426.0625 62.760414 425.8125 63.52604Q425.48438 64.46354 424.89062 65.041664Q424.4375 65.49479 423.67188 65.729164Q423.09375 65.916664 422.125 65.916664L418.875 65.916664L418.875 57.322914ZM420.60938 58.77604L420.60938 64.46354L421.89062 64.46354Q422.625 64.46354 422.95312 64.385414Q423.375 64.27604 423.64062 64.02604Q423.92188 63.77604 424.09375 63.197914Q424.28125 62.61979 424.28125 61.61979Q424.28125 60.635414 424.09375 60.104164Q423.92188 59.55729 423.60938 59.260414Q423.29688 58.96354 422.8125 58.854164Q422.4375 58.77604 421.375 58.77604L420.60938 58.77604ZM428.09375 61.58854L426.59375 61.322914Q426.84375 60.416664 427.45312 59.99479Q428.07812 59.55729 429.29688 59.55729Q430.39062 59.55729 430.92188 59.822914Q431.46875 60.072914 431.6875 60.479164Q431.90625 60.86979 431.90625 61.947914L431.89062 63.86979Q431.89062 64.697914 431.96875 65.08854Q432.04688 65.46354 432.26562 65.916664L430.64062 65.916664Q430.57812 65.74479 430.48438 65.43229Q430.4375 65.27604 430.42188 65.229164Q430.0 65.65104 429.51562 65.854164Q429.04688 66.05729 428.5 66.05729Q427.53125 66.05729 426.96875 65.541664Q426.42188 65.010414 426.42188 64.21354Q426.42188 63.68229 426.67188 63.27604Q426.9375 62.86979 427.39062 62.65104Q427.84375 62.416664 428.70312 62.260414Q429.84375 62.041664 430.29688 61.854164L430.29688 61.697914Q430.29688 61.21354 430.0625 61.010414Q429.82812 60.80729 429.17188 60.80729Q428.73438 60.80729 428.48438 60.979164Q428.25 61.15104 428.09375 61.58854ZM430.29688 62.93229Q429.98438 63.02604 429.29688 63.18229Q428.60938 63.322914 428.39062 63.46354Q428.07812 63.697914 428.07812 64.041664Q428.07812 64.385414 428.32812 64.65104Q428.59375 64.90104 428.98438 64.90104Q429.4375 64.90104 429.84375 64.604164Q430.14062 64.385414 430.23438 64.05729Q430.29688 63.854164 430.29688 63.260414L430.29688 62.93229ZM436.71875 59.697914L436.71875 61.010414L435.59375 61.010414L435.59375 63.510414Q435.59375 64.27604 435.625 64.40104Q435.65625 64.52604 435.76562 64.61979Q435.89062 64.697914 436.04688 64.697914Q436.28125 64.697914 436.70312 64.52604L436.84375 65.80729Q436.28125 66.05729 435.54688 66.05729Q435.10938 66.05729 434.75 65.916664Q434.39062 65.760414 434.21875 65.52604Q434.0625 65.27604 433.98438 64.885414Q433.9375 64.58854 433.9375 63.71354L433.9375 61.010414L433.1875 61.010414L433.1875 59.697914L433.9375 59.697914L433.9375 58.46354L435.59375 57.49479L435.59375 59.697914L436.71875 59.697914ZM439.09375 61.58854L437.59375 61.322914Q437.84375 60.416664 438.45312 59.99479Q439.07812 59.55729 440.29688 59.55729Q441.39062 59.55729 441.92188 59.822914Q442.46875 60.072914 442.6875 60.479164Q442.90625 60.86979 442.90625 61.947914L442.89062 63.86979Q442.89062 64.697914 442.96875 65.08854Q443.04688 65.46354 443.26562 65.916664L441.64062 65.916664Q441.57812 65.74479 441.48438 65.43229Q441.4375 65.27604 441.42188 65.229164Q441.0 65.65104 440.51562 65.854164Q440.04688 66.05729 439.5 66.05729Q438.53125 66.05729 437.96875 65.541664Q437.42188 65.010414 437.42188 64.21354Q437.42188 63.68229 437.67188 63.27604Q437.9375 62.86979 438.39062 62.65104Q438.84375 62.416664 439.70312 62.260414Q440.84375 62.041664 441.29688 61.854164L441.29688 61.697914Q441.29688 61.21354 441.0625 61.010414Q440.82812 60.80729 440.17188 60.80729Q439.73438 60.80729 439.48438 60.979164Q439.25 61.15104 439.09375 61.58854ZM441.29688 62.93229Q440.98438 63.02604 440.29688 63.18229Q439.60938 63.322914 439.39062 63.46354Q439.07812 63.697914 439.07812 64.041664Q439.07812 64.385414 439.32812 64.65104Q439.59375 64.90104 439.98438 64.90104Q440.4375 64.90104 440.84375 64.604164Q441.14062 64.385414 441.23438 64.05729Q441.29688 63.854164 441.29688 63.260414L441.29688 62.93229ZM444.28125 64.135414L445.9375 63.885414Q446.04688 64.36979 446.35938 64.61979Q446.6875 64.86979 447.26562 64.86979Q447.90625 64.86979 448.21875 64.635414Q448.4375 64.46354 448.4375 64.197914Q448.4375 64.010414 448.32812 63.885414Q448.20312 63.760414 447.78125 63.666664Q445.78125 63.229164 445.25 62.86979Q444.51562 62.354164 444.51562 61.46354Q444.51562 60.65104 445.14062 60.104164Q445.78125 59.55729 447.125 59.55729Q448.40625 59.55729 449.03125 59.979164Q449.65625 60.385414 449.89062 61.197914L448.32812 61.479164Q448.23438 61.11979 447.95312 60.93229Q447.67188 60.729164 447.15625 60.729164Q446.51562 60.729164 446.23438 60.916664Q446.04688 61.041664 446.04688 61.24479Q446.04688 61.43229 446.20312 61.55729Q446.42188 61.71354 447.73438 62.010414Q449.0625 62.30729 449.57812 62.74479Q450.09375 63.18229 450.09375 63.96354Q450.09375 64.822914 449.375 65.447914Q448.67188 66.05729 447.26562 66.05729Q446.0 66.05729 445.25 65.541664Q444.51562 65.02604 444.28125 64.135414ZM455.46875 63.93229L457.10938 64.21354Q456.79688 65.11979 456.10938 65.58854Q455.42188 66.05729 454.40625 66.05729Q452.78125 66.05729 452.0 64.99479Q451.375 64.15104 451.375 62.854164Q451.375 61.30729 452.1875 60.43229Q453.0 59.55729 454.23438 59.55729Q455.625 59.55729 456.42188 60.479164Q457.23438 61.385414 457.1875 63.27604L453.0625 63.27604Q453.09375 64.010414 453.46875 64.416664Q453.84375 64.822914 454.42188 64.822914Q454.79688 64.822914 455.0625 64.61979Q455.32812 64.40104 455.46875 63.93229ZM455.5625 62.27604Q455.54688 61.55729 455.1875 61.18229Q454.84375 60.80729 454.32812 60.80729Q453.79688 60.80729 453.4375 61.197914Q453.09375 61.604164 453.09375 62.27604L455.5625 62.27604ZM461.71875 59.697914L461.71875 61.010414L460.59375 61.010414L460.59375 63.510414Q460.59375 64.27604 460.625 64.40104Q460.65625 64.52604 460.76562 64.61979Q460.89062 64.697914 461.04688 64.697914Q461.28125 64.697914 461.70312 64.52604L461.84375 65.80729Q461.28125 66.05729 460.54688 66.05729Q460.10938 66.05729 459.75 65.916664Q459.39062 65.760414 459.21875 65.52604Q459.0625 65.27604 458.98438 64.885414Q458.9375 64.58854 458.9375 63.71354L458.9375 61.010414L458.1875 61.010414L458.1875 59.697914L458.9375 59.697914L458.9375 58.46354L460.59375 57.49479L460.59375 59.697914L461.71875 59.697914ZM468.73438 65.916664L468.73438 64.18229L465.21875 64.18229L465.21875 62.74479L468.95312 57.291664L470.32812 57.291664L470.32812 62.74479L471.40625 62.74479L471.40625 64.18229L470.32812 64.18229L470.32812 65.916664L468.73438 65.916664ZM468.73438 62.74479L468.73438 59.80729L466.76562 62.74479L468.73438 62.74479Z" fill-rule="nonzero"/><path fill="#000000" d="M279.40625 32.95625L281.1875 32.8Q281.3125 33.8625 281.76562 34.55Q282.23438 35.2375 283.20312 35.675Q284.1875 36.096874 285.42188 36.096874Q286.5 36.096874 287.32812 35.784374Q288.15625 35.45625 288.5625 34.89375Q288.96875 34.33125 288.96875 33.659374Q288.96875 32.9875 288.57812 32.4875Q288.1875 31.9875 287.29688 31.64375Q286.71875 31.409374 284.73438 30.940624Q282.76562 30.471874 281.98438 30.05Q280.95312 29.51875 280.45312 28.721874Q279.95312 27.925 279.95312 26.940624Q279.95312 25.846874 280.5625 24.909374Q281.17188 23.971874 282.35938 23.4875Q283.54688 22.9875 284.98438 22.9875Q286.57812 22.9875 287.79688 23.503124Q289.01562 24.01875 289.65625 25.01875Q290.3125 26.003124 290.35938 27.26875L288.54688 27.409374Q288.40625 26.05 287.5625 25.3625Q286.71875 24.659374 285.0625 24.659374Q283.34375 24.659374 282.54688 25.3Q281.76562 25.925 281.76562 26.8Q281.76562 27.58125 282.32812 28.08125Q282.875 28.58125 285.1875 29.096874Q287.5 29.6125 288.35938 30.003124Q289.60938 30.58125 290.20312 31.471874Q290.79688 32.346874 290.79688 33.503124Q290.79688 34.64375 290.14062 35.659374Q289.48438 36.675 288.25 37.2375Q287.03125 37.8 285.5 37.8Q283.5625 37.8 282.25 37.2375Q280.9375 36.659374 280.1875 35.51875Q279.4375 34.378124 279.40625 32.95625ZM297.14062 37.55L291.59375 23.2375L293.64062 23.2375L297.35938 33.628124Q297.8125 34.878124 298.10938 35.971874Q298.4375 34.8 298.89062 33.628124L302.75 23.2375L304.6875 23.2375L299.07812 37.55L297.14062 37.55ZM305.98438 37.55L305.98438 23.2375L308.84375 23.2375L312.21875 33.3625Q312.6875 34.784374 312.90625 35.4875Q313.15625 34.70625 313.67188 33.190624L317.09375 23.2375L319.64062 23.2375L319.64062 37.55L317.82812 37.55L317.82812 25.565624L313.65625 37.55L311.95312 37.55L307.8125 25.3625L307.8125 37.55L305.98438 37.55Z" fill-rule="nonzero"/></svg>